<svg width="50" height="50" viewBox="0 0 50 50" fill="none" xmlns="http://www.w3.org/2000/svg">
<path d="M47.7939 17.3296C49.2371 17.3296 50 16.5396 50 15.0954V8.41964C50 2.80658 47.1675 0 41.4487 0H34.8038C33.3604 0 32.5706 0.790206 32.5706 2.17984C32.5706 3.59667 33.3604 4.387 34.8038 4.387H41.3942C44.0631 4.387 45.6153 5.83115 45.6153 8.66482V15.0954C45.6153 16.5396 46.4051 17.3296 47.7939 17.3296ZM2.20583 17.3296C3.62201 17.3296 4.38447 16.5396 4.38447 15.0954V8.66482C4.38447 5.83115 5.90952 4.387 8.63288 4.387H15.2232C16.6394 4.387 17.4291 3.59667 17.4291 2.17984C17.4291 0.790206 16.6394 0 15.2232 0H8.55108C2.88673 0 0 2.80658 0 8.41964V15.0954C0 16.5396 0.789772 17.3296 2.20583 17.3296ZM12.9629 35.4224H14.7875V14.5777H12.9629V35.4224ZM17.1023 35.4224H20.5609V14.5777H17.1023V35.4224ZM22.1132 35.4224H24.2918V14.5777H22.1132V35.4224ZM26.2254 35.4224H29.6022V14.5777H26.2254V35.4224ZM30.9912 35.4224H33.66V14.5777H30.9912V35.4224ZM34.6404 35.4224H36.356V14.5777H34.6404V35.4224ZM8.55108 50H15.2232C16.6394 50 17.4291 49.2098 17.4291 47.8202C17.4291 46.4033 16.6394 45.6131 15.2232 45.6131H8.63288C5.90952 45.6131 4.38447 44.169 4.38447 41.3352V34.9047C4.38447 33.4606 3.5947 32.6704 2.20583 32.6704C0.762466 32.6704 0 33.4606 0 34.9047V41.5532C0 47.1934 2.88673 50 8.55108 50ZM34.8038 50H41.4487C47.1675 50 50 47.1662 50 41.5532V34.9047C50 33.4606 49.2102 32.6704 47.7939 32.6704C46.3779 32.6704 45.6153 33.4606 45.6153 34.9047V41.3352C45.6153 44.169 44.0631 45.6131 41.3942 45.6131H34.8038C33.3604 45.6131 32.5706 46.4033 32.5706 47.8202C32.5706 49.2098 33.3604 50 34.8038 50Z" fill="#141414"/>
</svg>
