<svg width="35" height="21" viewBox="0 0 35 21" fill="none" xmlns="http://www.w3.org/2000/svg">
<path d="M32.3987 21H2.43307C1.35911 21 0.488281 20.1292 0.488281 19.0552V1.94479C0.488281 0.870831 1.35911 0 2.43307 0H32.3987C33.4726 0 34.3435 0.870831 34.3435 1.94479V19.0548C34.3435 20.1292 33.4726 21 32.3987 21Z" fill="#363B38"/>
<path d="M32.3987 0H31.8706V8.85163C31.8706 14.8782 26.9853 19.7635 20.9587 19.7635H0.625977C0.909608 20.4865 1.60966 21 2.43309 21H32.3987C33.4727 21 34.3435 20.1292 34.3435 19.0552V1.94479C34.3435 0.870831 33.4727 0 32.3987 0Z" fill="#2E322F"/>
<path d="M7.62498 6.84037H3.4717C3.03046 6.84037 2.6731 6.48263 2.6731 6.04176V3.80544C2.6731 3.3642 3.03083 3.00684 3.4717 3.00684H7.62498C8.06623 3.00684 8.42359 3.36457 8.42359 3.80544V6.04176C8.42359 6.48263 8.06623 6.84037 7.62498 6.84037Z" fill="#EAA500"/>
<path d="M7.96835 10.92H3.12819C2.89609 10.92 2.70801 10.7322 2.70801 10.4998C2.70801 10.2673 2.89609 10.0796 3.12819 10.0796H7.96873C8.20082 10.0796 8.38891 10.2673 8.38891 10.4998C8.38891 10.7322 8.20045 10.92 7.96835 10.92Z" fill="#545C56"/>
<path d="M15.0399 10.92H10.1997C9.96762 10.92 9.77954 10.7322 9.77954 10.4998C9.77954 10.2673 9.96762 10.0796 10.1997 10.0796H15.0403C15.2724 10.0796 15.4604 10.2673 15.4604 10.4998C15.4604 10.7322 15.272 10.92 15.0399 10.92Z" fill="#545C56"/>
<path d="M22.1119 10.92H17.271C17.0389 10.92 16.8508 10.7322 16.8508 10.4998C16.8508 10.2673 17.0385 10.0796 17.271 10.0796H22.1119C22.344 10.0796 22.5321 10.2673 22.5321 10.4998C22.5321 10.7322 22.344 10.92 22.1119 10.92Z" fill="#545C56"/>
<path d="M29.1835 10.92H24.3425C24.1104 10.92 23.9224 10.7322 23.9224 10.4998C23.9224 10.2673 24.1101 10.0796 24.3425 10.0796H29.1835C29.4156 10.0796 29.6036 10.2673 29.6036 10.4998C29.6036 10.7322 29.4156 10.92 29.1835 10.92Z" fill="#545C56"/>
<path d="M12.169 18.0606H3.12819C2.89609 18.0606 2.70801 17.8729 2.70801 17.6404C2.70801 17.4083 2.89609 17.2202 3.12819 17.2202H12.169C12.4011 17.2202 12.5892 17.4079 12.5892 17.6404C12.5892 17.8729 12.4011 18.0606 12.169 18.0606Z" fill="#545C56"/>
<path d="M12.169 15.5401H9.0088C8.77671 15.5401 8.58862 15.3524 8.58862 15.1199C8.58862 14.8874 8.77671 14.6997 9.0088 14.6997H12.169C12.4011 14.6997 12.5892 14.8874 12.5892 15.1199C12.5892 15.3524 12.4011 15.5401 12.169 15.5401Z" fill="#545C56"/>
<path d="M28.1962 14.4336C27.6019 14.4336 27.0775 14.7097 26.7261 15.134C26.3744 14.7097 25.85 14.4336 25.2561 14.4336C24.1975 14.4336 23.3391 15.292 23.3391 16.3505C23.3391 17.4091 24.1975 18.2675 25.2561 18.2675C25.8504 18.2675 26.3748 17.9914 26.7261 17.5671C27.0779 17.9914 27.6022 18.2675 28.1962 18.2675C29.2547 18.2675 30.1132 17.4091 30.1132 16.3505C30.1132 15.2916 29.2547 14.4336 28.1962 14.4336Z" fill="#545C56"/>
<path d="M27.0713 17.8911C27.3865 18.1251 27.7728 18.2669 28.196 18.2669C29.2546 18.2669 30.113 17.4085 30.113 16.35C30.113 15.9497 29.9896 15.5788 29.7801 15.2715C29.0353 16.2932 28.1193 17.1813 27.0713 17.8911Z" fill="#494F4A"/>
</svg>
