<svg width="45" height="60" viewBox="0 0 45 60" fill="none" xmlns="http://www.w3.org/2000/svg">
<rect width="45" height="60" rx="10" fill="#FF8E5A"/>
<path d="M25.3989 30.1904C24.4989 30.1587 23.8177 29.8674 23.2444 29.3113C22.6389 28.7235 22.051 28.7306 21.4372 29.3154C20.2313 30.4633 18.5382 30.4735 17.3033 29.3399C16.1079 28.242 15.9575 26.4245 16.9996 25.2101C17.8487 24.2206 18.7196 23.2454 19.6196 22.3009C21.1168 20.7297 23.5378 20.7154 25.0422 22.2773C25.965 23.2352 26.8619 24.2226 27.7079 25.2469C28.5052 26.2109 28.6037 27.3251 28.0553 28.4393C27.5078 29.5515 26.5415 30.0974 25.3989 30.1904Z" fill="white"/>
<path d="M23.1065 16.7809C23.1231 16.0316 23.3315 15.2905 23.8727 14.671C24.726 13.6948 25.9764 13.798 26.6576 14.8928C27.3544 16.0121 27.1802 17.7428 26.275 18.7016C25.4227 19.6032 24.2283 19.4959 23.5585 18.4542C23.2423 17.9605 23.1148 17.4136 23.1065 16.7809Z" fill="white"/>
<path d="M21.5813 16.7553C21.5689 17.479 21.4164 18.1067 20.9882 18.6454C20.3475 19.4509 19.3417 19.5347 18.5693 18.8529C17.4796 17.893 17.2702 15.8895 18.139 14.7272C18.7953 13.8491 19.8653 13.752 20.6616 14.5136C21.3128 15.1371 21.5481 15.9345 21.5813 16.7553Z" fill="white"/>
<path d="M17.1001 20.2983C17.0618 20.5058 17.041 20.7593 16.9664 20.9965C16.6771 21.9124 15.8217 22.3213 14.9041 22.0003C13.5749 21.5352 12.676 19.732 13.1104 18.399C13.4339 17.4064 14.3754 16.9832 15.3344 17.4504C16.4977 18.0177 17.0048 19.0144 17.1001 20.2983Z" fill="white"/>
<path d="M27.6011 20.0785C27.6862 19.0103 28.1911 18.0116 29.3565 17.4484C30.3363 16.9751 31.3161 17.4453 31.6033 18.4757C31.96 19.7555 31.1543 21.4105 29.9164 21.9431C28.6857 22.4726 27.6022 21.6793 27.6011 20.0785Z" fill="white"/>
<path d="M18 39.9999H8.00008C7.40008 39.9999 7.00012 39.6 7.00012 39C7.00012 38.4 7.40008 38 8.00008 38H18C18.6 38 19 38.4 19 39C19 39.5998 18.6 39.9999 18 39.9999Z" fill="white"/>
<path d="M29.0001 39.9999H22.0001C21.4001 39.9999 21.0002 39.6 21.0002 39C21.0002 38.4 21.4001 38 22.0001 38H29.0001C29.6001 38 30 38.4 30 39C30 39.5998 29.6001 39.9999 29.0001 39.9999Z" fill="white"/>
<path d="M36 39.9999H33C32.4 39.9999 32.0001 39.6 32.0001 39C32.0001 38.4 32.4 38 33 38H36C36.6 38 37 38.4 37 39C37 39.5998 36.6 39.9999 36 39.9999Z" fill="white"/>
<path d="M36 45.9999H29.0001C28.4001 45.9999 28.0001 45.6 28.0001 45C28.0001 44.4 28.4001 44 29.0001 44H36C36.6 44 37 44.4 37 45C37 45.6 36.6 45.9999 36 45.9999Z" fill="white"/>
<path d="M25 45.9999H17C16.4 45.9999 16 45.6 16 45C16 44.4 16.4 44 17 44H25C25.6 44 26 44.4 26 45C26 45.6 25.6 45.9999 25 45.9999Z" fill="white"/>
<path d="M13 45.9999H7.99996C7.39996 45.9999 7 45.6 7 45C7 44.4 7.39996 44 7.99996 44H13C13.6 44 14 44.4 14 45C14 45.6 13.6 45.9999 13 45.9999Z" fill="white"/>
<path d="M15 51.9999H8.00008C7.40008 51.9999 7.00012 51.6 7.00012 51C7.00012 50.4 7.40008 50 8.00008 50H15C15.6 50 16 50.4 16 51C16 51.6 15.6 51.9999 15 51.9999Z" fill="white"/>
<path d="M28 51.9999H19C18.4 51.9999 18 51.6 18 51C18 50.4 18.4 50 19 50H28C28.6 50 29 50.4 29 51C29 51.6 28.6 51.9999 28 51.9999Z" fill="white"/>
<path d="M36 51.9999H32.0001C31.4001 51.9999 31.0001 51.6 31.0001 51C31.0001 50.4 31.4001 50 32.0001 50H36C36.6 50 37 50.4 37 51C37 51.6 36.6 51.9999 36 51.9999Z" fill="white"/>
<path d="M39.375 60H5.625C2.52375 60 0 57.4762 0 54.375V5.625C0 2.52375 2.52375 0 5.625 0H39.375C42.4762 0 45 2.52375 45 5.625V54.375C45 57.4762 42.4762 60 39.375 60ZM42.25 5.625C42.25 4.59188 40.41 2.75 39.375 2.75H5.625C4.59 2.75 2.75 4.59188 2.75 5.625V54.375C2.75 55.4081 4.59 57.25 5.625 57.25H39.375C40.41 57.25 42.25 55.4081 42.25 54.375V5.625Z" fill="black"/>
<path d="M19.3333 8H24.6667C25.404 8 26 7.552 26 7C26 6.448 25.404 6 24.6667 6H19.3333C18.596 6 18 6.448 18 7C18 7.552 18.596 8 19.3333 8Z" fill="black"/>
</svg>
