<svg width="39" height="32" viewBox="0 0 39 32" fill="none" xmlns="http://www.w3.org/2000/svg">
<path d="M24.37 4.55303C28.4886 3.07568 30.9336 9.06887 26.2034 9.88159C22.3353 10.5464 20.9168 6.24106 23.8394 4.64418" stroke="#4A855E" stroke-linecap="round" stroke-linejoin="round"/>
<path d="M31.878 21.2568C32.9805 22.1916 33.3717 23.645 31.8638 24.8992C29.5143 26.8536 26.2209 25.0118 26.2134 22.8028" stroke="#4A855E" stroke-linecap="round" stroke-linejoin="round"/>
<path d="M18.5485 22.8159C18.6505 23.4934 18.3854 24.2246 17.5679 24.8983C15.3926 26.6913 12.4164 25.293 11.9277 23.345" stroke="#4A855E" stroke-linecap="round" stroke-linejoin="round"/>
<path d="M22.2823 10.6401C19.9298 12.8904 18.761 14.3686 18.0381 16.7201" stroke="#4A855E" stroke-linecap="round" stroke-linejoin="round"/>
<path d="M22.3081 11.1201C22.1933 13.9949 22.267 16.0307 26.8158 14.5366" stroke="#4A855E" stroke-linecap="round" stroke-linejoin="round"/>
<path d="M26.0879 14.5015C26.7818 16.2996 28.2578 18.7342 28.5941 20.6333" stroke="#4A855E" stroke-linecap="round" stroke-linejoin="round"/>
<path d="M19.1663 16.7881C17.3434 16.8895 14.1832 17.5542 12.9175 18.7288C12.166 19.426 9.7132 21.6571 10.4279 22.8357C10.8102 23.4671 15.7713 23.173 16.4247 23.096C19.3612 22.7499 23.2169 23.173 26.0766 22.8357C26.6965 22.7626 25.7952 22.1758 26.6098 22.1758C27.8256 22.1758 33.767 21.0317 32.735 20.0098C30.3422 17.6418 24.828 19.5561 25.6676 21.9797" stroke="#4A855E" stroke-linecap="round" stroke-linejoin="round"/>
<path d="M19.3213 16.9961C20.0541 18.3911 20.648 21.9663 20.6997 22.2964" stroke="#4A855E" stroke-linecap="round" stroke-linejoin="round"/>
<path d="M19.3213 16.6842C24.6017 16.6647 24.8223 18.7141 21.539 21.9845" stroke="#4A855E" stroke-linecap="round" stroke-linejoin="round"/>
<path d="M16.3138 17.0996C13.6997 18.4612 9.60819 17.7165 6.53955 18.5546" stroke="#4A855E" stroke-linecap="round" stroke-linejoin="round"/>
<path d="M5.7876 10.2407C6.60116 11.4862 5.7876 17.9469 6.13123 18.2432" stroke="#4A855E" stroke-linecap="round" stroke-linejoin="round"/>
<path d="M6.16357 10.2586C10.1949 9.86196 12.8155 9.77756 13.12 10.2586C13.4244 10.7397 13.4244 13.7326 12.5946 17.5156" stroke="#4A855E" stroke-linecap="round" stroke-linejoin="round"/>
</svg>
