<svg width="27" height="34" viewBox="0 0 27 34" fill="none" xmlns="http://www.w3.org/2000/svg">
<path fill-rule="evenodd" clip-rule="evenodd" d="M5.21038 5.22776C7.33626 3.08926 10.2184 1.88891 13.2224 1.88891C16.2264 1.88891 19.1085 3.08926 21.2344 5.22776C23.3605 7.36639 24.5559 10.2681 24.5559 13.295C24.5559 18.5147 21.6622 23.2381 18.6469 26.7262C17.1506 28.4571 15.6518 29.8519 14.5271 30.8137C13.9925 31.2707 13.544 31.6286 13.2224 31.877C12.9008 31.6286 12.4523 31.2707 11.9177 30.8137C10.793 29.8519 9.29421 28.4571 7.79791 26.7262C4.78264 23.2381 1.88891 18.5147 1.88891 13.295C1.88891 10.2681 3.08431 7.36639 5.21038 5.22776ZM12.678 33.8278C12.6784 33.828 12.6787 33.8282 13.2224 33.056C13.7661 33.8282 13.7664 33.828 13.7668 33.8278C13.4407 34.0574 13.0041 34.0574 12.678 33.8278ZM12.678 33.8278L13.2224 33.056L13.7668 33.8278L13.7702 33.8253L13.7788 33.8193L13.8088 33.7978C13.8346 33.7793 13.8717 33.7524 13.9193 33.7175C14.0145 33.6475 14.1519 33.545 14.3256 33.4116C14.6728 33.1446 15.1652 32.7532 15.7546 32.2493C16.9319 31.2426 18.5027 29.7814 20.0759 27.9615C23.1995 24.348 26.4448 19.1909 26.4448 13.295C26.4448 9.77079 25.053 6.38972 22.574 3.89598C20.0947 1.40208 16.731 0 13.2224 0C9.71383 0 6.35006 1.40208 3.87076 3.89598C1.39175 6.38972 0 9.77079 0 13.295C0 19.1909 3.24525 24.348 6.36895 27.9615C7.94213 29.7814 9.51285 31.2426 10.6902 32.2493C11.2796 32.7532 11.772 33.1446 12.1192 33.4116C12.2929 33.545 12.4303 33.6475 12.5255 33.7175C12.5731 33.7524 12.6102 33.7793 12.636 33.7978L12.666 33.8193L12.6746 33.8253L12.678 33.8278ZM9.44457 13.2224C9.44457 11.136 11.136 9.44457 13.2224 9.44457C15.3088 9.44457 17.0002 11.136 17.0002 13.2224C17.0002 15.3088 15.3088 17.0002 13.2224 17.0002C11.136 17.0002 9.44457 15.3088 9.44457 13.2224ZM13.2224 7.55566C10.0928 7.55566 7.55566 10.0928 7.55566 13.2224C7.55566 16.352 10.0928 18.8891 13.2224 18.8891C16.352 18.8891 18.8891 16.352 18.8891 13.2224C18.8891 10.0928 16.352 7.55566 13.2224 7.55566Z" fill="#4070B7"/>
</svg>
