<svg width="173" height="55" viewBox="0 0 173 55" fill="none" xmlns="http://www.w3.org/2000/svg">
<g clip-path="url(#clip0_297_12528)">
<path d="M86.1625 22.2789C86.1625 28.1993 83.4146 30.6695 76.8962 30.6695H71.359V40.4716H66.5698V13.8096H76.8962C83.4146 13.8096 86.1625 16.3568 86.1625 22.2789ZM81.3733 22.2395C81.3733 19.2212 80.0388 18.0049 76.5052 18.0049H71.3608V26.5136H76.5052C80.037 26.5136 81.3733 25.2973 81.3733 22.2395Z" fill="#0071BC"/>
<path d="M108.699 36.2763V40.4716H90.4033V13.8096H108.306V18.0049H95.1925V24.7886H106.344V28.9445H95.1925V36.2763H108.699Z" fill="#0071BC"/>
<path d="M130.135 18.0837H122.636V40.4716H117.847V18.0837H110.347V13.8096H130.135V18.0837Z" fill="#0071BC"/>
<path d="M132.191 24.7883L132.215 40.6254L137.036 40.6182L137.022 28.894L148.042 28.8779H148.114L148.12 24.7578L132.191 24.7883Z" fill="#F0835C"/>
<path d="M166.867 13.7052L159.488 22.6457L151.825 13.7017L132.171 13.7303V18.1764L149.457 18.1585L156.726 26.4953L145.316 40.627L151.515 40.6181L159.619 30.3395L162.612 26.7479L173 13.6963L166.867 13.7052Z" fill="#F0835C"/>
<path d="M54.3961 27.1618C54.3961 42.1624 42.2186 54.3237 27.1981 54.3237C12.1775 54.3237 0 42.1624 0 27.1618C0 12.1613 12.1775 0 27.1981 0C42.2186 0 54.3961 12.1613 54.3961 27.1618Z" fill="#F0835C"/>
<path d="M32.4821 41.3474C30.9252 41.2919 29.7467 40.7813 28.7548 39.8069C27.7073 38.7768 26.6902 38.7894 25.6283 39.814C23.5423 41.8257 20.6131 41.8436 18.4768 39.857C16.4087 37.9331 16.1486 34.7482 17.9513 32.6201C19.4203 30.8861 20.927 29.1771 22.484 27.522C25.0741 24.7687 29.2624 24.7436 31.8651 27.4808C33.4615 29.1592 35.0131 30.8896 36.4767 32.6846C37.8561 34.3738 38.0265 36.3263 37.0776 38.2789C36.1305 40.2278 34.4588 41.1844 32.4821 41.3474Z" fill="white"/>
<path d="M28.5166 17.8488C28.5453 16.5358 28.9058 15.2371 29.8422 14.1515C31.3184 12.4408 33.4816 12.6217 34.6601 14.5403C35.8654 16.5018 35.5641 19.5345 33.9982 21.2147C32.5238 22.7947 30.4574 22.6066 29.2987 20.7812C28.7516 19.916 28.531 18.9577 28.5166 17.8488Z" fill="white"/>
<path d="M25.878 17.8039C25.8565 19.0722 25.5928 20.172 24.852 21.1161C23.7435 22.5276 22.0036 22.6745 20.6672 21.4797C18.7821 19.7977 18.4197 16.2867 19.9229 14.2499C21.0583 12.7112 22.9094 12.541 24.287 13.8755C25.4134 14.9682 25.8206 16.3655 25.878 17.8039Z" fill="white"/>
<path d="M18.1255 24.0132C18.0591 24.3768 18.0232 24.8211 17.8941 25.2366C17.3936 26.8417 15.9138 27.5582 14.3264 26.9957C12.0268 26.1807 10.4717 23.0208 11.2233 20.6849C11.7829 18.9455 13.4116 18.2039 15.0708 19.0225C17.0833 20.0167 17.9605 21.7633 18.1255 24.0132Z" fill="white"/>
<path d="M36.292 23.6279C36.4391 21.756 37.3126 20.0059 39.3287 19.0188C41.0238 18.1895 42.7189 19.0135 43.2157 20.8191C43.8328 23.0619 42.439 25.962 40.2974 26.8953C38.1682 27.8232 36.2938 26.4331 36.292 23.6279Z" fill="white"/>
</g>
<defs>
<clipPath id="clip0_297_12528">
<rect width="173" height="54.3237" fill="white"/>
</clipPath>
</defs>
</svg>
