<svg width="32" height="23" viewBox="0 0 32 23" fill="none" xmlns="http://www.w3.org/2000/svg">
<path d="M3.72098 1.23877H30.5689C31.0555 1.23877 31.4276 1.61086 31.4276 2.09745V18.7844C31.4276 19.271 31.0555 19.6431 30.5689 19.6431H3.72098C3.2344 19.6431 2.8623 19.271 2.8623 18.7844V2.09745C2.8623 1.63949 3.2344 1.23877 3.72098 1.23877Z" fill="#9DBE87"/>
<path d="M30.5691 20.2157H3.72117C2.91973 20.2157 2.29004 19.586 2.29004 18.7846V2.09763C2.29004 1.2962 2.91973 0.666504 3.72117 0.666504H30.5691C31.3705 0.666504 32.0002 1.2962 32.0002 2.09763V18.7846C32.0002 19.5574 31.3419 20.2157 30.5691 20.2157ZM3.72117 1.81141C3.54943 1.81141 3.43494 1.9259 3.43494 2.09763V18.7846C3.43494 18.9563 3.54943 19.0708 3.72117 19.0708H30.5691C30.7408 19.0708 30.8553 18.9563 30.8553 18.7846V2.09763C30.8553 1.9259 30.7408 1.81141 30.5691 1.81141H3.72117Z" fill="#131313"/>
<path d="M1.43094 3.35693H28.2789C28.7655 3.35693 29.1376 3.72903 29.1376 4.21561V20.9025C29.1376 21.3891 28.7655 21.7612 28.2789 21.7612H1.43094C0.944359 21.7612 0.572266 21.3891 0.572266 20.9025V4.21561C0.572266 3.75765 0.944359 3.35693 1.43094 3.35693Z" fill="#9DBE87"/>
<path d="M28.2791 22.3339H1.43113C0.629696 22.3339 0 21.7042 0 20.9027V4.21579C0 3.41436 0.629696 2.78467 1.43113 2.78467H28.2791C29.0805 2.78467 29.7102 3.41436 29.7102 4.21579V20.9027C29.7102 21.7042 29.0519 22.3339 28.2791 22.3339ZM1.43113 3.92957C1.25939 3.92957 1.1449 4.04406 1.1449 4.21579V20.9027C1.1449 21.0745 1.25939 21.189 1.43113 21.189H28.2791C28.4508 21.189 28.5653 21.0745 28.5653 20.9027V4.21579C28.5653 4.04406 28.4508 3.92957 28.2791 3.92957H1.43113Z" fill="#131313"/>
<path d="M24.6728 19.1852H5.03771C5.03771 17.84 3.92143 16.7237 2.57617 16.7237V8.0797C3.92143 8.0797 5.03771 6.96342 5.03771 5.61816H24.6728C24.6728 6.96342 25.7891 8.0797 27.1343 8.0797V16.7237C25.7604 16.7237 24.6728 17.84 24.6728 19.1852Z" fill="#D6F0C5"/>
<path d="M24.6725 19.7579H5.03741C4.72256 19.7579 4.46496 19.5003 4.46496 19.1854C4.46496 18.155 3.60628 17.2963 2.57587 17.2963C2.26102 17.2963 2.00342 17.0387 2.00342 16.7239V8.07989C2.00342 7.76504 2.26102 7.50744 2.57587 7.50744C3.60628 7.50744 4.46496 6.64876 4.46496 5.61835C4.46496 5.3035 4.72256 5.0459 5.03741 5.0459H24.6725C24.9873 5.0459 25.2449 5.3035 25.2449 5.61835C25.2449 6.64876 26.1036 7.50744 27.134 7.50744C27.4489 7.50744 27.7065 7.76504 27.7065 8.07989V16.7239C27.7065 17.0387 27.4489 17.2963 27.134 17.2963C26.1036 17.2963 25.2449 18.155 25.2449 19.1854C25.2449 19.5003 24.9873 19.7579 24.6725 19.7579ZM5.55261 18.613H24.1286C24.3576 17.4108 25.3308 16.4377 26.5329 16.2087V8.59509C25.3308 8.36611 24.3576 7.39295 24.1286 6.1908H5.55261C5.32363 7.39295 4.35047 8.36611 3.14832 8.59509V16.1801C4.35047 16.4377 5.32363 17.4108 5.55261 18.613Z" fill="#131313"/>
<path d="M14.9125 16.2942C13.9966 16.2942 13.0234 15.9508 12.3365 15.0635C12.1361 14.8059 12.1934 14.4624 12.4223 14.262C12.6799 14.0617 13.0234 14.1189 13.2238 14.3479C13.9107 15.2352 14.9697 15.2638 15.6567 15.0349C16.2291 14.8345 16.5726 14.4624 16.5726 14.0617C16.5726 13.6896 15.6853 13.432 14.9125 13.203C13.7104 12.8309 12.1934 12.4016 12.1934 10.9704C12.1934 10.2835 12.6227 9.65381 13.3669 9.28172C14.2828 8.82376 15.8284 8.65202 17.2882 9.71106C17.5458 9.91142 17.603 10.2549 17.4027 10.5125C17.2023 10.7701 16.8588 10.8273 16.6012 10.627C15.6281 9.91142 14.5404 9.94004 13.8821 10.2835C13.5386 10.4552 13.3096 10.7128 13.3096 10.9704C13.3096 11.5143 14.1111 11.7719 15.1987 12.1154C16.3723 12.4588 17.6603 12.8595 17.6603 14.0617C17.6603 14.949 17.0019 15.7504 15.9715 16.1225C15.6853 16.2084 15.2846 16.2942 14.9125 16.2942Z" fill="#131313"/>
<path d="M14.8552 10.0547C14.5403 10.0547 14.2827 9.79708 14.2827 9.48223V8.22284C14.2827 7.90799 14.5403 7.65039 14.8552 7.65039C15.17 7.65039 15.4276 7.90799 15.4276 8.22284V9.48223C15.4276 9.8257 15.17 10.0547 14.8552 10.0547Z" fill="#131313"/>
<path d="M14.8552 17.3819C14.5403 17.3819 14.2827 17.1243 14.2827 16.8095V15.8649C14.2827 15.5501 14.5403 15.2925 14.8552 15.2925C15.17 15.2925 15.4276 15.5501 15.4276 15.8649V16.8095C15.4276 17.1243 15.17 17.3819 14.8552 17.3819Z" fill="#131313"/>
<path d="M6.32568 12.7451C6.32568 12.8841 6.35308 13.0219 6.4063 13.1503C6.45952 13.2788 6.53753 13.3956 6.63587 13.4939C6.73421 13.5923 6.85096 13.6703 6.97944 13.7235C7.10793 13.7767 7.24564 13.8041 7.38472 13.8041C7.52379 13.8041 7.6615 13.7767 7.78999 13.7235C7.91848 13.6703 8.03523 13.5923 8.13357 13.4939C8.23191 13.3956 8.30992 13.2788 8.36314 13.1503C8.41636 13.0219 8.44375 12.8841 8.44375 12.7451C8.44375 12.4642 8.33218 12.1948 8.13357 11.9962C7.93496 11.7976 7.66559 11.686 7.38472 11.686C7.10384 11.686 6.83447 11.7976 6.63587 11.9962C6.43726 12.1948 6.32568 12.4642 6.32568 12.7451Z" fill="#AECD99"/>
<path d="M7.38441 14.3479C6.49712 14.3479 5.75293 13.6324 5.75293 12.7164C5.75293 11.8005 6.46849 11.085 7.38441 11.085C8.27171 11.085 9.0159 11.8005 9.0159 12.7164C9.0159 13.6324 8.27171 14.3479 7.38441 14.3479ZM7.38441 12.2585C7.12681 12.2585 6.89783 12.4588 6.89783 12.7451C6.89783 13.0313 7.09819 13.2317 7.38441 13.2317C7.64202 13.2317 7.871 13.0313 7.871 12.7451C7.871 12.4588 7.64202 12.2585 7.38441 12.2585Z" fill="#131313"/>
<path d="M21.3237 12.7451C21.3237 13.0259 21.4353 13.2953 21.6339 13.4939C21.8325 13.6925 22.1019 13.8041 22.3828 13.8041C22.6636 13.8041 22.933 13.6925 23.1316 13.4939C23.3302 13.2953 23.4418 13.0259 23.4418 12.7451C23.4418 12.4642 23.3302 12.1948 23.1316 11.9962C22.933 11.7976 22.6636 11.686 22.3828 11.686C22.1019 11.686 21.8325 11.7976 21.6339 11.9962C21.4353 12.1948 21.3237 12.4642 21.3237 12.7451Z" fill="#AECD99"/>
<path d="M22.3829 14.3479C21.4957 14.3479 20.7515 13.6324 20.7515 12.7164C20.7515 11.8005 21.467 11.085 22.3829 11.085C23.2702 11.085 24.0144 11.8005 24.0144 12.7164C24.0144 13.6324 23.2702 14.3479 22.3829 14.3479ZM22.3829 12.2585C22.1253 12.2585 21.8964 12.4588 21.8964 12.7451C21.8964 13.0313 22.0967 13.2317 22.3829 13.2317C22.6692 13.2317 22.8695 13.0313 22.8695 12.7451C22.8695 12.4588 22.6406 12.2585 22.3829 12.2585Z" fill="#131313"/>
</svg>
