<svg width="68" height="68" viewBox="0 0 68 68" fill="none" xmlns="http://www.w3.org/2000/svg">
<path fill-rule="evenodd" clip-rule="evenodd" d="M34 51C41.824 51 48.1667 44.6573 48.1667 36.8333C48.1667 29.0094 41.824 22.6667 34 22.6667C26.176 22.6667 19.8333 29.0094 19.8333 36.8333C19.8333 44.6573 26.176 51 34 51ZM34 45.3534C29.2944 45.3534 25.4799 41.5389 25.4799 36.8333C25.4799 32.1277 29.2944 28.3132 34 28.3132C38.7056 28.3132 42.5201 32.1277 42.5201 36.8333C42.5201 41.5389 38.7056 45.3534 34 45.3534Z" fill="#737373"/>
<path fill-rule="evenodd" clip-rule="evenodd" d="M27.0911 5.66666C23.1907 5.66666 19.7908 8.32118 18.8449 12.1051L17.6211 17H11.3333C6.63894 17 2.83334 20.8056 2.83334 25.5V53.8333C2.83334 58.5279 6.63894 62.3333 11.3333 62.3333H56.6667C61.3612 62.3333 65.1667 58.5279 65.1667 53.8333V25.5C65.1667 20.8056 61.3612 17 56.6667 17H50.3789L49.1552 12.1051C48.2092 8.32118 44.8095 5.66666 40.9088 5.66666H27.0911ZM24.3423 13.4795C24.6577 12.2182 25.7909 11.3333 27.0911 11.3333H40.9088C42.209 11.3333 43.3424 12.2182 43.6577 13.4795L44.8814 18.3744C45.5121 20.897 47.7785 22.6667 50.3789 22.6667H56.6667C58.2315 22.6667 59.5 23.9352 59.5 25.5V53.8333C59.5 55.3982 58.2315 56.6667 56.6667 56.6667H11.3333C9.76855 56.6667 8.50001 55.3982 8.50001 53.8333V25.5C8.50001 23.9352 9.76855 22.6667 11.3333 22.6667H17.6211C20.2214 22.6667 22.4879 20.897 23.1186 18.3744L24.3423 13.4795Z" fill="#737373"/>
</svg>
