<svg width="25" height="23" viewBox="0 0 25 23" fill="none" xmlns="http://www.w3.org/2000/svg">
<path d="M22.2399 11.0264V19C22.2399 20.3807 21.1207 21.5 19.7399 21.5H4.7399C3.35919 21.5 2.2399 20.3807 2.2399 19V11.0264M6.6149 8.6875C6.6149 10.2407 5.3557 11.5 3.8024 11.5C2.35736 11.5 1.16686 10.4102 1.00792 9.00775C0.983948 8.7961 1.0171 8.58321 1.07086 8.37716L2.37735 3.36895C2.66452 2.26813 3.65872 1.5 4.79639 1.5H19.6834C20.821 1.5 21.8153 2.26813 22.1024 3.36895L23.4089 8.37716C23.4627 8.58321 23.4959 8.7961 23.4719 9.00775C23.3129 10.4102 22.1224 11.5 20.6774 11.5C19.1241 11.5 17.8649 10.2407 17.8649 8.6875M6.6149 8.6875C6.6149 10.2407 7.8741 11.5 9.4274 11.5C10.9806 11.5 12.2399 10.2407 12.2399 8.6875M6.6149 8.6875L7.2399 1.5M17.8649 8.6875C17.8649 10.2407 16.6056 11.5 15.0524 11.5C13.4991 11.5 12.2399 10.2407 12.2399 8.6875M17.8649 8.6875L17.2399 1.5M12.2399 8.6875V1.5" stroke="#4753A6" stroke-width="1.2" stroke-linecap="round" stroke-linejoin="round"/>
</svg>
