<svg width="22" height="21" viewBox="0 0 22 21" fill="none" xmlns="http://www.w3.org/2000/svg">
<path d="M15.8851 15.3692C15.5306 15.3699 15.1795 15.3005 14.8519 15.1649C14.5244 15.0293 14.2269 14.8302 13.9767 14.579L11.2205 11.8228C11.1229 11.7301 10.9935 11.6784 10.8589 11.6784C10.7243 11.6784 10.5949 11.7301 10.4973 11.8228L7.73056 14.5895C7.48045 14.8408 7.18302 15.04 6.85546 15.1756C6.5279 15.3112 6.17671 15.3806 5.82218 15.3797H5.27881L8.77006 18.8709C9.85943 19.9603 11.6274 19.9603 12.7167 18.8709L16.2172 15.3692H15.8851ZM5.82218 5.61992C6.54406 5.61992 7.22131 5.90079 7.73056 6.41004L10.4973 9.17679C10.5449 9.22441 10.6013 9.26219 10.6635 9.28797C10.7256 9.31375 10.7923 9.32701 10.8596 9.32701C10.9269 9.32701 10.9935 9.31375 11.0556 9.28797C11.1178 9.26219 11.1743 9.22441 11.2218 9.17679L13.9781 6.42054C14.228 6.16943 14.5252 5.97032 14.8526 5.83471C15.1799 5.6991 15.5308 5.62966 15.8851 5.63041H16.2172L12.7167 2.12998C12.1933 1.60685 11.4835 1.31299 10.7434 1.31299C10.0033 1.31299 9.29355 1.60685 8.77006 2.12998L5.27881 5.62123L5.82218 5.61992Z" fill="#60BAAD"/>
<path d="M19.114 8.52582L16.9983 6.41007C16.9508 6.42957 16.9 6.43982 16.8487 6.44025H15.8866C15.3892 6.44025 14.9022 6.64238 14.5518 6.99413L11.7955 9.75038C11.673 9.8736 11.5272 9.97138 11.3667 10.0381C11.2063 10.1048 11.0342 10.1392 10.8604 10.1392C10.6866 10.1392 10.5145 10.1048 10.354 10.0381C10.1935 9.97138 10.0478 9.8736 9.92522 9.75038L7.15847 6.98232C6.8035 6.62881 6.32331 6.42975 5.82234 6.42844H4.64109C4.59212 6.42805 4.54364 6.41871 4.49803 6.40088L2.3744 8.52582C1.28503 9.61519 1.28503 11.3831 2.3744 12.4738L4.49803 14.5974C4.54313 14.5793 4.59117 14.5695 4.63978 14.5686H5.82234C6.32109 14.5686 6.80672 14.3678 7.15847 14.016L9.9239 11.2479C10.1762 11.0077 10.5113 10.8737 10.8597 10.8737C11.2081 10.8737 11.5432 11.0077 11.7955 11.2479L14.5518 14.0042C14.9022 14.3559 15.3892 14.5568 15.8866 14.5568H16.8487C16.9012 14.5568 16.9523 14.5699 16.9983 14.5883L19.114 12.4725C20.2034 11.3831 20.2034 9.61519 19.114 8.52582Z" fill="#60BAAD"/>
</svg>
