<svg width="60" height="60" viewBox="0 0 60 60" fill="none" xmlns="http://www.w3.org/2000/svg">
<g clip-path="url(#clip0_706_4704)">
<path d="M53.841 22.01L47.7732 4.378V0.783862C47.7732 0.364565 47.3731 0.0610498 46.9693 0.174019L43.8178 1.05527C43.5049 1.14269 43.174 1.14281 42.861 1.05562L39.249 0.0488623C39.0153 -0.016294 38.7682 -0.016294 38.5344 0.0488623L34.9216 1.05585C34.6091 1.14292 34.2787 1.14292 33.9662 1.05585L30.3535 0.0487451C30.1199 -0.0164111 29.8727 -0.0164111 29.6389 0.0487451L26.0262 1.05585C25.7136 1.14292 25.3833 1.14292 25.0707 1.05585L21.4581 0.0487451C21.2244 -0.0164111 20.9773 -0.0164111 20.7435 0.0487451L17.1319 1.0555C16.8187 1.14281 16.4876 1.14257 16.1744 1.05492L13.0301 0.17437C12.6261 0.0612842 12.2259 0.364917 12.2259 0.784214V4.37789H12.2265L5.94561 22.6297C5.86405 22.8667 5.82245 23.1156 5.82245 23.3661V57.7368C5.82245 58.9867 6.83577 59.9999 8.08557 59.9999H41.3689L52.757 55.4302C53.615 55.0857 54.1773 54.2543 54.1773 53.3297C54.1773 53.3297 54.1773 32.0829 54.1773 24.0211C54.1775 23.3368 54.0637 22.6573 53.841 22.01Z" fill="#F0835C"/>
<path d="M12.2266 4.37799L5.94561 22.6297C5.86417 22.8667 5.82245 23.1156 5.82245 23.3661V57.7367C5.82245 58.9867 6.83577 59.9999 8.08557 59.9999H41.3689V25.5279C41.3689 23.846 41.6483 22.1758 42.1955 20.5856L47.773 4.37811C47.7732 4.37799 12.2266 4.37799 12.2266 4.37799Z" fill="#4070B7"/>
<path d="M53.841 22.01L47.7732 4.37799L46.3051 8.64385L50.985 23.0292C51.2078 23.7138 51.3213 24.4326 51.3213 25.1569C51.3213 33.273 51.3213 54.0224 51.3213 56.0062L52.7569 55.4303C53.6149 55.0858 54.1772 54.2544 54.1772 53.3298C54.1772 53.3298 54.1772 32.083 54.1772 24.0212C54.1775 23.3368 54.0637 22.6572 53.841 22.01Z" fill="#F0835C"/>
<path d="M24.4748 40.9807C24.4693 40.9752 24.4482 40.9541 24.4427 40.9486C21.9943 38.5002 14.4282 41.191 15.2682 43.5015C15.635 44.5105 16.3959 45.1865 17.1368 45.628C17.6821 45.9529 18.1836 46.3457 18.6294 46.7942C19.0779 47.24 19.4707 47.7415 19.7957 48.2868C20.2371 49.0277 20.913 49.7886 21.9221 50.1554C24.2324 50.9952 26.9231 43.4292 24.4748 40.9807Z" fill="white"/>
<path d="M23.0337 32.3594C22.4455 33.911 22.5212 37.5054 24.0729 38.0935C25.6244 38.6817 28.0641 36.0412 28.6523 34.4895C29.2405 32.938 28.4597 31.2035 26.908 30.6151C25.3564 30.0269 23.6218 30.8079 23.0337 32.3594Z" fill="white"/>
<path d="M14.902 34.6198C15.1833 36.0125 16.8777 38.583 18.2703 38.3017C19.6631 38.0204 20.227 34.9938 19.9457 33.601C19.6644 32.2083 18.3073 31.3071 16.9144 31.5886C15.5217 31.87 14.6207 33.227 14.902 34.6198Z" fill="white"/>
<path d="M33.0639 42.3897C31.5123 42.9779 27.9179 42.9022 27.3298 41.3505C26.7416 39.7989 29.3821 37.3593 30.9337 36.771C32.4853 36.1829 34.2198 36.9637 34.8082 38.5154C35.3964 40.0668 34.6154 41.8014 33.0639 42.3897Z" fill="white"/>
<path d="M30.8034 50.5212C29.4107 50.24 26.8402 48.5456 27.1215 47.1529C27.4028 45.7601 30.4294 45.1962 31.8221 45.4776C33.2149 45.7589 34.1161 47.116 33.8346 48.5089C33.5534 49.9016 32.1962 50.8025 30.8034 50.5212Z" fill="white"/>
</g>
<defs>
<clipPath id="clip0_706_4704">
<rect width="60" height="60" fill="white"/>
</clipPath>
</defs>
</svg>
