<svg width="61" height="60" viewBox="0 0 61 60" fill="none" xmlns="http://www.w3.org/2000/svg">
<path d="M56.8826 50.3093L59.7063 33.9601C59.7278 33.814 59.7034 33.6649 59.6364 33.5334C59.6288 33.5139 59.6201 33.4949 59.6101 33.4766C59.5919 33.4418 59.5699 33.4091 59.5446 33.379C59.4804 33.283 59.3939 33.2039 59.2924 33.1486C59.191 33.0934 59.0776 33.0635 58.9621 33.0616H31.6401L30.7153 27.7113C30.6197 27.1502 30.3283 26.641 29.893 26.2742C29.4577 25.9074 28.9065 25.7067 28.3373 25.7075H23.6933C23.1369 25.7079 22.6034 25.9291 22.2099 26.3226C21.8165 26.716 21.5953 27.2495 21.5949 27.806V28.3768C21.5953 28.9332 21.8165 29.4668 22.2099 29.8602C22.6034 30.2537 23.1369 30.4749 23.6933 30.4753H29.7178L33.2609 50.9865C33.4649 52.1771 34.0871 53.2558 35.0156 54.0286C34.4333 54.2864 33.9438 54.7164 33.613 55.2606C33.2822 55.8049 33.126 56.4374 33.1652 57.0731C33.2045 57.7088 33.4374 58.3172 33.8327 58.8166C34.228 59.316 34.7666 59.6824 35.3763 59.8667C35.986 60.0509 36.6374 60.0441 37.2431 59.8471C37.8488 59.6502 38.3797 59.2725 38.7644 58.765C39.1492 58.2574 39.3693 57.6442 39.3952 57.0079C39.4212 56.3715 39.2517 55.7424 38.9096 55.2052H51.1188C50.8023 55.699 50.6335 56.273 50.6324 56.8595C50.6289 57.3644 50.7484 57.8626 50.9805 58.311C51.2126 58.7594 51.5504 59.1446 51.9647 59.4332C52.379 59.7219 52.8574 59.9053 53.3584 59.9677C53.8595 60.0301 54.3682 59.9696 54.8407 59.7914C55.3131 59.6132 55.7351 59.3226 56.0701 58.9449C56.4051 58.5671 56.6431 58.1134 56.7636 57.6231C56.884 57.1327 56.8833 56.6204 56.7615 56.1304C56.6396 55.6404 56.4003 55.1874 56.0642 54.8106C56.121 54.7084 56.152 54.5939 56.1545 54.4771C56.1545 54.284 56.0778 54.0988 55.9412 53.9622C55.8047 53.8257 55.6195 53.749 55.4264 53.749H38.2674C37.4464 53.7489 36.6498 53.4693 36.009 52.956C35.3681 52.4427 34.9212 51.7265 34.7419 50.9253H56.1632C56.2509 50.9323 56.3392 50.9218 56.4228 50.8946C56.5065 50.8674 56.584 50.8239 56.6508 50.7667C56.7177 50.7095 56.7725 50.6396 56.8123 50.5611C56.8521 50.4826 56.876 50.3971 56.8826 50.3093ZM51.0081 38.8181H57.3865L56.9365 41.4306C56.8822 41.4129 56.826 41.4017 56.769 41.3971H50.6877L51.0081 38.8181ZM50.4999 42.8533H56.6933L56.2477 45.4338H50.1766L50.4999 42.8533ZM33.2521 41.3971C33.1952 41.4015 33.1389 41.4127 33.0847 41.4306L32.6332 38.8181H39.0523L39.3683 41.3971H33.2521ZM33.3308 42.8533H39.5475L39.8635 45.4338H33.7764L33.3308 42.8533ZM34.4739 49.4691L34.0283 46.8901H40.0411L40.3571 49.4691H34.4739ZM48.2005 49.4691H41.8236L41.5134 46.8901H48.531L48.2005 49.4691ZM48.7087 45.4353H41.3299L41.0139 42.8548H49.032L48.7087 45.4353ZM49.2155 41.3986H40.8348L40.5188 38.8195H49.5475L49.2155 41.3986ZM55.553 49.4691H49.6684L49.9931 46.8915H55.9972L55.553 49.4691Z" fill="#231F20"/>
<path d="M27.5917 44.9707H27.0966C27.1622 44.7739 27.1971 44.568 27.2 44.3605V42.4951C27.1992 41.9505 26.9824 41.4285 26.5972 41.0435C26.212 40.6586 25.6898 40.4422 25.1452 40.4418H17.5873C18.333 38.8795 18.6246 37.139 18.4289 35.419C18.2332 33.6989 17.558 32.0685 16.4805 30.7136C15.4029 29.3587 13.9663 28.3339 12.3344 27.756C10.7026 27.1781 8.94115 27.0705 7.25106 27.4453C5.56098 27.8202 4.01024 28.6624 2.77571 29.876C1.54117 31.0896 0.672525 32.6257 0.268828 34.3091C-0.134869 35.9926 -0.0573665 37.7556 0.492497 39.3971C1.04236 41.0386 2.04245 42.4925 3.37872 43.5931C1.5778 45.0697 0.401458 47.1724 0.085429 49.4798C-0.2306 51.7871 0.337036 54.1287 1.67458 56.0351C3.01213 57.9416 5.02076 59.2722 7.29794 59.7602C9.57513 60.2482 11.9526 59.8576 13.954 58.6667C14.1055 59.0488 14.3681 59.3767 14.7079 59.6081C15.0477 59.8394 15.4491 59.9634 15.8602 59.9642H27.5917C28.136 59.9634 28.6578 59.7469 29.0427 59.362C29.4276 58.9771 29.6442 58.4552 29.645 57.9109V56.0586C29.6442 55.5142 29.4276 54.9924 29.0427 54.6075C28.6578 54.2226 28.136 54.006 27.5917 54.0053H27.0966C27.1611 53.8087 27.1954 53.6034 27.1985 53.3965V51.5398C27.1954 51.3329 27.1611 51.1277 27.0966 50.9311H27.5931C28.1375 50.9304 28.6593 50.7138 29.0442 50.3289C29.4291 49.944 29.6457 49.4222 29.6465 48.8778V47.0197C29.6445 46.4758 29.4272 45.9549 29.0421 45.5709C28.6571 45.1869 28.1355 44.9711 27.5917 44.9707Z" fill="#231F20"/>
<path d="M1.46667 50.7273C1.46667 49.1872 1.92335 47.6818 2.77894 46.4013C3.63454 45.1208 4.85063 44.1228 6.27343 43.5335C7.69624 42.9441 9.26185 42.7899 10.7723 43.0904C12.2827 43.3908 13.6702 44.1324 14.7591 45.2214C15.8481 46.3103 16.5897 47.6978 16.8901 49.2082C17.1906 50.7186 17.0364 52.2842 16.447 53.7071C15.8577 55.1299 14.8597 56.346 13.5792 57.2015C12.2987 58.0571 10.7932 58.5138 9.25321 58.5138C7.18892 58.5111 5.20995 57.6899 3.75028 56.2302C2.2906 54.7705 1.46937 52.7916 1.46667 50.7273Z" fill="#FFBA50"/>
<path d="M28.1888 56.0586V57.9167C28.1884 58.075 28.1253 58.2266 28.0135 58.3385C27.9016 58.4504 27.7499 58.5134 27.5917 58.5138H15.8573C15.6988 58.5138 15.5468 58.4509 15.4346 58.339C15.3224 58.2271 15.2591 58.0752 15.2588 57.9167C15.2541 57.8673 15.2443 57.8185 15.2296 57.7711C16.0009 57.111 16.6586 56.3288 17.1766 55.4557H27.5917C27.6705 55.4559 27.7486 55.4716 27.8213 55.5021C27.894 55.5325 27.96 55.577 28.0155 55.633C28.071 55.6891 28.1149 55.7555 28.1446 55.8285C28.1743 55.9015 28.1893 55.9797 28.1888 56.0586Z" fill="#FFBA50"/>
<path d="M9.25321 44.2426C7.97232 44.2438 6.7205 44.6246 5.65596 45.3369C4.59141 46.0493 3.76191 47.0612 3.27226 48.2448C2.78262 49.4284 2.65481 50.7306 2.90498 51.9868C3.15515 53.2431 3.77208 54.3969 4.67781 55.3027C5.58354 56.2084 6.73742 56.8253 7.99365 57.0755C9.24988 57.3257 10.5521 57.1979 11.7357 56.7082C12.9193 56.2186 13.9312 55.3891 14.6436 54.3245C15.3559 53.26 15.7367 52.0082 15.7379 50.7273C15.7375 49.0075 15.0542 47.3584 13.8381 46.1424C12.6221 44.9263 10.9729 44.243 9.25321 44.2426Z" fill="#231F20"/>
<path d="M9.25322 55.747C8.25997 55.7458 7.28936 55.4502 6.4641 54.8975C5.63885 54.3447 4.996 53.5598 4.61683 52.6417C4.23766 51.7237 4.1392 50.7139 4.33389 49.7399C4.52858 48.7659 5.00768 47.8715 5.71063 47.1698C6.41357 46.4681 7.30879 45.9905 8.28311 45.7975C9.25743 45.6045 10.2671 45.7047 11.1845 46.0855C12.1018 46.4663 12.8857 47.1105 13.437 47.9367C13.9883 48.7629 14.2822 49.734 14.2816 50.7273C14.2793 52.0594 13.7485 53.3361 12.8058 54.2773C11.863 55.2184 10.5853 55.747 9.25322 55.747Z" fill="#FF8E5A"/>
<path d="M17.8844 53.9994C18.2582 53.0219 18.4617 51.9875 18.4858 50.9413H25.1423C25.2208 50.9411 25.2986 50.9564 25.3712 50.9863C25.4438 51.0162 25.5098 51.0602 25.5654 51.1156C25.621 51.1711 25.6651 51.237 25.6952 51.3095C25.7253 51.3821 25.7408 51.4598 25.7408 51.5383V53.3951C25.7408 53.4736 25.7253 53.5513 25.6952 53.6239C25.6651 53.6964 25.621 53.7623 25.5654 53.8178C25.5098 53.8732 25.4438 53.9172 25.3712 53.9471C25.2986 53.977 25.2208 53.9923 25.1423 53.9921C25.1234 53.9921 25.1059 54.0023 25.087 54.0038L17.8844 53.9994Z" fill="#FF8E5A"/>
<path d="M9.51388 49.9962H8.98817C8.82828 49.9962 8.67493 49.9327 8.56187 49.8196C8.44881 49.7066 8.38529 49.5532 8.38529 49.3933C8.38529 49.2334 8.44881 49.0801 8.56187 48.967C8.67493 48.8539 8.82828 48.7904 8.98817 48.7904H10.542C10.7351 48.7904 10.9203 48.7137 11.0568 48.5772C11.1934 48.4406 11.2701 48.2554 11.2701 48.0623C11.2701 47.8692 11.1934 47.684 11.0568 47.5474C10.9203 47.4109 10.7351 47.3342 10.542 47.3342H9.98133V46.7517C9.98133 46.5586 9.90462 46.3734 9.76807 46.2368C9.63152 46.1003 9.44632 46.0236 9.25321 46.0236C9.0601 46.0236 8.8749 46.1003 8.73835 46.2368C8.6018 46.3734 8.52509 46.5586 8.52509 46.7517V47.3895C8.03083 47.5016 7.59538 47.7923 7.30232 48.2058C7.00925 48.6193 6.87922 49.1264 6.93716 49.6299C6.99511 50.1334 7.23696 50.5978 7.6163 50.9338C7.99564 51.2699 8.48574 51.4541 8.99254 51.451H9.5197C9.6796 51.451 9.83294 51.5145 9.94601 51.6276C10.0591 51.7406 10.1226 51.894 10.1226 52.0539C10.1226 52.2138 10.0591 52.3671 9.94601 52.4802C9.83294 52.5932 9.6796 52.6568 9.5197 52.6568H7.96443C7.77132 52.6568 7.58612 52.7335 7.44957 52.87C7.31302 53.0066 7.23631 53.1918 7.23631 53.3849C7.23631 53.578 7.31302 53.7632 7.44957 53.8997C7.58612 54.0363 7.77132 54.113 7.96443 54.113H8.52509V54.6955C8.52509 54.8886 8.6018 55.0738 8.73835 55.2104C8.8749 55.3469 9.0601 55.4236 9.25321 55.4236C9.44632 55.4236 9.63152 55.3469 9.76807 55.2104C9.90462 55.0738 9.98133 54.8886 9.98133 54.6955V54.0577C10.4756 53.9456 10.911 53.6549 11.2041 53.2414C11.4972 52.8279 11.6272 52.3207 11.5693 51.8173C11.5113 51.3138 11.2695 50.8494 10.8901 50.5133C10.5108 50.1772 10.0207 49.9931 9.51388 49.9962Z" fill="#231F20"/>
<path d="M1.46668 36.4794C1.46284 35.1481 1.80039 33.838 2.44712 32.6744C3.09384 31.5107 4.02812 30.5323 5.16071 29.8325C6.29331 29.1328 7.5864 28.7352 8.91646 28.6776C10.2465 28.6201 11.5691 28.9045 12.7579 29.5037C13.9468 30.1029 14.9621 30.997 15.707 32.1004C16.4518 33.2038 16.9013 34.4798 17.0125 35.8065C17.1237 37.1331 16.8929 38.4661 16.3422 39.6782C15.7914 40.8902 14.9391 41.9408 13.8666 42.7296C12.4661 41.9141 10.8745 41.4845 9.25394 41.4845C7.63337 41.4845 6.04176 41.9141 4.64129 42.7296C3.65848 42.0103 2.85893 41.0696 2.30739 39.9837C1.75585 38.8978 1.46783 37.6973 1.46668 36.4794Z" fill="#FFBA50"/>
<path d="M18.1756 17.5657C18.991 17.5631 19.7922 17.353 20.504 16.9553C21.2158 16.5577 21.8147 15.9854 22.2444 15.2925L31.8308 19.287C31.6656 20.0605 31.6935 20.8629 31.9122 21.623C32.1308 22.3832 32.5335 23.0778 33.0845 23.6453C33.6355 24.2128 34.3179 24.6357 35.0713 24.8767C35.8247 25.1177 36.6259 25.1692 37.404 25.0268C38.1821 24.8844 38.913 24.5524 39.5323 24.0602C40.1515 23.568 40.6398 22.9308 40.9541 22.2049C41.2684 21.479 41.399 20.6869 41.3342 19.8985C41.2695 19.1102 41.0114 18.35 40.5829 17.6851L51.6081 8.56464C52.5117 9.44147 53.7136 9.94397 54.9725 9.97121C56.2313 9.99845 57.4539 9.54842 58.3946 8.7115C59.3353 7.87457 59.9246 6.71272 60.044 5.45927C60.1635 4.20581 59.8043 2.95358 59.0386 1.95401C58.2729 0.954454 57.1574 0.281594 55.9161 0.0705521C54.6748 -0.140489 53.3996 0.125916 52.3466 0.816271C51.2935 1.50663 50.5407 2.56981 50.2392 3.79232C49.9377 5.01483 50.1099 6.30613 50.7212 7.40692L39.6072 16.5973C39.0702 16.1396 38.4379 15.8073 37.7563 15.6247C37.0747 15.4421 36.361 15.4137 35.6671 15.5416C34.9732 15.6695 34.3165 15.9505 33.7448 16.3641C33.1732 16.7777 32.7009 17.3136 32.3624 17.9327L22.8167 13.9527C23.0651 12.9816 23.0037 11.9571 22.641 11.0226C22.2783 10.0882 21.6324 9.2905 20.7938 8.74133C19.9553 8.19215 18.9659 7.91895 17.9644 7.95997C16.9628 8.00099 15.9992 8.35418 15.2083 8.9701C14.4174 9.58601 13.839 10.4338 13.5539 11.3948C13.2688 12.3558 13.2914 13.3819 13.6184 14.3295C13.9455 15.277 14.5606 16.0986 15.3778 16.6791C16.195 17.2597 17.1732 17.5687 18.1756 17.5657Z" fill="#231F20"/>
<path d="M54.9108 1.72021C55.5733 1.72021 56.2208 1.91665 56.7716 2.28468C57.3224 2.65272 57.7517 3.17582 58.0052 3.78783C58.2588 4.39985 58.3251 5.07329 58.1958 5.723C58.0666 6.37272 57.7476 6.96952 57.2792 7.43793C56.8108 7.90635 56.214 8.22535 55.5643 8.35458C54.9146 8.48382 54.2411 8.41749 53.6291 8.16398C53.0171 7.91048 52.494 7.48118 52.1259 6.93038C51.7579 6.37958 51.5615 5.73202 51.5615 5.06958C51.5638 4.18198 51.9174 3.3314 52.545 2.70377C53.1727 2.07614 54.0232 1.72252 54.9108 1.72021Z" fill="#7CC05B"/>
<path d="M36.5403 16.9147C37.2028 16.9147 37.8503 17.1112 38.4011 17.4792C38.9519 17.8472 39.3812 18.3703 39.6347 18.9824C39.8882 19.5944 39.9546 20.2678 39.8253 20.9175C39.6961 21.5672 39.3771 22.164 38.9087 22.6325C38.4403 23.1009 37.8435 23.4199 37.1938 23.5491C36.544 23.6783 35.8706 23.612 35.2586 23.3585C34.6466 23.105 34.1235 22.6757 33.7554 22.1249C33.3874 21.5741 33.191 20.9265 33.191 20.2641C33.1933 19.3765 33.5469 18.5259 34.1745 17.8983C34.8021 17.2707 35.6527 16.917 36.5403 16.9147Z" fill="#7CC05B"/>
<path d="M18.1756 9.39905C18.8381 9.39905 19.4856 9.59548 20.0364 9.96352C20.5872 10.3315 21.0165 10.8546 21.27 11.4667C21.5235 12.0787 21.5899 12.7521 21.4606 13.4018C21.3314 14.0516 21.0124 14.6483 20.544 15.1168C20.0756 15.5852 19.4788 15.9042 18.829 16.0334C18.1793 16.1627 17.5059 16.0963 16.8939 15.8428C16.2819 15.5893 15.7588 15.16 15.3907 14.6092C15.0227 14.0584 14.8263 13.4109 14.8263 12.7484C14.8286 11.8608 15.1822 11.0102 15.8098 10.3826C16.4374 9.75497 17.288 9.40135 18.1756 9.39905Z" fill="#7CC05B"/>
<path d="M23.6933 29.019C23.5231 29.0186 23.36 28.9508 23.2396 28.8305C23.1193 28.7101 23.0515 28.547 23.0511 28.3768V27.806C23.0515 27.6358 23.1193 27.4726 23.2396 27.3523C23.36 27.2319 23.5231 27.1641 23.6933 27.1638H28.3373C28.5631 27.1636 28.7817 27.2433 28.9544 27.3889C29.1271 27.5344 29.2428 27.7363 29.2809 27.9589L29.4644 29.019H23.6933Z" fill="#8D7F89"/>
<path d="M36.284 58.5138C35.9568 58.5138 35.637 58.4168 35.3649 58.235C35.0929 58.0532 34.8809 57.7948 34.7556 57.4926C34.6304 57.1903 34.5977 56.8577 34.6615 56.5368C34.7253 56.2159 34.8829 55.9211 35.1142 55.6897C35.3456 55.4584 35.6404 55.3008 35.9613 55.237C36.2822 55.1732 36.6148 55.2059 36.9171 55.3311C37.2194 55.4563 37.4777 55.6684 37.6595 55.9404C37.8413 56.2125 37.9383 56.5323 37.9383 56.8595C37.9379 57.2981 37.7635 57.7187 37.4533 58.0288C37.1432 58.339 36.7226 58.5134 36.284 58.5138Z" fill="#00A1D3"/>
<path d="M53.74 58.5138C54.6537 58.5138 55.3943 57.7731 55.3943 56.8595C55.3943 55.9458 54.6537 55.2052 53.74 55.2052C52.8264 55.2052 52.0857 55.9458 52.0857 56.8595C52.0857 57.7731 52.8264 58.5138 53.74 58.5138Z" fill="#00A1D3"/>
<path d="M58.132 34.5178L57.6413 37.3619H32.3827L31.8905 34.5178H58.132Z" fill="#8D7F89"/>
<path d="M25.1423 41.9039C25.2208 41.9037 25.2986 41.919 25.3712 41.949C25.4438 41.9789 25.5098 42.0228 25.5654 42.0783C25.621 42.1338 25.6651 42.1996 25.6952 42.2722C25.7253 42.3447 25.7408 42.4225 25.7408 42.501V44.3562C25.7408 44.4348 25.7253 44.5127 25.6953 44.5853C25.6652 44.6579 25.6211 44.7239 25.5655 44.7795C25.5099 44.835 25.444 44.8791 25.3713 44.9092C25.2987 44.9393 25.2209 44.9548 25.1423 44.9548C25.1234 44.9548 25.1059 44.965 25.087 44.9664H16.466C16.0686 44.4654 15.6201 44.0071 15.1277 43.599C15.7305 43.1033 16.2687 42.5338 16.7296 41.9039H25.1423Z" fill="#FF8E5A"/>
<path d="M28.1888 48.8779C28.1884 49.0361 28.1253 49.1877 28.0135 49.2996C27.9016 49.4115 27.7499 49.4745 27.5917 49.4749H25.1423C25.1234 49.4749 25.1059 49.4851 25.087 49.4866H18.4028C18.2598 48.4178 17.9295 47.3826 17.4271 46.4285H27.5917C27.7499 46.4289 27.9016 46.4919 28.0135 46.6038C28.1253 46.7157 28.1884 46.8673 28.1888 47.0255V48.8779Z" fill="#FFBA50"/>
</svg>
