<svg width="252" height="165" viewBox="0 0 252 165" fill="none" xmlns="http://www.w3.org/2000/svg">
<g clip-path="url(#clip0_520_15286)" filter="url(#filter0_d_520_15286)">
<path d="M136.255 151.491C188.452 151.491 230.766 144.972 230.766 136.93C230.766 128.889 188.452 122.37 136.255 122.37C84.0581 122.37 41.744 128.889 41.744 136.93C41.744 144.972 84.0581 151.491 136.255 151.491Z" fill="#E6E6E6" fill-opacity="0.7"/>
<path d="M211.993 108.084C211.993 108.084 244.674 114.564 245.97 85.961C245.97 85.961 246.78 69.8056 236.199 58.7816C235.32 57.8662 233.922 58.0237 233.739 59.0638C232.269 67.4794 225.654 95.9974 204.41 89.1665C204.41 89.1665 211.947 96.3879 211.993 108.084Z" fill="#F0835C"/>
<path d="M211.727 109.423L210.631 109.206L210.628 108.091C210.605 102.392 208.669 97.8314 207.051 95.0065C205.28 91.9158 203.485 90.1671 203.469 90.1507L199.197 86.0561L204.83 87.8672C209.791 89.4617 214.256 89.0942 218.098 86.7746C222.19 84.304 225.654 79.6648 228.397 72.9881C230.707 67.3645 231.895 61.7016 232.397 58.8307C232.558 57.9154 233.184 57.2067 234.08 56.9344C235.133 56.6128 236.35 56.9705 237.187 57.8399C239.707 60.4647 241.807 63.5848 243.431 67.1119C244.723 69.9171 245.717 72.9881 246.39 76.2329C247.532 81.758 247.341 85.8625 247.335 86.0265C246.967 94.1403 244.123 100.338 238.88 104.449C236.445 106.359 233.489 107.805 230.094 108.75C227.413 109.495 224.454 109.935 221.297 110.05C220.707 110.073 220.129 110.082 219.575 110.082C215.096 110.079 211.878 109.453 211.727 109.423ZM219.509 89.1106C216.038 91.2072 212.176 91.9683 207.99 91.3909C208.433 92.0241 208.899 92.7492 209.364 93.5563C211.061 96.4862 213.065 101.119 213.328 106.916C216.986 107.431 229.195 108.567 237.194 102.297C241.784 98.7009 244.277 93.1823 244.608 85.892C244.612 85.8527 244.786 81.9024 243.703 76.7021C242.712 71.9578 240.438 65.163 235.218 59.7232C235.153 59.6575 235.09 59.6149 235.038 59.5854C233.775 66.6164 229.821 82.8834 219.509 89.1106Z" fill="#35353B"/>
<path d="M213.144 93.0282C215.401 92.7395 218.472 91.9914 221.488 89.9867C230.671 83.8809 230.776 71.8169 230.766 70.4946C230.267 72.8372 228.873 77.8505 224.657 82.6013C220.198 87.6245 215.041 89.5832 212.757 90.2984C212.885 91.2105 213.016 92.1194 213.144 93.0282Z" fill="white"/>
<path d="M212.091 102.323C212.091 102.323 248.729 106.982 240.543 64.533C240.543 64.533 253.408 87.7293 238.388 103.084C238.388 103.084 225.33 112.126 211.986 108.107L212.091 102.323Z" fill="white"/>
<path d="M211.727 109.423L210.631 109.206L210.628 108.091C210.605 102.392 208.669 97.8314 207.051 95.0065C205.28 91.9158 203.485 90.1671 203.469 90.1507L199.197 86.0561L204.83 87.8672C209.791 89.4617 214.256 89.0942 218.098 86.7746C222.19 84.304 225.654 79.6648 228.397 72.9881C230.707 67.3645 231.895 61.7016 232.397 58.8307C232.558 57.9154 233.184 57.2067 234.08 56.9344C235.133 56.6128 236.35 56.9705 237.187 57.8399C239.707 60.4647 241.807 63.5848 243.431 67.1119C244.723 69.9171 245.717 72.9881 246.39 76.2329C247.532 81.758 247.341 85.8625 247.335 86.0265C246.967 94.1403 244.123 100.338 238.88 104.449C236.445 106.359 233.489 107.805 230.094 108.75C227.413 109.495 224.454 109.935 221.297 110.05C220.707 110.073 220.129 110.082 219.575 110.082C215.096 110.079 211.878 109.453 211.727 109.423ZM219.509 89.1106C216.038 91.2072 212.176 91.9683 207.99 91.3909C208.433 92.0241 208.899 92.7492 209.364 93.5563C211.061 96.4862 213.065 101.119 213.328 106.916C216.986 107.431 229.195 108.567 237.194 102.297C241.784 98.7009 244.277 93.1823 244.608 85.892C244.612 85.8527 244.786 81.9024 243.703 76.7021C242.712 71.9578 240.438 65.163 235.218 59.7232C235.153 59.6575 235.09 59.6149 235.038 59.5854C233.775 66.6164 229.821 82.8834 219.509 89.1106Z" fill="#35353B"/>
<path d="M244.543 81.1445C244.533 81.1019 246.17 87.2766 243.175 93.1429C240.868 97.6608 235.468 102.776 228.115 102.9C221.757 103.009 217.386 99.3242 216.251 98.3039C216.14 101.847 216.025 105.394 215.913 108.937C215.91 108.937 251.046 111.313 244.543 81.1445Z" fill="#CCCCCC" fill-opacity="0.2"/>
<path d="M161.804 130.26L98.2617 157L4 132.363L110.345 114.666C110.345 114.666 160.79 130.493 161.804 130.26Z" fill="white"/>
<path d="M99.6266 79.1398C102.094 84.5993 105.821 91.4433 111.431 98.3924C114.063 101.654 117.111 104.938 120.638 108.111C124.194 111.309 127.869 114.069 131.593 116.444C156.689 132.452 183.937 131.094 190.965 130.565C193.327 130.395 200.732 129.555 207.104 123.646C211.783 119.312 213.558 114.308 214.122 112.632C218.059 100.952 213.354 87.8638 206.169 79.6516C198.839 71.2721 189.613 68.7588 183.248 67.0199C172.71 64.1458 163.658 64.8742 158.379 65.7076C146.213 79.5761 123.115 80.6818 117.124 80.9804C111.29 80.3668 105.457 79.7533 99.6266 79.1398Z" fill="white"/>
<path d="M167.854 131.054C154.14 129.033 141.695 124.506 130.858 117.593C126.931 115.086 123.184 112.238 119.722 109.125C116.363 106.103 113.216 102.779 110.368 99.2489C105.618 93.3661 101.585 86.7878 98.3831 79.701L97.4021 77.5323L117.153 79.6124C136.035 78.6675 149.556 73.687 157.345 64.8087L157.67 64.438L158.159 64.3625C166.781 63.0042 175.341 63.4537 183.599 65.7077C189.968 67.4433 199.587 70.0681 207.189 78.7561C211.057 83.1788 214.053 88.763 215.625 94.4817C217.403 100.948 217.327 107.376 215.408 113.068C213.869 117.639 211.382 121.533 208.026 124.647C201.868 130.356 194.751 131.658 191.063 131.924C188.606 132.108 186.089 132.199 183.55 132.199C178.34 132.203 173.018 131.816 167.854 131.054ZM159.068 66.984C153.739 72.87 145.927 77.1615 135.835 79.7403C127.675 81.827 120.359 82.1879 117.235 82.3421L117.081 82.3487L101.887 80.7476C104.817 86.7977 108.377 92.4343 112.494 97.5329C115.254 100.952 118.298 104.167 121.55 107.094C124.896 110.106 128.522 112.865 132.324 115.289C155.495 130.07 180.978 129.942 190.863 129.201C194.2 128.958 200.627 127.783 206.172 122.642C209.194 119.84 211.431 116.326 212.826 112.192C216.668 100.794 211.733 88.0838 205.139 80.5475C198.078 72.4763 189.298 70.0845 182.884 68.3358C177.966 66.9939 172.933 66.3213 167.841 66.3213C164.934 66.3245 162.004 66.5444 159.068 66.984Z" fill="#35353B"/>
<path d="M187.802 129.414C187.028 128.403 185.755 127.048 183.826 126.218C181.513 125.221 180.171 125.802 179.068 124.66C178.802 124.384 178.248 123.695 178.445 118.892C178.583 115.565 178.684 113.455 179.537 111.096C180.282 109.039 181.404 107.323 181.486 107.199C181.706 106.867 181.9 106.598 182.031 106.418C191.401 99.4161 194.256 97.5952 194.449 97.8314C194.768 98.2251 188.058 104.797 180.472 107.353C179.619 107.641 178.993 107.796 178.524 107.897C177.041 108.219 172.086 109.295 167.181 106.637C162.581 104.147 160.8 99.8787 160.321 98.6057C163.845 96.0335 170.452 90.4526 174.744 80.9838C177.424 75.0715 178.284 69.6743 178.556 65.9504C181.555 66.121 194.262 67.1808 204.528 77.7094C213.538 86.9485 215.086 97.7592 215.434 101.086C215.703 103.406 216.064 109.249 212.872 115.522C210.28 120.618 206.595 123.544 204.666 124.873C202.819 126.044 200.024 127.524 196.378 128.479C192.927 129.381 189.925 129.496 187.802 129.414Z" fill="#F0835C"/>
<path d="M161.197 68.037C163.891 67.8205 188.662 66.1374 202.852 79.5335C209.601 85.9051 212.675 94.347 212.675 94.347C215.234 100.86 215.388 106.201 215.405 106.198C215.424 106.194 216.107 94.8391 209.837 84.7174C203.662 74.7466 193.593 70.5732 189.439 68.8507C178.281 64.2246 168.156 64.7889 162.88 65.491C162.322 66.3441 161.758 67.1906 161.197 68.037Z" fill="white"/>
<path d="M167.854 131.054C154.14 129.033 141.695 124.506 130.858 117.593C126.931 115.086 123.184 112.238 119.722 109.125C116.363 106.103 113.216 102.779 110.368 99.2489C105.618 93.3661 101.585 86.7878 98.3831 79.701L97.4021 77.5323L117.153 79.6124C136.035 78.6675 149.556 73.687 157.345 64.8087L157.67 64.438L158.159 64.3625C166.781 63.0042 175.341 63.4537 183.599 65.7077C189.968 67.4433 199.587 70.0681 207.189 78.7561C211.057 83.1788 214.053 88.763 215.625 94.4817C217.403 100.948 217.327 107.376 215.408 113.068C213.869 117.639 211.382 121.533 208.026 124.647C201.868 130.356 194.751 131.658 191.063 131.924C188.606 132.108 186.089 132.199 183.55 132.199C178.34 132.203 173.018 131.816 167.854 131.054ZM159.068 66.984C153.739 72.87 145.927 77.1615 135.835 79.7403C127.675 81.827 120.359 82.1879 117.235 82.3421L117.081 82.3487L101.887 80.7476C104.817 86.7977 108.377 92.4343 112.494 97.5329C115.254 100.952 118.298 104.167 121.55 107.094C124.896 110.106 128.522 112.865 132.324 115.289C155.495 130.07 180.978 129.942 190.863 129.201C194.2 128.958 200.627 127.783 206.172 122.642C209.194 119.84 211.431 116.326 212.826 112.192C216.668 100.794 211.733 88.0838 205.139 80.5475C198.078 72.4763 189.298 70.0845 182.884 68.3358C177.966 66.9939 172.933 66.3213 167.841 66.3213C164.934 66.3245 162.004 66.5444 159.068 66.984Z" fill="#35353B"/>
<path d="M199.653 98.4745C197.999 98.2415 191.034 97.4541 185.102 102.011C178.747 106.893 176.161 115.926 178.783 124.624C178.783 124.624 174.065 124.486 171.647 127.744C169.836 130.182 169.714 133.469 170.626 135.667C173.96 143.706 194.348 145.881 200.9 138.213C203.436 135.244 204.184 131.934 204.184 131.934C204.151 129.611 204.263 126.97 204.643 124.082C204.906 122.084 205.26 120.244 205.657 118.574C204.886 118.501 199.738 117.927 196.926 113.541C196.67 113.14 195.394 111.09 195.289 108.124C195.096 102.727 198.97 99.0946 199.653 98.4745Z" fill="white"/>
<path d="M198.728 98.7402C199.043 98.7139 199.092 98.2743 198.793 98.1791C198.79 98.1791 198.783 98.1758 198.78 98.1758C198.367 98.0479 197.95 97.9396 197.527 97.851C197.104 97.7624 196.677 97.6935 196.244 97.641C195.814 97.5885 195.378 97.5557 194.945 97.536C194.072 97.5032 193.196 97.5393 192.32 97.6509C191.444 97.7624 190.578 97.9527 189.725 98.2086C188.872 98.4645 188.028 98.7828 187.215 99.1732C186.401 99.5637 185.62 100.03 184.879 100.558C184.508 100.82 184.15 101.102 183.803 101.398L183.547 101.624C183.461 101.7 183.376 101.775 183.294 101.854C183.13 102.011 182.963 102.169 182.805 102.333C182.165 102.982 181.581 103.688 181.066 104.436C180.548 105.181 180.085 105.962 179.682 106.769C179.288 107.579 178.94 108.406 178.645 109.249C178.064 110.935 177.68 112.668 177.434 114.4C177.201 116.136 177.1 117.875 177.109 119.6C177.116 121.326 177.231 123.045 177.431 124.745L178.825 123.265L178.717 123.262H178.629H178.458C178.346 123.262 178.238 123.265 178.13 123.272C177.913 123.282 177.697 123.295 177.483 123.318C177.057 123.36 176.634 123.423 176.21 123.508C175.367 123.679 174.524 123.931 173.71 124.309C172.9 124.683 172.116 125.181 171.427 125.818C170.738 126.451 170.154 127.219 169.727 128.059C169.514 128.475 169.34 128.912 169.202 129.351C169.065 129.791 168.963 130.237 168.891 130.68C168.743 131.569 168.72 132.445 168.763 133.302C168.812 134.158 168.933 134.991 169.097 135.805C169.13 135.999 169.199 136.241 169.255 136.468L169.301 136.638C169.317 136.694 169.337 136.75 169.357 136.806L169.475 137.14C169.511 137.252 169.56 137.36 169.609 137.468L169.754 137.793C169.777 137.849 169.803 137.902 169.832 137.951L169.914 138.105L170.085 138.417C170.564 139.227 171.168 139.936 171.834 140.539C172.5 141.146 173.225 141.648 173.97 142.075C175.469 142.928 177.054 143.486 178.648 143.876C179.445 144.07 180.249 144.224 181.053 144.336C181.857 144.447 182.664 144.532 183.468 144.575C184.272 144.618 185.079 144.631 185.883 144.618C186.687 144.598 187.487 144.552 188.288 144.48C189.088 144.404 189.882 144.296 190.676 144.162C191.467 144.024 192.254 143.856 193.038 143.66C194.6 143.259 196.142 142.741 197.625 142.039C198.367 141.688 199.095 141.297 199.797 140.851C200.499 140.402 201.175 139.903 201.812 139.335C202.445 138.768 203.036 138.135 203.551 137.429C204.066 136.724 204.499 135.946 204.817 135.116C205.135 134.286 205.332 133.407 205.404 132.524L205.424 132.193C205.431 132.084 205.437 131.966 205.44 131.878L205.457 131.307L205.486 130.165L205.503 129.594L205.529 129.023L205.578 127.885C205.591 127.504 205.621 127.127 205.644 126.75C205.67 126.372 205.69 125.992 205.719 125.614L205.814 124.482C205.841 124.105 205.887 123.731 205.919 123.354L206.011 122.225C206.044 121.851 206.057 121.471 206.09 121.097C206.116 120.723 206.133 120.342 206.159 119.968C206.172 119.781 206.179 119.591 206.189 119.4C206.202 119.213 206.215 119.023 206.221 118.833C206.244 118.455 206.267 118.072 206.3 117.691L206.31 117.547L206.326 117.405C206.339 117.31 206.343 117.212 206.356 117.117C206.382 116.926 206.402 116.73 206.451 116.533C206.28 116.654 206.149 116.812 206.018 116.969C205.952 117.048 205.893 117.13 205.834 117.215C205.775 117.297 205.713 117.383 205.664 117.468C205.559 117.638 205.447 117.816 205.355 117.993C205.309 118.081 205.26 118.17 205.214 118.262L205.145 118.396C205.122 118.442 205.103 118.488 205.083 118.534C205.001 118.718 204.919 118.902 204.84 119.085C204.801 119.177 204.768 119.272 204.732 119.364L204.63 119.643C204.489 120.017 204.377 120.394 204.269 120.775C204.154 121.156 204.072 121.536 203.984 121.923C203.941 122.114 203.898 122.307 203.862 122.501C203.83 122.694 203.793 122.885 203.764 123.078C203.633 123.853 203.557 124.627 203.462 125.401C203.419 125.788 203.387 126.175 203.347 126.563C203.311 126.95 203.265 127.337 203.239 127.724L203.147 128.886L203.101 129.466L203.065 130.047L202.996 131.208L202.96 131.789C202.957 131.891 202.947 131.97 202.94 132.048L202.917 132.291C202.845 132.937 202.684 133.567 202.435 134.165C201.94 135.359 201.09 136.415 200.043 137.298C199.522 137.741 198.954 138.144 198.354 138.509C197.753 138.873 197.117 139.194 196.464 139.483C195.811 139.772 195.138 140.031 194.449 140.254C193.764 140.477 193.065 140.677 192.356 140.841C191.647 141.005 190.932 141.143 190.21 141.258C189.488 141.366 188.76 141.448 188.032 141.514C187.303 141.57 186.572 141.602 185.843 141.612C185.112 141.619 184.383 141.596 183.658 141.55C182.933 141.504 182.211 141.425 181.496 141.32C180.781 141.215 180.075 141.078 179.386 140.904C178.694 140.73 178.018 140.523 177.365 140.277C176.712 140.031 176.086 139.739 175.502 139.408C174.337 138.738 173.34 137.882 172.729 136.855L172.624 136.658L172.572 136.56C172.552 136.527 172.536 136.494 172.523 136.461L172.434 136.258C172.405 136.192 172.372 136.123 172.349 136.054L172.277 135.848L172.241 135.743L172.214 135.634C172.178 135.487 172.136 135.365 172.099 135.178C171.952 134.489 171.847 133.797 171.801 133.121C171.716 131.769 171.866 130.457 172.395 129.387C172.654 128.849 172.998 128.37 173.432 127.954C173.861 127.537 174.376 127.186 174.951 126.907C175.525 126.625 176.151 126.405 176.808 126.254C177.136 126.179 177.467 126.116 177.802 126.074C177.969 126.051 178.136 126.031 178.304 126.018C178.386 126.011 178.468 126.005 178.55 126.002L178.668 125.995L178.76 125.992L180.154 124.512C180.069 122.878 180.026 121.247 180.056 119.627C180.089 118.006 180.19 116.398 180.407 114.817L180.495 114.226C180.528 114.029 180.551 113.833 180.591 113.639C180.666 113.249 180.732 112.858 180.823 112.474C180.866 112.281 180.906 112.087 180.955 111.897L181.102 111.326C181.129 111.231 181.148 111.136 181.178 111.04L181.263 110.758C181.322 110.571 181.375 110.381 181.434 110.197C181.677 109.452 181.959 108.731 182.28 108.025C182.605 107.323 182.973 106.651 183.389 106.007C183.806 105.368 184.259 104.751 184.77 104.19C185.279 103.625 185.837 103.104 186.431 102.625C187.028 102.149 187.668 101.726 188.34 101.349C189.013 100.971 189.721 100.65 190.453 100.381C191.923 99.8491 193.468 99.4849 195.06 99.2093C195.857 99.0781 196.667 98.9633 197.487 98.8714C197.891 98.8189 198.308 98.7762 198.728 98.7402Z" fill="white"/>
<path d="M181.919 124.873C181.919 124.873 178.287 98.9863 198.268 98.2874C198.268 98.2874 175.525 96.3385 178.72 124.328L181.919 124.873Z" fill="white"/>
<path d="M200.007 98.5204C199.617 98.3268 199.207 98.1824 198.793 98.0512C198.38 97.9232 197.96 97.8149 197.533 97.7264C197.107 97.6378 196.68 97.5689 196.247 97.5131C195.814 97.4606 195.378 97.4278 194.941 97.4081C194.065 97.3753 193.186 97.4114 192.307 97.5229C191.431 97.6345 190.558 97.8281 189.702 98.084C188.845 98.3399 187.999 98.6582 187.185 99.0519C186.368 99.4456 185.584 99.9082 184.839 100.44C184.469 100.705 184.108 100.984 183.76 101.283L183.504 101.509C183.419 101.585 183.33 101.66 183.251 101.739C183.087 101.9 182.92 102.054 182.759 102.218C182.116 102.871 181.532 103.576 181.014 104.324C180.495 105.072 180.03 105.853 179.626 106.664C179.229 107.474 178.881 108.304 178.586 109.147C178.005 110.837 177.618 112.573 177.372 114.312C177.139 116.05 177.037 117.793 177.047 119.525C177.054 121.257 177.169 122.977 177.369 124.679L178.766 123.196L178.658 123.193H178.569H178.399C178.287 123.193 178.179 123.196 178.067 123.203C177.851 123.213 177.634 123.226 177.421 123.249C176.991 123.292 176.568 123.354 176.142 123.439C175.295 123.61 174.449 123.862 173.632 124.243C172.818 124.62 172.031 125.119 171.338 125.756C170.646 126.389 170.059 127.16 169.632 128C169.419 128.42 169.245 128.853 169.104 129.296C168.966 129.735 168.864 130.182 168.792 130.628C168.645 131.517 168.622 132.399 168.664 133.256C168.714 134.112 168.835 134.949 169.002 135.762C169.035 135.956 169.104 136.199 169.16 136.425L169.206 136.596C169.222 136.652 169.245 136.707 169.261 136.763L169.38 137.098C169.416 137.209 169.465 137.318 169.514 137.426L169.658 137.751C169.681 137.806 169.708 137.859 169.737 137.908L169.822 138.066L169.993 138.377C170.472 139.191 171.082 139.9 171.748 140.507C172.414 141.114 173.143 141.619 173.894 142.049C175.397 142.905 176.988 143.463 178.589 143.853C179.39 144.05 180.197 144.201 181.004 144.313C181.811 144.424 182.618 144.509 183.429 144.552C184.236 144.595 185.046 144.608 185.853 144.595C186.66 144.575 187.464 144.529 188.268 144.457C189.072 144.378 189.869 144.273 190.666 144.139C191.46 144.001 192.251 143.834 193.038 143.637C194.607 143.236 196.155 142.718 197.642 142.013C198.386 141.662 199.115 141.271 199.82 140.825C200.526 140.375 201.205 139.873 201.841 139.306C202.478 138.738 203.068 138.102 203.587 137.396C204.102 136.691 204.538 135.91 204.856 135.077C205.175 134.243 205.375 133.364 205.444 132.478L205.463 132.147C205.47 132.035 205.477 131.92 205.48 131.832L205.496 131.261L205.526 130.116L205.542 129.545L205.568 128.974L205.618 127.832C205.631 127.452 205.664 127.074 205.683 126.694C205.71 126.313 205.729 125.936 205.759 125.555L205.854 124.423C205.88 124.043 205.929 123.669 205.959 123.292L206.051 122.163C206.084 121.789 206.097 121.405 206.129 121.031C206.156 120.654 206.172 120.273 206.198 119.899C206.211 119.712 206.218 119.518 206.228 119.331C206.241 119.144 206.254 118.954 206.261 118.764C206.284 118.387 206.307 118.003 206.339 117.619L206.349 117.474L206.366 117.33C206.379 117.235 206.382 117.136 206.395 117.041C206.421 116.851 206.441 116.654 206.49 116.457C206.32 116.579 206.189 116.736 206.054 116.897C205.988 116.976 205.929 117.058 205.87 117.143C205.811 117.228 205.749 117.31 205.7 117.399C205.595 117.573 205.48 117.747 205.391 117.927C205.345 118.016 205.296 118.104 205.25 118.196L205.181 118.331C205.158 118.377 205.139 118.423 205.119 118.469C205.037 118.652 204.955 118.836 204.876 119.02C204.837 119.112 204.804 119.207 204.768 119.299L204.663 119.581C204.522 119.955 204.41 120.335 204.299 120.716C204.184 121.097 204.099 121.48 204.013 121.864C203.971 122.058 203.928 122.248 203.892 122.442C203.859 122.635 203.823 122.829 203.793 123.022C203.662 123.797 203.587 124.574 203.492 125.349C203.449 125.736 203.413 126.123 203.377 126.513C203.341 126.901 203.295 127.291 203.268 127.678L203.177 128.843L203.131 129.424L203.095 130.004L203.022 131.166L202.986 131.747C202.983 131.852 202.973 131.927 202.967 132.009L202.944 132.252C202.871 132.901 202.711 133.531 202.461 134.128C201.966 135.326 201.11 136.386 200.06 137.272C199.538 137.715 198.964 138.118 198.363 138.486C197.76 138.85 197.123 139.171 196.467 139.463C195.811 139.755 195.135 140.011 194.446 140.234C193.757 140.457 193.055 140.658 192.343 140.825C191.631 140.989 190.912 141.13 190.187 141.242C189.462 141.35 188.734 141.432 188.002 141.498C187.271 141.553 186.539 141.586 185.804 141.596C185.072 141.603 184.341 141.58 183.612 141.53C182.884 141.484 182.159 141.406 181.444 141.297C180.725 141.192 180.02 141.055 179.324 140.881C178.632 140.707 177.953 140.5 177.296 140.254C176.64 140.008 176.014 139.716 175.426 139.381C174.255 138.712 173.258 137.852 172.644 136.822L172.539 136.625L172.487 136.527C172.467 136.494 172.451 136.461 172.437 136.428L172.349 136.225C172.319 136.159 172.286 136.091 172.263 136.022L172.191 135.812L172.155 135.707L172.129 135.598C172.093 135.451 172.05 135.326 172.014 135.139C171.867 134.447 171.762 133.754 171.716 133.075C171.63 131.72 171.781 130.408 172.313 129.332C172.572 128.794 172.92 128.311 173.353 127.895C173.786 127.478 174.301 127.127 174.878 126.845C175.453 126.563 176.083 126.343 176.742 126.189C177.07 126.11 177.405 126.051 177.743 126.008C177.91 125.985 178.077 125.966 178.245 125.952C178.327 125.946 178.412 125.939 178.491 125.936L178.609 125.929L178.701 125.926L180.098 124.443C180.013 122.803 179.967 121.169 180 119.545C180.033 117.921 180.135 116.31 180.354 114.722L180.443 114.131C180.476 113.934 180.499 113.734 180.538 113.541C180.614 113.15 180.679 112.756 180.771 112.373C180.814 112.179 180.853 111.985 180.902 111.792L181.053 111.221C181.079 111.126 181.099 111.031 181.129 110.935L181.214 110.653C181.273 110.466 181.325 110.276 181.388 110.089C181.631 109.344 181.916 108.619 182.238 107.914C182.562 107.212 182.933 106.536 183.35 105.889C183.767 105.246 184.223 104.629 184.738 104.065C185.25 103.501 185.807 102.976 186.404 102.497C187.002 102.021 187.645 101.595 188.32 101.221C188.993 100.843 189.705 100.518 190.44 100.249C191.913 99.7146 193.465 99.3504 195.063 99.0748C195.863 98.9436 196.674 98.8288 197.501 98.7369C198.308 98.6516 199.144 98.5794 200.007 98.5204Z" fill="#35353B"/>
<path d="M174.554 126.897C175.118 126.743 175.689 126.605 176.266 126.497C176.844 126.389 177.428 126.313 178.015 126.267C178.602 126.225 179.193 126.222 179.787 126.248C180.381 126.274 180.974 126.346 181.572 126.458C181.719 126.487 181.867 126.517 182.018 126.546C182.165 126.579 182.313 126.619 182.461 126.658L182.684 126.714L182.904 126.779C183.048 126.825 183.199 126.865 183.343 126.917C183.488 126.97 183.635 127.019 183.78 127.071C183.927 127.124 184.068 127.186 184.213 127.245C184.285 127.275 184.36 127.301 184.429 127.334L184.643 127.432C184.784 127.498 184.931 127.56 185.069 127.636C186.204 128.193 187.287 128.922 188.311 129.791C187.713 128.584 186.847 127.485 185.804 126.559C185.282 126.097 184.715 125.67 184.108 125.303C183.957 125.208 183.799 125.126 183.645 125.037L183.412 124.906C183.333 124.866 183.251 124.827 183.173 124.788C183.012 124.712 182.851 124.63 182.687 124.558C182.523 124.489 182.356 124.42 182.188 124.355C180.85 123.826 179.393 123.548 177.933 123.531C176.473 123.525 175.006 123.771 173.645 124.332L174.554 126.897Z" fill="#35353B"/>
<path d="M128.522 117.173C129.096 117.058 129.674 116.959 130.258 116.887C130.842 116.818 131.429 116.782 132.016 116.776C132.607 116.772 133.194 116.808 133.785 116.874C134.375 116.94 134.966 117.055 135.55 117.202C135.694 117.242 135.842 117.281 135.989 117.32C136.134 117.363 136.278 117.412 136.422 117.461L136.639 117.534L136.852 117.616C136.993 117.671 137.141 117.721 137.282 117.783C137.423 117.845 137.564 117.904 137.709 117.967C137.85 118.029 137.987 118.101 138.129 118.17C138.197 118.206 138.27 118.236 138.338 118.272L138.545 118.383C138.683 118.459 138.824 118.531 138.959 118.613C140.054 119.246 141.085 120.047 142.049 120.982C141.534 119.738 140.747 118.583 139.769 117.589C139.28 117.094 138.742 116.631 138.161 116.221C138.017 116.116 137.866 116.024 137.718 115.926L137.495 115.778C137.42 115.732 137.341 115.69 137.262 115.644C137.108 115.555 136.951 115.467 136.793 115.381C136.632 115.303 136.472 115.224 136.308 115.145C135.008 114.528 133.575 114.151 132.118 114.036C130.661 113.931 129.181 114.079 127.787 114.545L128.522 117.173Z" fill="#35353B"/>
<path d="M206.402 117.005C207.658 116.812 208.63 116.408 209.364 115.992C214.867 112.868 214.689 104.528 214.667 103.829C214.66 107.238 214.145 115.526 208.16 122.045C206.927 123.39 205.631 124.473 204.374 125.349C205.05 122.567 205.726 119.784 206.402 117.005Z" fill="#35353B"/>
<path d="M206.369 116.969L206.395 116.966C207.465 116.799 208.456 116.461 209.345 115.955C211.635 114.656 213.22 112.31 214.05 108.99C214.319 107.91 214.466 106.89 214.545 106.04C214.604 105.223 214.624 104.479 214.627 103.826H214.706C214.712 104.055 214.729 104.817 214.64 105.873C214.512 107.91 214.194 109.889 213.695 111.779C212.636 115.785 210.782 119.246 208.193 122.068C207.068 123.295 205.792 124.407 204.4 125.378L204.315 125.437L206.369 116.969ZM214.125 109.01C213.288 112.353 211.694 114.712 209.384 116.024C208.495 116.53 207.504 116.871 206.435 117.038L204.436 125.254C205.788 124.302 207.032 123.213 208.131 122.015C212.206 117.576 213.781 112.222 214.342 108.025C214.279 108.347 214.207 108.675 214.125 109.01Z" fill="#35353B"/>
<path d="M172.641 128.305C172.641 128.305 171.725 131.586 173.586 134.217C174.088 134.926 175.626 136.848 181.217 137.426C186.457 137.967 191.329 136.93 195.355 135.451C197.52 134.657 199 132.636 199.082 130.332C199.138 128.695 199.44 126.704 200.293 124.574C201.992 120.339 204.922 117.98 206.159 117.091L204.01 132.472C204.01 132.472 203.334 140.287 192.743 142.206C182.152 144.126 174.915 140.854 174.915 140.854C174.465 140.572 171.673 138.758 171.004 135.083C170.334 131.409 172.319 128.725 172.641 128.305Z" fill="#CCCCCC"/>
<path d="M179.849 142.292C176.745 141.717 174.915 140.9 174.892 140.891C174.13 140.415 171.597 138.587 170.964 135.093C170.331 131.596 172.063 128.994 172.608 128.279L172.729 128.118L172.674 128.311C172.664 128.344 171.784 131.605 173.615 134.191C174.836 135.913 177.395 136.99 181.217 137.383C185.745 137.852 190.496 137.186 195.335 135.411C197.504 134.614 198.957 132.619 199.036 130.326C199.105 128.331 199.512 126.392 200.25 124.555C201.776 120.752 204.289 118.377 206.129 117.054L206.205 117.002L204.043 132.472C204.04 132.491 203.856 134.46 202.376 136.638C201.011 138.646 198.229 141.248 192.746 142.242C190.332 142.679 188.094 142.843 186.103 142.843C183.583 142.849 181.45 142.587 179.849 142.292ZM200.329 124.591C199.594 126.418 199.187 128.351 199.121 130.336C199.043 132.659 197.569 134.683 195.371 135.49C190.519 137.272 185.755 137.934 181.217 137.465C177.369 137.068 174.793 135.982 173.559 134.24C171.962 131.979 172.408 129.214 172.565 128.482C171.935 129.358 170.456 131.829 171.046 135.083C171.673 138.545 174.183 140.356 174.934 140.825C174.951 140.835 176.775 141.648 179.869 142.219C182.723 142.748 187.277 143.168 192.74 142.177C198.196 141.189 200.959 138.604 202.317 136.609C203.787 134.447 203.974 132.495 203.974 132.475L206.11 117.182C204.282 118.505 201.825 120.857 200.329 124.591Z" fill="#35353B" fill-opacity="0.3"/>
<path d="M124.145 109.981C124.145 109.981 105.588 89.7866 123.053 88.2281C140.517 86.6697 151.977 82.3027 161.801 69.3594C161.801 69.3594 144.776 87.923 100.388 82.0337C102.72 86.6303 106.225 92.431 111.435 98.363C115.894 103.439 120.379 107.231 124.145 109.981Z" fill="#35353B"/>
<path d="M111.408 98.3891C107.061 93.4381 103.344 87.9393 100.355 82.05L100.322 81.9843L100.394 81.9942C123.312 85.0356 138.781 81.4299 147.722 77.87C157.407 74.0149 161.732 69.3789 161.774 69.333L161.833 69.3822C156.991 75.7637 151.738 80.1208 145.311 83.0966C139.418 85.8231 132.554 87.4176 123.059 88.2641C119.204 88.6086 116.819 89.898 115.966 92.0995C114.712 95.3378 117.009 100.016 119.158 103.37C121.488 107.011 124.152 109.922 124.178 109.951L124.125 110.01C119.476 106.618 115.198 102.707 111.408 98.3891ZM147.755 77.9422C142.059 80.2094 135.651 81.7711 128.715 82.5782C120.064 83.5855 110.559 83.4181 100.457 82.0828C103.436 87.9425 107.137 93.4086 111.464 98.3399C115.168 102.559 119.338 106.391 123.866 109.728C123.148 108.914 121.005 106.414 119.089 103.419C117.718 101.276 116.727 99.3045 116.146 97.5557C115.418 95.3641 115.332 93.5235 115.89 92.0766C116.753 89.8455 119.161 88.5364 123.049 88.1886C139.037 86.7614 151.062 83.1688 161.423 69.7923C160.137 71.0096 155.787 74.7433 147.755 77.9422Z" fill="#35353B"/>
<path d="M181.178 133.489C180.955 133.482 180.728 133.499 180.505 133.522C180.279 133.545 180.056 133.577 179.833 133.623C179.386 133.715 178.94 133.843 178.507 134.027C178.074 134.207 177.651 134.44 177.257 134.726C176.86 135.011 176.499 135.356 176.178 135.743C175.535 136.517 175.092 137.475 174.852 138.456C174.606 139.44 174.531 140.451 174.56 141.439L177.26 141.042C177.034 140.277 176.89 139.499 176.88 138.728C176.863 137.957 176.995 137.193 177.319 136.484C177.48 136.13 177.69 135.789 177.946 135.477C178.202 135.165 178.504 134.877 178.842 134.617C179.176 134.358 179.547 134.138 179.938 133.945C180.135 133.85 180.335 133.761 180.541 133.686C180.751 133.61 180.961 133.538 181.178 133.489Z" fill="#35353B"/>
<path d="M176.499 130.214C176.276 130.208 176.05 130.224 175.827 130.247C175.6 130.27 175.377 130.303 175.154 130.349C174.708 130.441 174.262 130.569 173.829 130.752C173.395 130.933 172.972 131.166 172.578 131.451C172.181 131.737 171.821 132.081 171.499 132.468C170.856 133.243 170.413 134.201 170.174 135.182C169.927 136.166 169.852 137.177 169.882 138.164L172.582 137.767C172.355 137.003 172.211 136.225 172.201 135.454C172.185 134.683 172.316 133.919 172.641 133.21C172.802 132.856 173.012 132.514 173.267 132.203C173.523 131.891 173.825 131.602 174.163 131.343C174.498 131.084 174.869 130.864 175.259 130.67C175.456 130.575 175.656 130.487 175.863 130.411C176.073 130.336 176.283 130.264 176.499 130.214Z" fill="#35353B"/>
<path d="M133.151 123.587C132.928 123.58 132.702 123.597 132.479 123.62C132.252 123.643 132.029 123.675 131.806 123.721C131.36 123.813 130.914 123.941 130.481 124.125C130.048 124.305 129.624 124.538 129.231 124.824C128.834 125.109 128.473 125.454 128.151 125.841C127.508 126.615 127.065 127.573 126.826 128.554C126.58 129.539 126.504 130.549 126.534 131.537L129.234 131.14C129.007 130.375 128.863 129.598 128.853 128.827C128.837 128.056 128.968 127.291 129.293 126.582C129.454 126.228 129.664 125.887 129.92 125.575C130.175 125.263 130.477 124.975 130.815 124.716C131.15 124.456 131.521 124.237 131.911 124.043C132.108 123.948 132.308 123.859 132.515 123.784C132.721 123.708 132.935 123.639 133.151 123.587Z" fill="#35353B"/>
<path d="M130.7 124.627L130.96 124.607C131.038 124.601 131.12 124.601 131.199 124.597C131.357 124.591 131.514 124.591 131.672 124.591C131.983 124.591 132.295 124.604 132.603 124.62C133.223 124.66 133.837 124.729 134.447 124.83C135.058 124.932 135.665 125.063 136.262 125.224C136.56 125.306 136.859 125.398 137.151 125.5C137.443 125.605 137.735 125.716 138.017 125.847C138.585 126.103 139.139 126.392 139.667 126.714L139.867 126.832C139.933 126.871 139.999 126.917 140.064 126.96C140.192 127.045 140.323 127.13 140.451 127.219C140.704 127.403 140.957 127.573 141.196 127.773C141.439 127.96 141.669 128.17 141.898 128.37C142.013 128.472 142.118 128.584 142.23 128.689L142.394 128.849C142.446 128.902 142.499 128.961 142.551 129.017C142.656 129.128 142.755 129.243 142.856 129.355L143.145 129.706L143.286 129.883L143.417 130.067C143.506 130.191 143.591 130.313 143.677 130.434C142.696 129.742 141.688 129.161 140.629 128.718C140.366 128.603 140.1 128.502 139.835 128.4C139.7 128.351 139.566 128.308 139.431 128.262C139.362 128.239 139.297 128.216 139.231 128.193L139.027 128.131C138.758 128.046 138.486 127.97 138.214 127.898C137.938 127.832 137.669 127.76 137.394 127.701C136.846 127.576 136.301 127.455 135.756 127.34C135.212 127.225 134.661 127.127 134.106 127.048C133.552 126.97 132.997 126.904 132.439 126.855C132.302 126.842 132.16 126.832 132.023 126.819L131.606 126.789C131.537 126.786 131.468 126.779 131.399 126.776L131.193 126.766L130.805 126.75L130.7 124.627Z" fill="#35353B"/>
<path d="M132.315 112.225C133.584 112.015 135.166 111.871 136.97 111.962C139.579 112.097 141.728 112.678 143.26 113.229C135.418 110.496 127.734 112.356 124.526 117.146C123.312 118.957 121.983 122.317 122.918 126.094C123.076 126.727 124.043 130.382 127.584 132.652C131.048 134.877 135.619 134.896 139.474 132.8C139.753 133.397 142.138 138.256 147.587 139.427C151.895 140.353 155.324 138.371 156.157 137.872C158.28 136.599 159.471 134.978 160.029 134.204C160.383 133.712 161.824 131.642 162.47 128.498C162.565 128.033 162.916 126.215 162.657 123.229C162.293 119.059 160.564 114.86 160.564 114.86C159.438 111.985 157.46 107.776 153.956 103.114C153.93 103.127 150.143 105.414 146.019 107.113C144.31 107.819 143.027 108.222 141.757 108.622C136.79 110.187 131.987 111.05 131.987 111.05C131.987 111.044 132.098 111.451 132.315 112.225Z" fill="white"/>
<path d="M147.302 140.756C142.709 139.772 140.074 136.484 138.903 134.588C134.861 136.314 130.349 136.045 126.845 133.797C123.069 131.376 121.871 127.537 121.593 126.418C120.359 121.441 122.656 117.481 123.39 116.385C124.965 114.036 127.515 112.274 130.651 111.342L130.189 109.679H131.859C132.617 109.538 136.944 108.701 141.347 107.313C142.633 106.91 143.844 106.526 145.498 105.847C149.169 104.334 152.584 102.333 153.231 101.949C153.277 101.923 153.303 101.91 153.306 101.906L154.34 101.352L155.045 102.29C157.903 106.093 160.186 110.151 161.827 114.348C161.951 114.656 163.641 118.849 164.012 123.104C164.196 125.204 164.12 127.216 163.802 128.767C163.172 131.832 161.86 133.984 161.131 134.995C160.573 135.772 159.261 137.593 156.853 139.037C155.485 139.857 152.981 141.028 149.878 141.028C149.061 141.032 148.198 140.95 147.302 140.756ZM146.541 108.37C144.779 109.095 143.453 109.515 142.167 109.918C141.131 110.243 140.104 110.542 139.132 110.801C140.691 111.024 142.226 111.405 143.719 111.943L142.807 114.515C135.815 112.077 128.604 113.501 125.658 117.901C125.08 118.761 123.276 121.871 124.24 125.759C124.457 126.632 125.389 129.62 128.318 131.497C131.34 133.436 135.366 133.472 138.821 131.596L140.094 130.903L140.707 132.212C141.085 133.016 143.207 137.085 147.873 138.085C151.242 138.807 154.067 137.524 155.455 136.694C157.378 135.543 158.457 134.04 158.92 133.4C159.402 132.728 160.583 130.88 161.131 128.216C161.285 127.465 161.512 125.831 161.295 123.341C160.954 119.44 159.317 115.414 159.3 115.375L159.291 115.352C157.877 111.736 155.957 108.225 153.578 104.902C152.102 105.738 149.399 107.192 146.541 108.37Z" fill="#35353B"/>
<path d="M123.558 122.947C124.139 121.602 125.523 118.905 128.456 116.845C132.708 113.856 137.315 114.285 139.447 114.482C146.764 115.158 151.489 119.817 152.939 121.372C152.125 120.001 150.599 117.832 148.021 115.929C147.463 115.516 145.458 114.089 142.397 113.114C140.192 112.412 135.661 110.978 130.776 112.865C129.178 113.482 125.517 114.978 124.076 118.715C123.423 120.398 123.45 121.96 123.558 122.947Z" fill="white"/>
<path d="M147.302 140.756C142.709 139.772 140.074 136.484 138.903 134.588C134.861 136.314 130.349 136.045 126.845 133.797C123.069 131.376 121.871 127.537 121.593 126.418C120.359 121.441 122.656 117.481 123.39 116.385C124.965 114.036 127.515 112.274 130.651 111.342L130.189 109.679H131.859C132.617 109.538 136.944 108.701 141.347 107.313C142.633 106.91 143.844 106.526 145.498 105.847C149.169 104.334 152.584 102.333 153.231 101.949C153.277 101.923 153.303 101.91 153.306 101.906L154.34 101.352L155.045 102.29C157.903 106.093 160.186 110.151 161.827 114.348C161.951 114.656 163.641 118.849 164.012 123.104C164.196 125.204 164.12 127.216 163.802 128.767C163.172 131.832 161.86 133.984 161.131 134.995C160.573 135.772 159.261 137.593 156.853 139.037C155.485 139.857 152.981 141.028 149.878 141.028C149.061 141.032 148.198 140.95 147.302 140.756ZM146.541 108.37C144.779 109.095 143.453 109.515 142.167 109.918C141.131 110.243 140.104 110.542 139.132 110.801C140.691 111.024 142.226 111.405 143.719 111.943L142.807 114.515C135.815 112.077 128.604 113.501 125.658 117.901C125.08 118.761 123.276 121.871 124.24 125.759C124.457 126.632 125.389 129.62 128.318 131.497C131.34 133.436 135.366 133.472 138.821 131.596L140.094 130.903L140.707 132.212C141.085 133.016 143.207 137.085 147.873 138.085C151.242 138.807 154.067 137.524 155.455 136.694C157.378 135.543 158.457 134.04 158.92 133.4C159.402 132.728 160.583 130.88 161.131 128.216C161.285 127.465 161.512 125.831 161.295 123.341C160.954 119.44 159.317 115.414 159.3 115.375L159.291 115.352C157.877 111.736 155.957 108.225 153.578 104.902C152.102 105.738 149.399 107.192 146.541 108.37Z" fill="#35353B"/>
<path d="M143.07 128.095C143.427 128.433 148.329 132.944 153.516 131.53C158.9 130.063 162.936 122.665 160.485 114.571C164.376 123.462 163.119 132.465 157.991 136.596C154.313 139.562 149.54 139.289 149.28 139.273C142.814 138.817 139.267 133.463 138.84 132.796C139.559 132.285 140.432 131.566 141.298 130.588C142.092 129.689 142.663 128.82 143.07 128.095Z" fill="#CCCCCC" fill-opacity="0.5"/>
<path d="M149.28 139.312C142.981 138.87 139.454 133.823 138.811 132.816L138.791 132.783L138.821 132.76C139.716 132.124 140.543 131.382 141.272 130.556C141.944 129.794 142.538 128.958 143.037 128.069L143.06 128.026L143.096 128.059C143.24 128.197 144.566 129.427 146.498 130.428C148.992 131.717 151.347 132.075 153.506 131.487C155.859 130.848 158.014 129.02 159.422 126.474C161.325 123.039 161.699 118.702 160.449 114.574L160.521 114.548C162.411 118.866 163.152 123.298 162.66 127.367C162.184 131.304 160.534 134.591 158.018 136.619C154.97 139.073 151.197 139.319 149.812 139.319C149.507 139.326 149.317 139.316 149.28 139.312ZM159.491 126.52C158.073 129.082 155.898 130.923 153.526 131.569C151.347 132.163 148.972 131.802 146.462 130.503C144.631 129.555 143.342 128.4 143.076 128.157C142.581 129.033 141.99 129.86 141.324 130.611C140.599 131.432 139.782 132.17 138.893 132.806C139.582 133.876 143.083 138.797 149.284 139.234C149.484 139.247 154.267 139.549 157.968 136.566C160.468 134.552 162.109 131.281 162.581 127.363C163.051 123.488 162.398 119.279 160.692 115.152C161.741 119.118 161.312 123.229 159.491 126.52Z" fill="#35353B"/>
<path d="M123.994 117.895C124.083 118.984 124.578 123.508 128.328 126.704C132.21 130.008 138.017 130.562 143.066 128.095C142.492 129.109 141.331 130.831 139.254 132.15C135.792 134.355 131.229 134.526 127.613 132.649C126.635 132.14 124.234 130.851 122.925 128.003C120.694 123.147 123.728 118.305 123.994 117.895Z" fill="#35353B"/>
<path d="M127.6 132.685C126.767 132.252 124.234 130.939 122.892 128.023C120.667 123.187 123.617 118.406 123.961 117.875L124.024 117.78L124.034 117.894C124.168 119.545 124.86 123.702 128.355 126.674C132.236 129.981 138.007 130.523 143.053 128.062L143.165 128.006L143.102 128.115C142.154 129.788 140.832 131.195 139.277 132.183C137.407 133.374 135.199 133.978 132.991 133.978C131.13 133.978 129.267 133.551 127.6 132.685ZM128.305 126.733C124.867 123.807 124.125 119.745 123.968 118.012C123.433 118.872 120.858 123.406 122.964 127.987C124.296 130.88 126.809 132.186 127.636 132.613C131.258 134.493 135.812 134.296 139.237 132.114C140.747 131.153 142.036 129.794 142.974 128.18C137.925 130.598 132.18 130.034 128.305 126.733Z" fill="#CCCCCC"/>
<path d="M138.768 133.823L138.824 133.8L138.867 133.781L138.945 133.745C138.995 133.722 139.044 133.699 139.093 133.672C139.188 133.623 139.28 133.574 139.369 133.525C139.546 133.42 139.72 133.315 139.884 133.197C139.966 133.138 140.048 133.082 140.13 133.02C140.209 132.957 140.291 132.898 140.366 132.836C140.524 132.711 140.675 132.583 140.819 132.445C141.406 131.907 141.911 131.287 142.331 130.631C142.545 130.303 142.728 129.962 142.896 129.614C143.066 129.269 143.201 128.905 143.326 128.548C143.562 127.822 143.713 127.084 143.765 126.343C143.46 127.019 143.109 127.655 142.705 128.242C142.502 128.534 142.289 128.817 142.062 129.079C142.007 129.145 141.951 129.214 141.892 129.276C141.833 129.342 141.777 129.404 141.715 129.466C141.593 129.591 141.475 129.716 141.347 129.83C140.852 130.306 140.304 130.713 139.743 131.074C139.674 131.12 139.602 131.162 139.529 131.205C139.461 131.251 139.388 131.29 139.316 131.333C139.172 131.415 139.027 131.494 138.883 131.569C138.739 131.642 138.594 131.717 138.447 131.783C138.375 131.815 138.302 131.848 138.233 131.878L138.132 131.92L138.053 131.95L138.768 133.823Z" fill="#35353B"/>
<path d="M134.936 113.137C135.894 113.189 136.846 113.258 137.794 113.38C138.739 113.498 139.68 113.665 140.606 113.882C141.534 114.095 142.45 114.364 143.352 114.676C143.575 114.761 143.801 114.843 144.024 114.925C144.08 114.945 144.136 114.964 144.192 114.987L144.356 115.056L144.687 115.194L145.022 115.332C145.133 115.378 145.238 115.434 145.35 115.483C145.566 115.585 145.786 115.686 146.003 115.791C146.429 116.018 146.866 116.228 147.279 116.48C147.486 116.605 147.706 116.716 147.906 116.851L148.523 117.245C149.333 117.786 150.117 118.38 150.872 119.023C152.378 120.309 153.749 121.799 154.983 123.449C154.819 122.96 154.622 122.481 154.409 122.005L154.245 121.651C154.189 121.533 154.13 121.418 154.071 121.303C153.956 121.07 153.828 120.841 153.7 120.614C153.188 119.702 152.597 118.826 151.935 118.003C151.275 117.176 150.54 116.402 149.756 115.673C149.353 115.325 148.952 114.968 148.523 114.643C148.103 114.305 147.653 114.01 147.213 113.701C146.987 113.557 146.754 113.419 146.524 113.275C146.41 113.206 146.295 113.13 146.177 113.065L145.822 112.868L145.465 112.674L145.284 112.579C145.225 112.546 145.163 112.52 145.101 112.491C144.858 112.373 144.612 112.254 144.366 112.14C143.375 111.7 142.345 111.339 141.295 111.06C140.241 110.785 139.169 110.598 138.086 110.509C137.003 110.42 135.911 110.414 134.834 110.542L134.936 113.137Z" fill="#35353B"/>
<path d="M122.58 121.668C122.596 121.658 122.61 121.651 122.619 121.648L122.652 121.631L122.711 121.602C122.751 121.582 122.79 121.566 122.826 121.549C122.902 121.517 122.977 121.484 123.053 121.454C123.203 121.395 123.351 121.336 123.499 121.287C123.797 121.182 124.096 121.09 124.394 121.008C124.995 120.847 125.602 120.732 126.209 120.664C126.816 120.598 127.426 120.578 128.023 120.618C128.62 120.654 129.211 120.752 129.775 120.903C129.191 120.926 128.62 121.005 128.069 121.143C127.518 121.277 126.986 121.461 126.475 121.684C125.966 121.907 125.477 122.17 125.015 122.462C124.785 122.609 124.558 122.763 124.345 122.924C124.237 123.003 124.132 123.088 124.03 123.17C123.981 123.213 123.929 123.252 123.883 123.295C123.86 123.315 123.837 123.338 123.814 123.357L123.781 123.387C123.774 123.393 123.771 123.397 123.768 123.4C123.764 123.403 123.758 123.41 123.761 123.41L122.58 121.668Z" fill="#35353B"/>
<path d="M124.211 127.235C124.227 127.226 124.24 127.219 124.25 127.216L124.283 127.199L124.342 127.17C124.381 127.15 124.421 127.134 124.457 127.117C124.532 127.084 124.608 127.052 124.683 127.022C124.834 126.963 124.982 126.904 125.129 126.855C125.428 126.75 125.727 126.658 126.025 126.576C126.626 126.415 127.232 126.3 127.839 126.231C128.446 126.166 129.057 126.146 129.654 126.185C130.251 126.222 130.842 126.32 131.406 126.471C130.822 126.494 130.251 126.573 129.7 126.71C129.149 126.845 128.617 127.029 128.105 127.252C127.597 127.475 127.108 127.737 126.645 128.029C126.416 128.177 126.189 128.331 125.976 128.492C125.868 128.571 125.763 128.656 125.661 128.738C125.612 128.781 125.559 128.82 125.513 128.863C125.49 128.882 125.467 128.905 125.444 128.925L125.412 128.955C125.405 128.961 125.402 128.964 125.398 128.968C125.395 128.971 125.389 128.978 125.392 128.978L124.211 127.235Z" fill="#35353B"/>
<path d="M173.888 50.1626C173.464 49.4211 173.264 48.5713 173.307 47.7183C173.632 41.1826 173.245 31.2643 169.271 20.1517C167.431 15.0072 165.193 10.6402 162.998 7.05417C161.492 4.59674 158.103 4.15709 156.023 6.14863C153.89 8.18938 151.649 10.5779 149.441 13.3602C145.858 17.8682 143.25 22.2679 141.354 26.0968C140.396 28.0326 138.207 29.0136 136.121 28.4558C134.083 27.9112 131.803 27.4256 129.306 27.0876C124.69 26.4577 120.631 26.4971 117.409 26.7497C116.688 22.9635 115.122 17.235 111.448 11.1094C109.486 7.83503 107.35 5.16434 105.358 3.03172C103.403 0.941759 100.053 1.05331 98.2584 3.28108C95.3154 6.93933 92.1099 11.6705 89.3736 17.5335C84.6917 27.5634 83.3268 36.7369 82.9462 42.8592C82.8937 43.6925 82.6116 44.4964 82.1325 45.1788C80.2722 47.8134 78.1265 51.4257 76.4237 55.9961C76.2039 56.59 75.9972 57.174 75.8101 57.7481C73.6119 64.438 74.0548 71.7086 76.9847 78.1097C79.347 83.2641 82.9823 89.3174 88.596 95.0591C93.9669 100.551 99.7545 104.331 105.125 106.946C117.291 112.868 131.393 113.298 143.969 108.304C148.191 106.628 152.689 104.298 157.168 101.067C166.099 94.6194 171.597 86.9847 174.862 81.1511C177.963 75.6063 179.183 69.1954 178.274 62.9091C178.133 61.9281 177.943 60.9142 177.7 59.8709C176.742 55.8025 175.236 52.5347 173.888 50.1626Z" fill="#F0835C"/>
<path d="M124.342 113.078C117.403 112.842 110.736 111.192 104.522 108.17C98.1731 105.079 92.4839 100.988 87.615 96.0106C82.7002 90.9874 78.7039 85.1539 75.738 78.6773C72.6408 71.9153 72.2044 64.3297 74.5076 57.3216C74.7045 56.7179 74.9177 56.1109 75.1408 55.5171C76.6107 51.5734 78.5858 47.8298 81.0137 44.3881C81.3484 43.9123 81.5453 43.3546 81.5813 42.7706C82.1391 33.7578 84.3439 25.0731 88.1334 16.9528C90.5482 11.7787 93.5962 6.89011 97.1921 2.42474C98.2912 1.05658 99.9284 0.236343 101.684 0.170724C103.446 0.105105 105.145 0.807229 106.353 2.09664C108.725 4.6361 110.834 7.43147 112.616 10.404C115.388 15.0269 117.367 20.0336 118.505 25.3028C122.17 25.0928 125.858 25.2339 129.486 25.7293C131.832 26.0509 134.182 26.52 136.468 27.1336C137.922 27.5207 139.461 26.8284 140.127 25.4865C142.41 20.8866 145.183 16.5197 148.368 12.5104C150.426 9.92171 152.683 7.45115 155.075 5.16105C156.367 3.92741 158.126 3.34996 159.898 3.57963C161.669 3.8093 163.224 4.81655 164.156 6.34219C166.742 10.5615 168.894 15.0531 170.551 19.6924C173.763 28.6723 175.147 38.1248 174.665 47.7839C174.636 48.381 174.773 48.9683 175.069 49.4834C176.867 52.643 178.195 56.0322 179.016 59.5559C179.258 60.5927 179.459 61.6524 179.61 62.7089C180.082 65.9767 180.01 69.2905 179.396 72.555C178.786 75.7999 177.657 78.9168 176.037 81.8106C174.068 85.3343 171.758 88.6776 169.17 91.7519C165.869 95.6726 162.096 99.1767 157.952 102.169C153.785 105.178 149.248 107.668 144.461 109.567C138.542 111.917 132.354 113.104 126.045 113.104C125.48 113.108 124.91 113.098 124.342 113.078ZM172.7 50.8352C172.149 49.8673 171.886 48.7649 171.942 47.6493C172.405 38.3479 171.073 29.2531 167.982 20.611C166.387 16.1489 164.317 11.8279 161.83 7.76612C161.328 6.94917 160.498 6.40781 159.547 6.28642C158.595 6.16174 157.653 6.47015 156.961 7.1329C154.658 9.33442 152.486 11.7131 150.504 14.2066C147.437 18.0683 144.766 22.2712 142.571 26.7005C141.56 28.738 139.477 29.9716 137.279 29.9716C136.777 29.9716 136.265 29.906 135.763 29.7715C133.584 29.1907 131.35 28.7412 129.116 28.4361C125.28 27.9112 121.376 27.8029 117.511 28.108L116.294 28.2032L116.064 27.0023C115.034 21.6117 113.085 16.5 110.273 11.8083C108.59 8.99976 106.599 6.3586 104.358 3.96022C103.692 3.24826 102.753 2.8611 101.782 2.89719C100.818 2.93328 99.9186 3.38277 99.3149 4.13411C95.8568 8.42888 92.9236 13.1305 90.604 18.1077C86.9588 25.9163 84.8393 34.2696 84.3013 42.9412C84.2324 44.0272 83.8682 45.0738 83.2382 45.9629C80.9448 49.2111 79.0813 52.7479 77.6934 56.4718C77.4834 57.0329 77.2833 57.607 77.0963 58.1746C75.0096 64.5266 75.4066 71.4067 78.2151 77.5421C81.0498 83.7332 84.8689 89.3043 89.5606 94.1043C94.2097 98.8584 99.643 102.766 105.709 105.719C117.436 111.424 131.193 111.907 143.45 107.038C148.027 105.22 152.368 102.838 156.354 99.9641C163.49 94.813 169.311 88.2609 173.655 80.4884C176.607 75.2028 177.762 69.0313 176.906 63.1092C176.765 62.1315 176.578 61.1472 176.355 60.1859C175.6 56.9115 174.367 53.7683 172.7 50.8352Z" fill="#35353B"/>
<path d="M144.894 107.72C144.933 107.707 144.973 107.697 145.012 107.691C155.833 105.499 163.5 96.1614 163.448 85.9019C163.412 78.756 159.635 72.0432 153.585 67.9322C151.082 66.2293 149.395 63.5718 148.821 60.5992C148.126 56.9738 146.36 52.1705 141.954 48.7845C135.389 43.7384 125.444 43.745 117.557 49.1225C116.684 49.7163 115.526 48.9617 115.716 47.9216C116.081 45.9006 116.441 43.8598 116.792 41.806C117.157 39.6733 117.511 37.5571 117.852 35.454C118.049 34.2466 116.517 33.5642 115.746 34.5124C114.158 36.4646 112.498 38.8104 110.952 41.5697C109.374 44.3848 108.242 47.0555 107.419 49.4079C107.146 50.1888 106.185 50.4578 105.542 49.9427C99.7315 45.287 92.1427 45.4248 88.0842 49.28C85.9023 51.3535 85.1412 54.1259 84.9345 56.416C84.731 58.6635 83.2448 60.6058 81.1154 61.3571C80.4625 61.5868 79.7768 61.8919 79.0813 62.2955C76.6599 63.6964 75.3082 65.5896 74.6585 66.6887C74.5109 66.938 74.4617 67.2366 74.5174 67.522C75.5509 72.8208 79.2847 87.7917 92.9531 98.9207C114.827 116.726 142.308 108.544 144.894 107.72Z" fill="white"/>
<path d="M124.27 112.911C117.331 112.674 110.664 111.024 104.45 108.002C98.1009 104.912 92.4118 100.82 87.5428 95.8432C82.628 90.82 78.6318 84.9865 75.6658 78.5099C72.5686 71.7479 72.1322 64.1623 74.4354 57.1542C74.6323 56.5538 74.8455 55.9468 75.0687 55.3497C76.5385 51.406 78.5136 47.6624 80.9415 44.2207C81.2762 43.745 81.4731 43.1872 81.5092 42.6032C82.0669 33.5904 84.2717 24.9058 88.0612 16.7854C90.476 11.6114 93.524 6.72274 97.1199 2.25408C98.219 0.885926 99.8562 0.0656891 101.612 7.01463e-05C103.373 -0.0655488 105.073 0.636574 106.28 1.92599C108.652 4.46544 110.762 7.26081 112.544 10.2334C115.316 14.8562 117.294 19.8629 118.433 25.1321C122.098 24.9222 125.786 25.0632 129.414 25.5587C131.76 25.8802 134.109 26.3494 136.396 26.9629C137.85 27.3501 139.388 26.6578 140.054 25.3159C142.338 20.716 145.11 16.349 148.296 12.3397C150.353 9.75105 152.611 7.2805 155.002 4.99039C156.295 3.75676 158.054 3.17931 159.825 3.40898C161.6 3.63864 163.152 4.64589 164.084 6.17154C166.669 10.3908 168.822 14.8825 170.479 19.5217C173.691 28.5017 175.075 37.9541 174.593 47.6132C174.563 48.2103 174.701 48.7976 174.997 49.3127C176.794 52.4723 178.123 55.8615 178.944 59.3853C179.186 60.422 179.386 61.4818 179.537 62.5382C180.01 65.8061 179.938 69.1198 179.324 72.3844C178.714 75.6292 177.585 78.7461 175.964 81.6399C173.996 85.1637 171.686 88.507 169.097 91.5812C165.797 95.502 162.024 99.006 157.88 101.998C153.713 105.007 149.175 107.497 144.389 109.397C138.47 111.746 132.282 112.937 125.973 112.934C125.408 112.94 124.837 112.93 124.27 112.911ZM156.889 6.96881C154.586 9.17032 152.414 11.549 150.432 14.0425C147.364 17.9009 144.694 22.1071 142.499 26.5364C141.488 28.5739 139.405 29.8075 137.207 29.8075C136.705 29.8075 136.193 29.7419 135.691 29.6074C133.512 29.0266 131.278 28.5771 129.044 28.272C125.208 27.7471 121.304 27.6388 117.439 27.9439L116.222 28.0391L115.992 26.8382C114.962 21.4476 113.013 16.3359 110.201 11.6442C108.518 8.83567 106.526 6.1945 104.286 3.79613C103.619 3.08416 102.681 2.69701 101.71 2.7331C100.745 2.76919 99.8497 3.21868 99.2427 3.97002C95.7846 8.26478 92.8514 12.9664 90.5318 17.9436C86.8866 25.7522 84.7671 34.1055 84.2291 42.7771C84.1602 43.8631 83.796 44.9097 83.166 45.7988C80.8726 49.047 79.0091 52.5838 77.6212 56.3077C77.4112 56.8688 77.2111 57.4429 77.0241 58.0105C74.9374 64.3625 75.3344 71.2426 78.1429 77.378C80.9776 83.5691 84.7967 89.1402 89.4884 93.9402C94.1375 98.6943 99.5708 102.602 105.637 105.555C117.363 111.26 131.12 111.743 143.378 106.874C147.955 105.056 152.296 102.674 156.282 99.8C163.418 94.6489 169.238 88.0968 173.582 80.3243C176.535 75.0387 177.69 68.8672 176.834 62.9451C176.693 61.9674 176.506 60.9864 176.283 60.0218C175.521 56.7539 174.288 53.6108 172.621 50.6776C172.07 49.7097 171.807 48.6073 171.863 47.4918C172.326 38.1903 170.994 29.0955 167.903 20.4535C166.309 15.9914 164.238 11.6704 161.751 7.60859C161.249 6.79164 160.419 6.25028 159.468 6.12888C159.33 6.11248 159.192 6.10264 159.054 6.10264C158.257 6.09607 157.48 6.4012 156.889 6.96881Z" fill="#35353B"/>
<path d="M101.566 59.6985C101.853 55.2665 99.3854 51.499 96.0547 51.2834C92.724 51.0677 89.7913 54.4857 89.5044 58.9177C89.2175 63.3496 91.685 67.1172 95.0157 67.3328C98.3465 67.5484 101.279 64.1304 101.566 59.6985Z" fill="#35353B"/>
<path d="M95.7288 66.1047C96.6221 66.1047 97.3463 64.9751 97.3463 63.5816C97.3463 62.1882 96.6221 61.0586 95.7288 61.0586C94.8355 61.0586 94.1113 62.1882 94.1113 63.5816C94.1113 64.9751 94.8355 66.1047 95.7288 66.1047Z" fill="white"/>
<path d="M128.797 60.0371C129.084 55.6052 126.616 51.8376 123.285 51.622C119.955 51.4064 117.022 54.8244 116.735 59.2563C116.448 63.6882 118.916 67.4558 122.246 67.6714C125.577 67.887 128.51 64.469 128.797 60.0371Z" fill="#35353B"/>
<path d="M120.231 65.2712C121.124 65.2712 121.848 64.1416 121.848 62.7481C121.848 61.3547 121.124 60.2251 120.231 60.2251C119.338 60.2251 118.613 61.3547 118.613 62.7481C118.613 64.1416 119.338 65.2712 120.231 65.2712Z" fill="white"/>
<path d="M104.276 74.9829C104.2 75.206 104.121 75.4193 104.033 75.6161C103.944 75.813 103.846 76 103.741 76.1673C103.636 76.3347 103.518 76.4823 103.396 76.6201C103.272 76.7546 103.14 76.8793 102.996 76.981C102.714 77.1943 102.383 77.3518 101.986 77.4633C101.589 77.5749 101.133 77.6339 100.647 77.6405C100.526 77.6438 100.404 77.6405 100.279 77.6372C100.155 77.6339 100.03 77.6274 99.8923 77.6175L99.7086 77.6011C99.6495 77.5978 99.5905 77.5913 99.5314 77.5847C99.4133 77.5716 99.2952 77.5519 99.1738 77.5355C98.698 77.4502 98.2157 77.3091 97.7302 77.1057C97.2446 76.899 96.7623 76.6332 96.28 76.315C96.1586 76.2362 96.0372 76.1542 95.9191 76.0689C95.7977 75.9836 95.6796 75.895 95.5582 75.8031C95.3187 75.6194 95.0824 75.4258 94.8364 75.2191C94.8757 75.5374 94.9578 75.8458 95.066 76.1509C95.1185 76.3051 95.1776 76.4528 95.2432 76.6004C95.3088 76.7481 95.381 76.8957 95.4565 77.0401C95.7649 77.6175 96.1652 78.1589 96.6606 78.6346C97.1527 79.1136 97.74 79.5205 98.3929 79.8223C98.557 79.8945 98.721 79.9667 98.8949 80.0257C98.9802 80.0585 99.0655 80.0881 99.1508 80.1143L99.4035 80.1898C99.5577 80.2357 99.7283 80.2784 99.8989 80.3145C100.069 80.3538 100.243 80.3834 100.417 80.4096C101.119 80.5146 101.867 80.5244 102.635 80.3768C103.019 80.3013 103.406 80.1865 103.78 80.0192C104.158 79.8551 104.515 79.6353 104.847 79.3794C105.503 78.861 106.015 78.172 106.326 77.4371C106.635 76.6989 106.766 75.9311 106.717 75.1896L104.276 74.9829Z" fill="#35353B"/>
<path d="M104.177 75.1502C104.322 76.0623 104.656 76.9547 105.132 77.7651C105.614 78.5755 106.241 79.3039 106.976 79.9109C107.347 80.2094 107.737 80.485 108.157 80.718C108.574 80.9509 109.013 81.1478 109.466 81.3053C110.372 81.6169 111.34 81.7679 112.301 81.7285C112.422 81.7219 112.54 81.7187 112.658 81.7055C112.777 81.6924 112.898 81.6826 113.016 81.6662L113.37 81.6104L113.718 81.5316L113.892 81.489C113.951 81.4759 114.007 81.4627 114.063 81.4431L114.401 81.3315L114.568 81.2757C114.624 81.256 114.676 81.2298 114.732 81.2101L115.057 81.0723C115.91 80.6852 116.668 80.1274 117.285 79.4712C118.522 78.1654 119.224 76.4462 119.188 74.7959C119.073 74.9697 118.971 75.1436 118.863 75.3142L118.692 75.5603C118.633 75.6423 118.587 75.7244 118.525 75.7998C118.462 75.8786 118.403 75.954 118.344 76.0295C118.285 76.105 118.23 76.1837 118.164 76.2526L117.977 76.4691L117.885 76.5741L117.787 76.6758C117.268 77.2172 116.697 77.6732 116.097 78.0309C115.497 78.3852 114.867 78.651 114.227 78.7986L113.987 78.8511C113.948 78.8577 113.909 78.8708 113.869 78.8774L113.748 78.8938L113.508 78.9299C113.469 78.9364 113.43 78.9397 113.39 78.943L113.272 78.9495C112.957 78.9856 112.639 78.9758 112.327 78.9495C111.077 78.8413 109.88 78.336 108.885 77.5518C108.387 77.1614 107.94 76.6988 107.55 76.187C107.16 75.6719 106.838 75.101 106.546 74.4907L104.177 75.1502Z" fill="#35353B"/>
<path d="M70.4721 136.73C73.2082 136.73 75.4263 135.648 75.4263 134.312C75.4263 132.977 73.2082 131.894 70.4721 131.894C67.7359 131.894 65.5178 132.977 65.5178 134.312C65.5178 135.648 67.7359 136.73 70.4721 136.73Z" fill="#0071BC"/>
<path d="M76.7912 144.063C79.5273 144.063 81.7454 142.981 81.7454 141.645C81.7454 140.31 79.5273 139.227 76.7912 139.227C74.055 139.227 71.8369 140.31 71.8369 141.645C71.8369 142.981 74.055 144.063 76.7912 144.063Z" fill="#0071BC"/>
<path d="M92.2838 137.505C100.947 137.505 107.97 134.076 107.97 129.847C107.97 125.618 100.947 122.189 92.2838 122.189C83.6205 122.189 76.5976 125.618 76.5976 129.847C76.5976 134.076 83.6205 137.505 92.2838 137.505Z" fill="#0071BC"/>
<path d="M92.1591 144.765C94.8953 144.765 97.1134 143.683 97.1134 142.347C97.1134 141.012 94.8953 139.929 92.1591 139.929C89.423 139.929 87.2049 141.012 87.2049 142.347C87.2049 143.683 89.423 144.765 92.1591 144.765Z" fill="#0071BC"/>
<path d="M100.588 8.80954C101.493 10.3221 103.272 13.3208 104.673 17.5073C105.565 20.1682 106.566 24.0856 106.75 28.9743C108.6 28.4165 110.611 27.8883 112.77 27.4289C114.342 27.0975 115.851 26.8285 117.288 26.6153C116.96 24.6861 116.405 22.1827 115.405 19.3545C114.253 16.0998 113.049 13.9311 111.369 10.9356C108.702 6.1815 106.815 4.49837 105.28 2.8579C103.324 0.767931 99.9743 0.879483 98.1797 3.10725C97.9172 3.43534 97.6481 3.77328 97.3824 4.11778C98.4684 5.52531 99.5511 7.08376 100.588 8.80954Z" fill="#CCCCCC" fill-opacity="0.2"/>
<path d="M178.192 62.7416C178.051 61.7606 177.861 60.7468 177.618 59.7035C176.67 55.6351 175.164 52.3706 173.812 49.9952C173.389 49.2537 173.189 48.4039 173.231 47.5509C173.556 41.0152 173.169 31.0969 169.196 19.9843C167.358 14.8431 165.121 10.4761 162.923 6.89005C161.417 4.43261 158.027 3.99297 155.947 5.9845C155.298 6.6046 154.642 7.25751 153.979 7.94323C155.554 10.8436 157.089 14.1508 158.415 17.8583C162.388 28.9708 162.778 38.8859 162.45 45.4248C162.408 46.2778 162.608 47.1243 163.031 47.8691C164.379 50.2412 165.885 53.5091 166.837 57.5774C167.08 58.6175 167.267 59.6313 167.411 60.6156C168.32 66.9019 167.099 73.3129 163.999 78.8577C160.738 84.6912 155.235 92.326 146.305 98.773C141.829 102.005 137.331 104.331 133.105 106.011C126.114 108.786 118.653 109.886 111.313 109.298C121.898 112.697 133.424 112.3 143.89 108.143C148.112 106.467 152.611 104.137 157.089 100.906C166.02 94.4586 171.519 86.8238 174.783 80.9903C177.88 75.4356 179.101 69.0247 178.192 62.7416Z" fill="#CCCCCC" fill-opacity="0.2"/>
<path d="M88.619 38.5249C89.1046 33.3082 90.581 25.2567 95.3876 16.8279C96.8837 14.2065 98.4815 11.9295 100.05 9.97732C101.106 8.65838 103.147 8.74368 104.089 10.1446C105.139 11.7064 106.208 13.547 107.173 15.6796C109.315 20.4304 110.073 24.7449 110.352 27.7469C107.34 28.3605 103.432 29.4629 99.1639 31.5332C94.5444 33.774 91.0469 36.3988 88.619 38.5249Z" fill="#0071BC"/>
<path d="M87.2607 38.4002C88.0022 30.4144 90.3382 22.9305 94.2031 16.1521C95.6008 13.7012 97.2118 11.3357 98.9868 9.1243C99.7676 8.15314 100.926 7.6249 102.173 7.6774C103.416 7.7299 104.528 8.34999 105.221 9.38349C106.441 11.1979 107.517 13.1303 108.416 15.1186C110.198 19.0689 111.307 23.275 111.71 27.619L111.825 28.8362L110.628 29.0823C106.868 29.8501 103.213 31.087 99.7644 32.757C96.0635 34.5517 92.6185 36.8352 89.5212 39.5485L86.949 41.8026L87.2607 38.4002ZM105.929 16.2407C105.093 14.3902 104.095 12.5955 102.957 10.9059C102.753 10.6007 102.425 10.4203 102.058 10.4039C101.687 10.3875 101.346 10.5449 101.113 10.8304C99.4264 12.9302 97.9008 15.1744 96.572 17.5006C93.442 22.9896 91.3684 28.9708 90.3874 35.3194C92.9433 33.3836 95.6829 31.7005 98.5701 30.2995C101.851 28.7083 105.309 27.4911 108.862 26.6708C108.41 23.0552 107.422 19.5512 105.929 16.2407Z" fill="#35353B"/>
<path d="M92.7398 35.29C93.3895 31.3824 94.82 25.831 98.2092 19.9614C100.001 16.8576 101.949 14.3444 103.721 12.3726C104.974 13.8621 106.556 16.0702 107.813 19.0263C109.348 22.6255 109.778 25.8605 109.889 28.0063C107.757 28.5706 105.447 29.2957 103.016 30.2373C98.9999 31.7925 95.5713 33.5773 92.7398 35.29Z" fill="#00328B"/>
<path d="M155.99 102.362L156.43 102.057C156.751 101.834 157.073 101.608 157.384 101.381C159.497 99.8557 161.532 98.1792 163.431 96.3976L162.91 95.8169C159.022 99.1831 155.931 101.034 155.901 101.05L155.632 101.211L155.734 101.519L155.99 102.362Z" fill="#35353B"/>
<path d="M99.3542 79.0447C98.3568 84.3336 101.769 88.8613 105.411 89.3961C109.348 89.9768 114.306 86.0036 114.184 80.0913C113.397 80.2324 111.907 80.38 110.214 79.796C108.456 79.189 107.393 78.1063 106.835 77.5223C106.116 76.771 105.647 76.036 105.352 75.5078C105.178 76.0032 104.696 77.1548 103.508 78.044C101.736 79.3761 99.7512 79.107 99.3542 79.0447Z" fill="#35353B"/>
<path d="M105.211 90.748C103.167 90.4461 101.192 89.1469 99.7906 87.1816C98.1009 84.8095 97.4546 81.7516 98.0123 78.7922L98.2584 77.4929L99.5642 77.6964C99.9776 77.762 101.431 77.8998 102.691 76.9549C103.485 76.3577 103.875 75.5933 104.066 75.0585L105.076 72.1909L106.549 74.8518C106.9 75.485 107.327 76.0657 107.822 76.5841C108.295 77.0795 109.177 77.9982 110.66 78.51C111.966 78.9628 113.167 78.8906 113.948 78.7528L115.516 78.4739L115.549 80.0685C115.615 83.3265 114.292 86.3974 111.914 88.4907C110.217 89.9835 108.134 90.8202 106.172 90.8202C105.847 90.8169 105.526 90.7972 105.211 90.748ZM109.768 81.0889C107.662 80.3605 106.392 79.035 105.851 78.4707C105.719 78.3329 105.591 78.1951 105.47 78.0507C105.158 78.428 104.784 78.7988 104.331 79.14C103.019 80.1275 101.621 80.4195 100.558 80.4688C100.466 82.3192 100.975 84.1401 102.018 85.6034C102.99 86.965 104.299 87.8575 105.614 88.051C107.048 88.261 108.731 87.6639 110.112 86.4434C111.527 85.1966 112.442 83.4774 112.727 81.5843C111.714 81.581 110.713 81.4137 109.768 81.0889Z" fill="#35353B"/>
<path d="M103.282 87.9656C105.198 89.2321 107.668 89.3108 109.63 88.1658C111.697 86.9584 112.849 84.6027 112.544 82.1977C112.032 82.0829 109.364 81.535 106.72 83.1853C104.085 84.829 103.403 87.4538 103.282 87.9656Z" fill="#F0835C"/>
<path d="M105.211 90.748C103.167 90.4461 101.192 89.1469 99.7906 87.1816C98.1009 84.8095 97.4546 81.7516 98.0123 78.7922L98.2584 77.4929L99.5642 77.6964C99.9776 77.762 101.431 77.8998 102.691 76.9549C103.485 76.3577 103.875 75.5933 104.066 75.0585L105.076 72.1909L106.549 74.8518C106.9 75.485 107.327 76.0657 107.822 76.5841C108.295 77.0795 109.177 77.9982 110.66 78.51C111.966 78.9628 113.167 78.8906 113.948 78.7528L115.516 78.4739L115.549 80.0685C115.615 83.3265 114.292 86.3974 111.914 88.4907C110.217 89.9835 108.134 90.8202 106.172 90.8202C105.847 90.8169 105.526 90.7972 105.211 90.748ZM109.768 81.0889C107.662 80.3605 106.392 79.035 105.851 78.4707C105.719 78.3329 105.591 78.1951 105.47 78.0507C105.158 78.428 104.784 78.7988 104.331 79.14C103.019 80.1275 101.621 80.4195 100.558 80.4688C100.466 82.3192 100.975 84.1401 102.018 85.6034C102.99 86.965 104.299 87.8575 105.614 88.051C107.048 88.261 108.731 87.6639 110.112 86.4434C111.527 85.1966 112.442 83.4774 112.727 81.5843C111.714 81.581 110.713 81.4137 109.768 81.0889Z" fill="#35353B"/>
<path d="M97.5169 69.5726C97.0116 71.7709 101.093 75.6883 105.326 75.6129C109.253 75.5407 113.095 72.0366 112.662 69.8777C112.157 67.3744 105.978 67.0463 105.536 67.0266C102.908 66.9085 98.0123 67.4203 97.5169 69.5726Z" fill="#35353B"/>
<path d="M105.03 75.8556C105.129 75.8589 105.23 75.8589 105.332 75.8556C108.173 75.8031 110.795 74.0478 112.029 72.4369C112.737 71.5084 113.046 70.5831 112.891 69.8252C112.357 67.1644 106.244 66.8133 105.549 66.7805C103.449 66.6854 97.8745 66.9938 97.2938 69.5135C97.1101 70.3043 97.4414 71.3017 98.2223 72.3155C99.515 74.0019 102.169 75.7867 105.03 75.8556ZM105.184 67.2563C105.299 67.2595 105.411 67.2628 105.522 67.2694C107.747 67.3711 112.052 68.0535 112.429 69.927C112.553 70.5372 112.278 71.3214 111.658 72.135C110.49 73.6607 108.009 75.3208 105.319 75.37C102.504 75.4225 99.8529 73.6672 98.5799 72.0136C97.9008 71.1311 97.5956 70.2616 97.74 69.6284C98.1534 67.8468 102.228 67.1841 105.184 67.2563Z" fill="#35353B"/>
<path d="M102.412 69.2084C101.021 69.1657 99.8989 68.8705 99.9087 68.5424C99.9186 68.2176 101.054 67.9846 102.448 68.0273C103.843 68.0699 104.961 68.3652 104.952 68.6933C104.938 69.0181 103.803 69.2478 102.412 69.2084Z" fill="white"/>
<path d="M81.2795 48.9321C83.9042 44.9326 87.0638 41.4286 90.6728 38.5118C105.099 26.8579 123.076 27.6486 130.136 28.5279L130.474 25.8211C124.926 25.1288 119.125 25.1747 113.695 25.9523C104.167 27.3172 95.8436 30.8278 88.9569 36.3923C85.1248 39.4862 81.7749 43.2036 78.9959 47.4393L81.2795 48.9321Z" fill="#35353B"/>
<path d="M74.3731 53.7157C79.1928 74.5924 84.0158 95.4658 88.8355 116.342C88.8716 116.503 88.8815 116.671 88.8618 116.835L87.4018 128.334C87.2311 129.68 85.4398 130.027 84.7803 128.843L79.3044 119.026C79.2388 118.911 79.1928 118.784 79.16 118.656L64.8879 56.2256C64.6123 55.015 65.0716 53.7518 66.069 53.007C66.7679 52.4854 67.6898 51.9637 68.8447 51.6487C69.8979 51.36 70.8691 51.3206 71.686 51.3862C72.9951 51.4945 74.0778 52.4394 74.3731 53.7157Z" fill="#0071BC"/>
<path d="M83.5893 129.506L78.1134 119.689C77.9854 119.459 77.8903 119.213 77.8312 118.957L63.5591 56.5276C63.1621 54.7886 63.8281 52.9776 65.2553 51.9113C66.233 51.1796 67.3223 50.6481 68.4871 50.3298C69.5632 50.0378 70.6787 49.9328 71.8008 50.0247C73.7038 50.1789 75.2721 51.5372 75.7052 53.4041L90.1676 116.031C90.2398 116.349 90.2562 116.677 90.2168 117.002L88.7568 128.502C88.6026 129.709 87.7331 130.641 86.5356 130.874C86.3518 130.91 86.1681 130.926 85.9876 130.926C84.9968 130.93 84.0913 130.405 83.5893 129.506ZM69.2056 52.9644C68.3689 53.1908 67.5914 53.5747 66.8892 54.0997C66.3282 54.5196 66.0657 55.2349 66.2199 55.9206L80.4921 118.35C80.4921 118.354 80.4953 118.357 80.4953 118.36L85.9712 128.177C85.9778 128.19 85.9844 128.197 85.9844 128.197C86.0008 128.2 86.0336 128.193 86.0401 128.19C86.0401 128.19 86.0434 128.183 86.0467 128.161L87.5067 116.661C87.5067 116.658 87.5067 116.651 87.5067 116.648L73.0443 54.0209C72.8803 53.3155 72.293 52.8037 71.5777 52.7446C71.3874 52.7282 71.1971 52.7217 71.0101 52.7217C70.3999 52.7249 69.7929 52.807 69.2056 52.9644Z" fill="#35353B"/>
<path d="M87.6511 125.887C87.6511 125.887 85.0066 125.149 83.7041 127.019L79.4422 119.226C79.4422 119.226 83.4416 115.024 88.3368 117.199L87.6511 125.887Z" fill="#0071BC"/>
<path d="M70.5836 51.3732L85.3183 115.873L86.1254 128.538L85.945 129.565L87.6347 128.79L88.7732 114.489L74.524 53.637C74.524 53.6338 73.7825 50.5497 70.5836 51.3732Z" fill="white"/>
<path d="M83.5565 129.453L78.0806 119.637C77.9526 119.407 77.8575 119.161 77.7984 118.905L63.5263 56.4751C63.1293 54.7362 63.7953 52.9251 65.2225 51.8588C66.2002 51.1271 67.2862 50.5956 68.4543 50.2774C69.5304 49.9853 70.6459 49.8804 71.768 49.9722C73.671 50.1264 75.2393 51.4847 75.6723 53.3516L90.1348 115.978C90.2102 116.297 90.2266 116.625 90.184 116.95L88.724 128.449C88.5698 129.657 87.7003 130.588 86.5028 130.821C86.319 130.857 86.1353 130.874 85.9548 130.874C84.964 130.874 84.0585 130.352 83.5565 129.453ZM73.0115 53.9684C72.8474 53.263 72.2602 52.7512 71.5449 52.6921C70.7411 52.6265 69.9438 52.6987 69.1728 52.912C68.3361 53.1383 67.5586 53.5222 66.8564 54.0472C66.2954 54.4671 66.0329 55.1824 66.1871 55.8681L80.4592 118.298C80.4592 118.301 80.4625 118.305 80.4625 118.308L85.9384 128.124C85.945 128.138 85.9516 128.144 85.9516 128.144C85.968 128.147 86.0008 128.141 86.0073 128.138C86.0073 128.138 86.0106 128.131 86.0139 128.108L87.4739 116.612C87.4739 116.608 87.4739 116.602 87.4739 116.598L73.0115 53.9684Z" fill="#35353B"/>
<path d="M80.2591 119.722C80.7775 119.095 81.9225 117.97 83.7304 117.475C85.8531 116.894 87.6609 117.534 88.3401 117.836L89.4491 115.342C88.2745 114.82 85.8728 114.062 83.0118 114.843C80.4789 115.536 78.8844 117.107 78.1593 117.98L80.2591 119.722Z" fill="#35353B"/>
<path d="M67.575 52.1113L82.1981 117.458L86.1353 128.492L86.0303 129.758L83.1791 126.297L79.1206 119.843L64.4941 55.1757C64.4941 55.1757 65.2848 52.8036 67.575 52.1113Z" fill="#35353B"/>
<path d="M84.462 107.208C88.1268 105.657 90.581 102.103 90.5547 98.1235C90.5318 94.7803 89.1177 91.6043 86.5913 89.6685C82.1161 86.2367 75.5116 87.7262 72.0895 91.1023C70.0127 93.1496 69.4025 95.6005 69.1137 96.8177C67.8342 102.228 70.3244 106.811 71.6466 109.243C72.6473 111.08 74.6159 114.115 78.2479 116.894C78.2545 116.192 78.3627 111.726 81.9718 108.724C82.8051 108.029 83.6647 107.546 84.462 107.208Z" fill="white"/>
<path d="M77.4178 117.977C74.4912 115.736 72.1453 113.016 70.4491 109.892C69.7797 108.659 68.7659 106.795 68.0966 104.531C67.2829 101.775 67.178 99.0717 67.7849 96.5027C68.0671 95.3052 68.7331 92.4967 71.1282 90.1311C73.0705 88.215 75.8528 86.883 78.7531 86.4827C81.9849 86.0365 85.0624 86.7813 87.4149 88.5891C90.2037 90.7282 91.8868 94.2913 91.913 98.1202C91.9426 102.618 89.2259 106.68 84.9902 108.472C84.2061 108.803 83.4843 109.243 82.8412 109.777C79.8752 112.245 79.616 115.86 79.6095 116.91L79.5865 119.643L77.4178 117.977ZM73.0476 92.0701C71.2102 93.8845 70.6918 96.0729 70.4425 97.1261C69.2843 102.028 71.6007 106.296 72.8474 108.586C73.9826 110.673 75.4427 112.56 77.2045 114.217C77.6475 112.245 78.6842 109.682 81.1023 107.671C81.9521 106.966 82.9035 106.385 83.9338 105.952C87.1524 104.59 89.2161 101.523 89.1931 98.1301C89.1734 95.1378 87.8906 92.3785 85.7645 90.7479C84.2487 89.5832 82.418 89.0779 80.5675 89.0779C77.7459 89.0812 74.8882 90.2558 73.0476 92.0701Z" fill="#35353B"/>
<path d="M87.9234 89.2747C87.9037 89.2747 87.8906 89.2747 87.8808 89.2747H87.8447L87.779 89.2779C87.7364 89.2812 87.6937 89.2845 87.6544 89.2878C87.5723 89.2943 87.4903 89.3009 87.4116 89.3107C87.2508 89.3271 87.0933 89.3468 86.9391 89.3731C86.6274 89.419 86.319 89.4814 86.0172 89.5503C85.4102 89.6913 84.8229 89.8751 84.2553 90.1015C83.6877 90.3278 83.1431 90.6002 82.6312 90.9151C82.1194 91.2301 81.647 91.5943 81.2204 91.9913C81.7454 91.7387 82.2867 91.5352 82.8379 91.3974C83.3891 91.2564 83.9436 91.1678 84.4981 91.1251C85.0526 91.0825 85.6071 91.0825 86.1517 91.1251C86.424 91.1448 86.6931 91.1776 86.9588 91.217C87.09 91.2367 87.2213 91.2596 87.3525 91.2859C87.4181 91.299 87.4805 91.3121 87.5428 91.3253C87.5723 91.3318 87.6052 91.3384 87.6314 91.3482L87.6741 91.3581C87.6806 91.3613 87.6872 91.3613 87.6937 91.3646C87.7003 91.3679 87.7069 91.3679 87.7036 91.3712L87.9234 89.2747Z" fill="#35353B"/>
<path d="M89.846 94.6455C89.8264 94.6455 89.8132 94.6455 89.8034 94.6455H89.7673L89.7017 94.6488C89.659 94.6521 89.6164 94.6554 89.577 94.6586C89.495 94.6652 89.413 94.6718 89.3342 94.6816C89.1734 94.698 89.016 94.7177 88.8618 94.7439C88.5501 94.7899 88.2417 94.8522 87.9398 94.9211C87.3328 95.0622 86.7455 95.2459 86.1779 95.4723C85.6103 95.6987 85.0657 95.971 84.5539 96.286C84.042 96.601 83.5696 96.9651 83.1431 97.3621C83.668 97.1095 84.2094 96.9061 84.7606 96.7683C85.3118 96.6272 85.8663 96.5386 86.4207 96.496C86.9752 96.4533 87.5297 96.4533 88.0743 96.496C88.3467 96.5156 88.6157 96.5485 88.8814 96.5878C89.0127 96.6075 89.1439 96.6305 89.2752 96.6567C89.3408 96.6699 89.4031 96.683 89.4655 96.6961C89.495 96.7027 89.5278 96.7092 89.554 96.7191L89.5967 96.7289C89.6033 96.7322 89.6098 96.7322 89.6164 96.7355C89.6229 96.7388 89.6295 96.7387 89.6262 96.742L89.846 94.6455Z" fill="#35353B"/>
<path d="M89.3342 95.9973C89.3342 95.9973 89.8592 100.932 81.3615 102.29C72.8606 103.648 68.4182 100.614 72.2339 92.4768C72.2339 92.4768 61.4822 104.226 78.8155 117.563C78.8155 117.563 77.1881 111.418 84.5211 107.051C91.8474 102.681 89.3342 95.9973 89.3342 95.9973Z" fill="#CCCCCC" fill-opacity="0.3"/>
<path d="M135.996 110.729C136.288 110.657 136.577 110.591 136.855 110.532C136.577 110.601 136.291 110.666 135.996 110.729Z" fill="white"/>
<path d="M136.288 112.061C136.593 111.995 136.892 111.926 137.17 111.857L136.567 109.197C136.275 109.259 135.973 109.328 135.671 109.403L136.288 112.061Z" fill="#35353B"/>
<path d="M87.4247 110.457C87.7265 111.835 88.1531 113.715 88.7141 115.995C88.7896 116.303 88.8125 116.625 88.7797 116.94C88.7174 117.534 88.6583 118.127 88.596 118.721C90.0035 118.771 91.8737 118.659 93.9472 118.026C94.8659 117.744 96.3358 117.281 97.95 116.149C99.8201 114.837 100.959 113.275 101.615 112.173C105.102 113.961 109.86 115.913 115.726 117.005C118.758 117.573 121.543 117.809 123.991 117.862C125.136 116.444 126.898 114.623 129.447 113.183C132.843 111.267 136.189 110.686 135.996 110.729C132.528 111.49 127.961 112.071 122.665 111.625C119.913 111.392 117.452 110.923 115.336 110.378C111.307 109.344 106.015 107.533 100.365 104.22C96.2865 101.828 93.0384 99.2489 90.5514 96.9719C90.6466 97.8512 90.7024 99.4359 90.0724 101.257C89.8788 101.821 89.2752 103.567 87.8906 104.843C87.6216 105.092 86.4863 106.09 86.4863 106.09C86.4863 106.09 87.0835 108.898 87.4247 110.457Z" fill="white"/>
<path d="M88.5468 120.083L87.0868 120.03L87.4214 116.795C87.4378 116.635 87.428 116.474 87.3886 116.316C86.9227 114.42 86.4863 112.547 86.0926 110.742C85.7547 109.197 85.1608 106.395 85.1543 106.369L84.9902 105.588L85.5874 105.059C85.8991 104.784 86.7554 104.029 86.9686 103.832C88.1039 102.789 88.6157 101.296 88.7863 100.804C89.1899 99.6328 89.3342 98.3565 89.1997 97.113L88.8093 93.5171L91.4767 95.9581C94.4131 98.6452 97.635 101.027 101.057 103.035C105.614 105.706 110.532 107.73 115.677 109.049C118.003 109.65 120.395 110.056 122.78 110.256C126.881 110.604 131.029 110.352 135.113 109.515C135.117 109.515 135.123 109.512 135.126 109.512C135.852 109.341 136.288 109.236 136.813 109.62L137.525 110.142L137.344 111.005C137.233 111.529 136.823 111.943 136.294 112.058C136.114 112.097 135.93 112.136 135.75 112.173C134.782 112.402 132.459 113.049 130.126 114.368C128.227 115.44 126.524 116.904 125.06 118.715L124.641 119.236L123.971 119.22C121.127 119.154 118.272 118.859 115.487 118.341C110.867 117.478 106.372 115.995 102.104 113.928C101.169 115.23 100.043 116.349 98.7473 117.258C96.923 118.538 95.2563 119.046 94.3606 119.322C92.6939 119.83 90.9648 120.089 89.203 120.089C88.9733 120.096 88.76 120.09 88.5468 120.083ZM102.235 110.955C106.595 113.19 111.215 114.774 115.976 115.663C118.403 116.116 120.887 116.392 123.368 116.48C124.467 115.204 125.677 114.085 126.986 113.144C125.503 113.163 124.024 113.111 122.551 112.986C120.011 112.773 117.472 112.34 114.998 111.7C109.607 110.319 104.453 108.196 99.6758 105.397C96.9198 103.78 94.2884 101.936 91.8212 99.8887C91.7195 100.506 91.5653 101.116 91.3618 101.703C91.1387 102.356 90.453 104.338 88.8125 105.847C88.6682 105.978 88.3073 106.3 87.9857 106.588C88.1859 107.537 88.5271 109.134 88.7535 110.168C89.1406 111.946 89.5737 113.797 90.0331 115.67C90.1479 116.133 90.1807 116.608 90.1315 117.081L90.1052 117.34C91.2765 117.268 92.4281 117.061 93.5437 116.72C94.3475 116.474 95.6927 116.06 97.1626 115.03C98.4848 114.102 99.5872 112.908 100.437 111.474L101.093 110.371L102.235 110.955Z" fill="#35353B"/>
<path d="M98.1928 117.622C99.1049 116.969 99.9022 116.162 100.568 115.263C101.238 114.367 101.749 113.37 102.13 112.376C102.225 112.127 102.314 111.877 102.396 111.631L102.517 111.26L102.632 110.89C102.786 110.384 102.911 109.873 103.009 109.357C103.111 108.842 103.177 108.324 103.222 107.806C103.262 107.287 103.282 106.769 103.255 106.247C103.035 106.716 102.825 107.182 102.602 107.635C102.383 108.091 102.15 108.534 101.917 108.97C101.68 109.407 101.434 109.833 101.182 110.25L100.791 110.886C100.66 111.093 100.532 111.303 100.401 111.503C99.8792 112.307 99.305 113.026 98.6751 113.675C98.0451 114.321 97.343 114.889 96.6147 115.404L98.1928 117.622Z" fill="#35353B"/>
<path d="M88.3171 127.54C88.3171 127.54 109.837 116.159 130.73 135.024C130.73 135.024 110.759 121.313 133.922 111.132C130.156 111.605 125.428 111.792 120.077 111.044C107.888 109.341 99.1574 103.711 94.6329 100.25C95.9453 103.006 95.5746 106.204 93.6979 108.357C91.5357 110.84 88.3729 110.788 87.93 110.775C88.2154 112.048 88.5009 113.321 88.7863 114.594L88.3171 127.54Z" fill="#CCCCCC" fill-opacity="0.3"/>
<path d="M170.941 87.7163C170.941 87.7163 163.047 109.18 187.53 98.8912C187.53 98.8912 175.994 107.353 178.72 124.328C178.72 124.328 171.679 124.781 170.249 129.847L162.47 128.492C162.47 128.492 164.435 116.136 153.956 103.107C153.956 103.107 162.385 98.3728 170.941 87.7163Z" fill="#CCCCCC" fill-opacity="0.2"/>
<path d="M164.74 43.8074C165.538 44.3946 166.669 43.8336 166.676 42.8428C166.719 37.5703 166.056 30.3883 163.074 22.5501C162.024 19.7974 160.836 17.3432 159.625 15.1909C158.772 13.6718 156.679 13.4454 155.508 14.7381C154.228 16.1489 152.916 17.75 151.62 19.5513C148.765 23.5245 146.826 27.3534 145.498 30.5687C145.258 31.1494 145.498 31.8188 146.055 32.1108C149.061 33.6889 152.214 35.477 155.468 37.5079C158.831 39.6077 161.922 41.7305 164.74 43.8074Z" fill="#0071BC"/>
<path d="M161.991 42.7641C162.198 38.5448 161.932 32.0977 159.212 24.9584C157.991 21.7496 156.525 19.0625 155.124 16.8938C153.575 18.4063 151.872 20.2929 150.212 22.6027C147.725 26.0673 146.121 29.3942 145.074 32.0748C147.663 33.4068 150.399 34.9456 153.237 36.714C156.476 38.7384 159.392 40.7824 161.991 42.7641Z" fill="#00328B"/>
<path d="M163.93 44.9063C160.961 42.718 157.87 40.6181 154.743 38.666C151.718 36.7762 148.578 34.9782 145.419 33.318C144.231 32.6947 143.719 31.2871 144.234 30.0469C145.888 26.0507 148.001 22.2547 150.511 18.7572C151.738 17.0478 153.08 15.3876 154.494 13.8226C155.34 12.8908 156.59 12.4151 157.84 12.5562C159.104 12.6973 160.186 13.4158 160.81 14.5215C162.171 16.9428 163.362 19.479 164.343 22.0644C166.85 28.6525 168.093 35.6475 168.034 42.8558C168.028 43.8302 167.48 44.7062 166.61 45.1393C166.243 45.323 165.849 45.4149 165.456 45.4149C164.921 45.4116 164.386 45.241 163.93 44.9063ZM156.518 15.6534C155.173 17.1397 153.897 18.7178 152.729 20.3452C150.366 23.636 148.375 27.2056 146.81 30.9623C149.989 32.6356 153.145 34.4467 156.19 36.3463C159.294 38.2854 162.362 40.3655 165.314 42.5309C165.334 35.7689 164.153 29.2103 161.801 23.029C160.865 20.5715 159.734 18.1568 158.438 15.8535C158.251 15.5189 157.922 15.3023 157.542 15.2597C157.496 15.2531 157.45 15.2531 157.404 15.2531C157.066 15.2597 156.748 15.4008 156.518 15.6534Z" fill="#35353B"/>
</g>
<defs>
<filter id="filter0_d_520_15286" x="0" y="0" width="251.348" height="165" filterUnits="userSpaceOnUse" color-interpolation-filters="sRGB">
<feFlood flood-opacity="0" result="BackgroundImageFix"/>
<feColorMatrix in="SourceAlpha" type="matrix" values="0 0 0 0 0 0 0 0 0 0 0 0 0 0 0 0 0 0 127 0" result="hardAlpha"/>
<feOffset dy="4"/>
<feGaussianBlur stdDeviation="2"/>
<feComposite in2="hardAlpha" operator="out"/>
<feColorMatrix type="matrix" values="0 0 0 0 0 0 0 0 0 0 0 0 0 0 0 0 0 0 0.25 0"/>
<feBlend mode="normal" in2="BackgroundImageFix" result="effect1_dropShadow_520_15286"/>
<feBlend mode="normal" in="SourceGraphic" in2="effect1_dropShadow_520_15286" result="shape"/>
</filter>
<clipPath id="clip0_520_15286">
<rect width="243.348" height="157" fill="white" transform="translate(4)"/>
</clipPath>
</defs>
</svg>
