<svg width="19" height="20" viewBox="0 0 19 20" fill="none" xmlns="http://www.w3.org/2000/svg">
  <path
    d="M1 3.72728H6.02759M6.02759 3.72728V2.2C6.02759 1.53726 6.56353 1 7.22463 1H11.534C12.1951 1 12.731 1.53726 12.731 2.2V3.72728M6.02759 3.72728H12.731M17.7586 3.72728H12.731M2.67586 5.90909V14.6363C2.67586 16.6934 2.67586 17.7219 3.33032 18.361C3.98479 19 5.03813 19 7.14479 19H11.6138C13.7205 19 14.7738 19 15.4283 18.361C16.0828 17.7219 16.0828 16.6934 16.0828 14.6363V5.90909M6.02759 8.09092V14.6363M9.37931 8.09092V14.6363M12.731 8.09092V14.6363"
    stroke="red"
    stroke-linecap="round"
    stroke-linejoin="round"
  />
</svg>