<?xml version="1.0" encoding="UTF-8"?>
<svg width="24" height="24" viewBox="0 0 24 24" fill="white" xmlns="http://www.w3.org/2000/svg">
  <path fill-rule="evenodd" clip-rule="evenodd" d="M20.463 3.488C18.217 1.24 15.231 0 12.05 0 5.495 0 .16 5.334.157 11.892c0 2.096.548 4.142 1.588 5.945L0 24l6.304-1.654a11.881 11.881 0 005.737 1.46h.005c6.554 0 11.89-5.335 11.894-11.894 0-3.18-1.237-6.165-3.477-8.424zM12.05 21.785h-.004a9.866 9.866 0 01-5.031-1.378l-.36-.214-3.74.981.998-3.648-.235-.374a9.88 9.88 0 01-1.51-5.26c0-5.45 4.437-9.885 9.891-9.885 2.641 0 5.124 1.03 6.991 2.898a9.825 9.825 0 012.895 6.987c-.004 5.45-4.44 9.893-9.886 9.893zm5.42-7.403c-.298-.149-1.759-.868-2.031-.967-.273-.099-.472-.149-.67.15-.2.297-.771.966-.945 1.164-.174.198-.348.223-.645.074-.298-.149-1.255-.463-2.39-1.475-.883-.788-1.48-1.761-1.653-2.059-.174-.297-.019-.458.13-.606.134-.133.298-.347.446-.521.149-.174.198-.298.298-.496.099-.198.05-.372-.025-.521-.074-.149-.67-1.612-.916-2.207-.241-.579-.486-.5-.67-.51-.174-.008-.372-.01-.571-.01-.198 0-.521.074-.794.372-.273.297-1.042.868-1.042 2.33 0 1.463 1.066 2.877 1.214 3.075.149.198 2.096 3.2 5.077 4.487.71.306 1.263.489 1.694.625.712.227 1.36.195 1.872.118.571-.085 1.758-.719 2.006-1.413.248-.694.248-1.289.174-1.413-.074-.124-.273-.198-.57-.347z"/>
</svg>
