<svg width="112" height="112" viewBox="0 0 112 112" fill="none" xmlns="http://www.w3.org/2000/svg">
<circle cx="56" cy="56" r="56" fill="#756958"/>
<path d="M62.1251 72.916C60.3751 72.916 58.6751 72.3645 57.0251 71.2616C55.4001 70.1837 54.0126 68.3789 52.8626 65.8472C52.3626 64.7192 51.9501 63.5787 51.6251 62.4256C51.3251 61.2725 51.1001 60.1947 50.9501 59.192C50.8001 58.1893 50.7251 57.3621 50.7251 56.7104C50.7251 55.9083 50.8126 55.4571 50.9876 55.3568C51.4626 55.4069 52.2501 55.2064 53.3501 54.7552C54.4751 54.304 55.8001 53.6397 57.3251 52.7624C58.8751 51.8851 60.5376 50.8323 62.3126 49.604C64.1126 48.3507 65.9126 46.9469 67.7126 45.3928C69.5376 43.8387 71.2876 42.1592 72.9626 40.3544C74.6376 38.5496 76.1126 36.6571 77.3876 34.6768C77.5626 34.4011 77.7001 34.2005 77.8001 34.0752C77.9001 33.9499 78.0001 33.8872 78.1001 33.8872C78.2251 33.8872 78.3376 33.9499 78.4376 34.0752C78.5376 34.1755 78.5876 34.2883 78.5876 34.4136C78.5876 34.6141 78.5001 34.8523 78.3251 35.128C77.1251 37.1333 75.7001 39.1011 74.0501 41.0312C72.4251 42.9363 70.6876 44.7285 68.8376 46.408C66.9876 48.0875 65.1251 49.604 63.2501 50.9576C61.3751 52.3112 59.5876 53.4392 57.8876 54.3416C56.1876 55.244 54.6876 55.8581 53.3876 56.184C53.3126 56.1339 53.2751 56.2592 53.2751 56.56C53.2751 56.9861 53.3626 57.6755 53.5376 58.628C53.7126 59.5555 53.9751 60.6208 54.3251 61.824C54.7001 63.0021 55.1501 64.2053 55.6751 65.4336C56.6251 67.6645 57.7376 69.1936 59.0126 70.0208C60.3126 70.8731 61.6501 71.2992 63.0251 71.2992C63.9001 71.2992 64.8001 71.1237 65.7251 70.7728C66.6501 70.4219 67.5001 69.9331 68.2751 69.3064C69.0501 68.7048 69.6501 67.9904 70.0751 67.1632C70.2251 66.9125 70.3376 66.7872 70.4126 66.7872C70.5876 66.7872 70.6751 66.8875 70.6751 67.088C70.6751 67.1632 70.6501 67.2384 70.6001 67.3136C70.5751 67.4139 70.5001 67.6019 70.3751 67.8776C70.0251 68.5795 69.4376 69.3189 68.6126 70.096C67.8126 70.8981 66.8501 71.5624 65.7251 72.0888C64.6251 72.6403 63.4251 72.916 62.1251 72.916ZM30.2876 72.4272C28.5876 72.4272 26.9376 72.1891 25.3376 71.7128C23.7626 71.2616 22.3376 70.5848 21.0626 69.6824C19.8126 68.78 18.8126 67.6771 18.0626 66.3736C17.3376 65.0701 16.9751 63.5912 16.9751 61.9368C16.9751 60.7336 17.1501 59.6683 17.5001 58.7408C17.8751 57.7883 18.3251 56.9987 18.8501 56.372C19.4001 55.7453 19.9376 55.2691 20.4626 54.9432C21.0126 54.6173 21.4626 54.4544 21.8126 54.4544C22.0626 54.4544 22.1876 54.5296 22.1876 54.68C22.1876 54.8053 22.1251 54.9056 22.0001 54.9808C21.4251 55.2816 20.8376 55.7203 20.2376 56.2968C19.6376 56.8733 19.1376 57.6253 18.7376 58.5528C18.3376 59.4803 18.1376 60.6333 18.1376 62.012C18.1376 63.516 18.4501 64.8069 19.0751 65.8848C19.7251 66.9376 20.5626 67.8024 21.5876 68.4792C22.6376 69.156 23.7626 69.6448 24.9626 69.9456C26.1626 70.2715 27.3126 70.4344 28.4126 70.4344C30.8626 70.4344 33.1501 69.9581 35.2751 69.0056C37.4001 68.0531 39.3376 66.7872 41.0876 65.208C42.8626 63.6037 44.4251 61.824 45.7751 59.8688C47.1251 57.9136 48.2376 55.9333 49.1126 53.928C49.4376 53.2011 49.8251 52.3363 50.2751 51.3336C50.7251 50.3059 51.2126 49.2155 51.7376 48.0624C52.2626 46.9093 52.7751 45.7813 53.2751 44.6784C53.7751 43.5755 54.2251 42.5853 54.6251 41.708C55.0501 40.8056 55.3876 40.1163 55.6376 39.64C53.9626 39.8405 52.1501 40.0285 50.2001 40.204C48.2751 40.3544 46.4376 40.6803 44.6876 41.1816C42.7376 41.7331 41.1376 42.5352 39.8876 43.588C38.6626 44.6408 37.7501 45.7813 37.1501 47.0096C36.5751 48.2379 36.2876 49.3909 36.2876 50.4688C36.2876 51.7723 36.6126 52.8501 37.2626 53.7024C37.9126 54.5296 38.8501 54.9432 40.0751 54.9432C41.0001 54.9432 41.8251 54.68 42.5501 54.1536C43.2751 53.6021 43.8501 52.9003 44.2751 52.048C44.7001 51.1707 44.9126 50.2432 44.9126 49.2656C44.9126 48.8645 44.8751 48.5261 44.8001 48.2504C44.7251 47.9747 44.6876 47.7616 44.6876 47.6112C44.6876 47.4357 44.7501 47.348 44.8751 47.348C45.0501 47.348 45.2126 47.4984 45.3626 47.7992C45.6126 48.3757 45.7376 48.9397 45.7376 49.4912C45.7376 50.6693 45.4501 51.7347 44.8751 52.6872C44.3001 53.6147 43.5626 54.3541 42.6626 54.9056C41.7626 55.4571 40.8126 55.7328 39.8126 55.7328C38.6376 55.7328 37.6126 55.4571 36.7376 54.9056C35.8876 54.3291 35.2251 53.5771 34.7501 52.6496C34.2751 51.7221 34.0376 50.7195 34.0376 49.6416C34.0376 48.4133 34.3751 47.1725 35.0501 45.9192C35.7251 44.6408 36.8126 43.4877 38.3126 42.46C39.8126 41.4072 41.7876 40.6051 44.2376 40.0536C46.2876 39.6024 48.3751 39.3141 50.5001 39.1888C52.6251 39.0384 54.5001 38.888 56.1251 38.7376C57.0001 37.384 57.7126 36.5317 58.2626 36.1808C58.8126 35.8048 59.3126 35.6168 59.7626 35.6168C60.2126 35.6168 60.5626 35.7421 60.8126 35.9928C61.0876 36.2435 61.2251 36.5443 61.2251 36.8952C61.2251 37.3965 60.8751 37.9355 60.1751 38.512C59.5001 39.0635 58.3501 39.4269 56.7251 39.6024C55.9251 41.0813 55.1876 42.7357 54.5126 44.5656C53.8376 46.3704 53.1626 48.2629 52.4876 50.2432C51.8126 52.2235 51.0751 54.1912 50.2751 56.1464C48.9251 59.4051 47.3251 62.2627 45.4751 64.7192C43.6251 67.1507 41.4501 69.0432 38.9501 70.3968C36.4501 71.7504 33.5626 72.4272 30.2876 72.4272ZM57.4376 38.6624C58.0626 38.6123 58.6626 38.4368 59.2376 38.136C59.8126 37.8101 60.1001 37.4592 60.1001 37.0832C60.1001 36.8325 59.9751 36.7072 59.7251 36.7072C59.5001 36.7072 59.1876 36.8576 58.7876 37.1584C58.3876 37.4341 57.9376 37.9355 57.4376 38.6624Z" fill="white"/>
<path d="M67.8401 67.509C67.4001 67.509 66.8901 67.4588 66.3101 67.3586C65.7501 67.2784 65.2001 67.128 64.6601 66.9074C64.1401 66.6868 63.7001 66.376 63.3401 65.9749C63.0001 65.5538 62.8301 65.0324 62.8301 64.4107C62.8301 63.6688 63.1601 62.997 63.8201 62.3954C64.4801 61.7737 65.4101 61.4629 66.6101 61.4629C67.4901 61.4629 68.3101 61.6133 69.0701 61.9141C69.8301 62.1948 70.5701 62.5458 71.2901 62.9669C72.0301 63.368 72.7901 63.769 73.5701 64.1701C74.5701 63.2075 75.4801 62.0144 76.3001 60.5906C77.1401 59.1668 77.9701 57.6427 78.7901 56.0184C79.6301 54.374 80.5301 52.7297 81.4901 51.0853C82.4701 49.4409 83.6001 47.8968 84.8801 46.453L86.6201 44.4978C85.8801 44.3775 85.1101 44.2872 84.3101 44.2271C83.5101 44.1468 82.6801 44.1067 81.8201 44.1067C80.6401 44.1067 79.3501 44.207 77.9501 44.4075C76.5701 44.6081 75.1901 44.9189 73.8101 45.34C72.4501 45.7611 71.2001 46.2925 70.0601 46.9343C68.9401 47.576 68.0401 48.338 67.3601 49.2203C66.6801 50.1027 66.3401 51.1154 66.3401 52.2584C66.3401 53.0405 66.5101 53.6621 66.8501 54.1234C67.2101 54.5846 67.6501 54.9255 68.1701 55.1461C68.7101 55.3466 69.2501 55.4469 69.7901 55.4469C70.6901 55.4469 71.4501 55.2464 72.0701 54.8453C72.6901 54.4242 73.1501 53.9429 73.4501 53.4015C73.7701 52.86 73.9301 52.3787 73.9301 51.9576C73.9301 51.8172 74.0301 51.7471 74.2301 51.7471C74.4301 51.7471 74.5301 51.9075 74.5301 52.2283C74.5301 53.0505 74.2801 53.7624 73.7801 54.364C73.2801 54.9656 72.6501 55.4268 71.8901 55.7477C71.1501 56.0685 70.4001 56.229 69.6401 56.229C68.9401 56.229 68.2201 56.0585 67.4801 55.7176C66.7601 55.3767 66.1601 54.8653 65.6801 54.1835C65.2001 53.5017 64.9601 52.6595 64.9601 51.6568C64.9601 50.4536 65.3001 49.3908 65.9801 48.4683C66.6601 47.5258 67.5701 46.7237 68.7101 46.0619C69.8501 45.4002 71.1201 44.8587 72.5201 44.4376C73.9201 43.9964 75.3301 43.6756 76.7501 43.4751C78.1901 43.2745 79.5401 43.1743 80.8001 43.1743C81.9601 43.1743 83.0901 43.2344 84.1901 43.3547C85.3101 43.455 86.3601 43.6154 87.3401 43.836C87.6201 43.5954 87.9001 43.3848 88.1801 43.2043C88.4801 43.0239 88.7501 42.8835 88.9901 42.7832C89.2101 42.6829 89.3901 42.6328 89.5301 42.6328C89.6901 42.6328 89.7701 42.693 89.7701 42.8133C89.7701 42.8735 89.6601 42.9837 89.4401 43.1442C89.1801 43.3447 88.9501 43.5352 88.7501 43.7157C88.5701 43.8761 88.4601 43.9964 88.4201 44.0767C90.4601 44.598 92.1101 45.32 93.3701 46.2424C94.6501 47.1448 95.2901 48.2177 95.2901 49.461C95.2901 50.4837 94.9401 51.3861 94.2401 52.1682C93.5401 52.9302 92.6201 53.5318 91.4801 53.973C90.3601 54.4141 89.1601 54.6648 87.8801 54.725C89.6801 55.3065 91.1101 56.0585 92.1701 56.981C93.2501 57.9034 93.7901 59.0765 93.7901 60.5003C93.7901 61.5632 93.4801 62.5257 92.8601 63.388C92.2601 64.2503 91.4501 64.9923 90.4301 65.6139C89.4301 66.2155 88.3301 66.6768 87.1301 66.9976C85.9301 67.3385 84.7401 67.509 83.5601 67.509C81.7001 67.509 80.0501 67.3185 78.6101 66.9375C77.1901 66.5564 75.7101 66.015 74.1701 65.3131C72.2301 66.777 70.1201 67.509 67.8401 67.509ZM83.1401 66.6367C84.3801 66.6367 85.5101 66.4461 86.5301 66.0651C87.5501 65.6841 88.4301 65.1828 89.1701 64.5611C89.9301 63.9395 90.5101 63.2476 90.9101 62.4856C91.3301 61.7236 91.5401 60.9716 91.5401 60.2296C91.5401 59.5277 91.3301 58.856 90.9101 58.2143C90.4901 57.5525 89.8301 57.001 88.9301 56.5599C87.7701 55.9783 86.7501 55.5772 85.8701 55.3567C84.9901 55.116 84.2901 54.8954 83.7701 54.6949C83.5701 54.5946 83.4401 54.5244 83.3801 54.4843C83.3201 54.4442 83.2901 54.4041 83.2901 54.364C83.2901 54.1635 83.3901 54.0031 83.5901 53.8827C83.7901 53.7624 84.0201 53.7023 84.2801 53.7023C84.6801 53.7023 85.1101 53.7323 85.5701 53.7925C86.0301 53.8527 86.5201 53.8827 87.0401 53.8827C88.3401 53.8827 89.4601 53.622 90.4001 53.1007C91.3401 52.5793 92.0601 51.9275 92.5601 51.1455C93.0801 50.3634 93.3401 49.5913 93.3401 48.8293C93.3401 47.967 92.9601 47.215 92.2001 46.5733C91.4401 45.9115 90.0601 45.32 88.0601 44.7986C87.0601 46.1823 86.0601 47.7364 85.0601 49.461C84.0601 51.1655 83.0601 52.9001 82.0601 54.6648C81.0601 56.4095 80.0501 58.0639 79.0301 59.628C78.0101 61.1922 76.9901 62.5357 75.9701 63.6587C75.7301 63.9194 75.5401 64.12 75.4001 64.2603C75.2601 64.3807 75.0701 64.5511 74.8301 64.7717C76.0301 65.273 77.3501 65.7142 78.7901 66.0952C80.2301 66.4562 81.6801 66.6367 83.1401 66.6367ZM67.2401 66.5765C68.3601 66.6367 69.3801 66.5063 70.3001 66.1855C71.2401 65.8445 72.1101 65.3733 72.9101 64.7717C72.4301 64.5311 71.8201 64.2202 71.0801 63.8392C70.3401 63.4582 69.5901 63.1273 68.8301 62.8466C68.0701 62.5458 67.4101 62.3954 66.8501 62.3954C66.1101 62.3954 65.5501 62.5959 65.1701 62.997C64.7901 63.378 64.6001 63.8192 64.6001 64.3205C64.6001 64.8419 64.8201 65.3432 65.2601 65.8245C65.7001 66.2857 66.3601 66.5364 67.2401 66.5765Z" fill="white"/>
</svg>
