<svg width="102" height="61" viewBox="0 0 102 61" fill="none" xmlns="http://www.w3.org/2000/svg">
<path d="M58.968 50.68C56.7308 50.68 54.5574 49.976 52.448 48.568C50.3705 47.192 48.5967 44.888 47.1265 41.656C46.4873 40.216 45.9599 38.76 45.5444 37.288C45.1609 35.816 44.8732 34.44 44.6815 33.16C44.4897 31.88 44.3938 30.824 44.3938 29.992C44.3938 28.968 44.5057 28.392 44.7294 28.264C45.3367 28.328 46.3434 28.072 47.7497 27.496C49.188 26.92 50.8819 26.072 52.8315 24.952C54.8131 23.832 56.9385 22.488 59.2077 20.92C61.5089 19.32 63.8101 17.528 66.1113 15.544C68.4445 13.56 70.6817 11.416 72.8231 9.11196C74.9645 6.80796 76.8502 4.39196 78.4802 1.86396C78.7039 1.51196 78.8797 1.25596 79.0076 1.09596C79.1354 0.935957 79.2632 0.855957 79.3911 0.855957C79.5509 0.855957 79.6947 0.935957 79.8226 1.09596C79.9504 1.22396 80.0143 1.36796 80.0143 1.52796C80.0143 1.78396 79.9025 2.08796 79.6787 2.43996C78.1446 4.99996 76.3228 7.51196 74.2134 9.97596C72.1359 12.408 69.9147 14.696 67.5495 16.84C65.1844 18.984 62.8033 20.92 60.4063 22.648C58.0092 24.376 55.724 25.816 53.5506 26.968C51.3773 28.12 49.4596 28.904 47.7977 29.32C47.7018 29.256 47.6538 29.416 47.6538 29.8C47.6538 30.344 47.7657 31.224 47.9894 32.44C48.2131 33.624 48.5487 34.984 48.9962 36.52C49.4756 38.024 50.0509 39.56 50.7221 41.128C51.9366 43.976 53.3589 45.928 54.9889 46.984C56.6508 48.072 58.3608 48.616 60.1186 48.616C61.2373 48.616 62.3878 48.392 63.5704 47.944C64.753 47.496 65.8396 46.872 66.8304 46.072C67.8212 45.304 68.5883 44.392 69.1316 43.336C69.3234 43.016 69.4672 42.856 69.5631 42.856C69.7868 42.856 69.8987 42.984 69.8987 43.24C69.8987 43.336 69.8667 43.432 69.8028 43.528C69.7708 43.656 69.6749 43.896 69.5151 44.248C69.0677 45.144 68.3166 46.088 67.2619 47.08C66.2391 48.104 65.0086 48.952 63.5704 49.624C62.1641 50.328 60.63 50.68 58.968 50.68ZM18.2657 50.056C16.0923 50.056 13.9829 49.752 11.9374 49.144C9.92387 48.568 8.10209 47.704 6.47208 46.552C4.87403 45.4 3.59559 43.992 2.63676 42.328C1.70989 40.664 1.24646 38.776 1.24646 36.664C1.24646 35.128 1.47019 33.768 1.91764 32.584C2.39706 31.368 2.97235 30.36 3.64353 29.56C4.34668 28.76 5.03384 28.152 5.70502 27.736C6.40816 27.32 6.98346 27.112 7.43091 27.112C7.75052 27.112 7.91033 27.208 7.91033 27.4C7.91033 27.56 7.83043 27.688 7.67062 27.784C6.93552 28.168 6.18443 28.728 5.41737 29.464C4.65031 30.2 4.01109 31.16 3.49971 32.344C2.98833 33.528 2.73265 35 2.73265 36.76C2.73265 38.68 3.13216 40.328 3.93118 41.704C4.76217 43.048 5.83286 44.152 7.14326 45.016C8.48563 45.88 9.92387 46.504 11.458 46.888C12.9921 47.304 14.4623 47.512 15.8686 47.512C19.0008 47.512 21.9252 46.904 24.6419 45.688C27.3586 44.472 29.8356 42.856 32.0728 40.84C34.3421 38.792 36.3396 36.52 38.0655 34.024C39.7914 31.528 41.2137 29 42.3323 26.44C42.7478 25.512 43.2432 24.408 43.8185 23.128C44.3938 21.816 45.017 20.424 45.6882 18.952C46.3594 17.48 47.0146 16.04 47.6538 14.632C48.293 13.224 48.8683 11.96 49.3797 10.84C49.9231 9.68796 50.3545 8.80796 50.6741 8.19996C48.5328 8.45596 46.2156 8.69596 43.7226 8.91996C41.2616 9.11196 38.9125 9.52796 36.6752 10.168C34.1823 10.872 32.1368 11.896 30.5387 13.24C28.9726 14.584 27.806 16.04 27.039 17.608C26.3039 19.176 25.9363 20.648 25.9363 22.024C25.9363 23.688 26.3518 25.064 27.1828 26.152C28.0138 27.208 29.2123 27.736 30.7784 27.736C31.961 27.736 33.0157 27.4 33.9426 26.728C34.8694 26.024 35.6045 25.128 36.1479 24.04C36.6912 22.92 36.9629 21.736 36.9629 20.488C36.9629 19.976 36.9149 19.544 36.8191 19.192C36.7232 18.84 36.6752 18.568 36.6752 18.376C36.6752 18.152 36.7551 18.04 36.9149 18.04C37.1387 18.04 37.3464 18.232 37.5382 18.616C37.8578 19.352 38.0176 20.072 38.0176 20.776C38.0176 22.28 37.65 23.64 36.9149 24.856C36.1798 26.04 35.237 26.984 34.0864 27.688C32.9358 28.392 31.7213 28.744 30.4428 28.744C28.9407 28.744 27.6303 28.392 26.5116 27.688C25.425 26.952 24.578 25.992 23.9707 24.808C23.3635 23.624 23.0598 22.344 23.0598 20.968C23.0598 19.4 23.4913 17.816 24.3543 16.216C25.2172 14.584 26.6075 13.112 28.5252 11.8C30.4428 10.456 32.9678 9.43196 36.0999 8.72796C38.7207 8.15196 41.3895 7.78396 44.1062 7.62396C46.8228 7.43196 49.2199 7.23996 51.2974 7.04796C52.416 5.31996 53.3269 4.23196 54.0301 3.78396C54.7332 3.30396 55.3724 3.06396 55.9477 3.06396C56.523 3.06396 56.9705 3.22396 57.2901 3.54396C57.6416 3.86396 57.8174 4.24796 57.8174 4.69596C57.8174 5.33596 57.37 6.02396 56.4751 6.75996C55.6121 7.46396 54.1419 7.92796 52.0644 8.15196C51.0417 10.04 50.0988 12.152 49.2359 14.488C48.3729 16.792 47.51 19.208 46.6471 21.736C45.7841 24.264 44.8413 26.776 43.8185 29.272C42.0926 33.432 40.0471 37.08 37.682 40.216C35.3169 43.32 32.5363 45.736 29.3402 47.464C26.1441 49.192 22.4526 50.056 18.2657 50.056ZM52.9753 6.95196C53.7744 6.88796 54.5414 6.66396 55.2765 6.27996C56.0116 5.86396 56.3792 5.41596 56.3792 4.93596C56.3792 4.61596 56.2194 4.45596 55.8998 4.45596C55.6121 4.45596 55.2126 4.64796 54.7012 5.03196C54.1899 5.38396 53.6146 6.02396 52.9753 6.95196Z" fill="#756958"/>
<path d="M66.2744 43.7778C65.7119 43.7778 65.0599 43.7138 64.3184 43.5858C63.6024 43.4834 62.8993 43.2914 62.2089 43.0098C61.5441 42.7282 60.9816 42.3314 60.5214 41.8194C60.0867 41.2818 59.8694 40.6162 59.8694 39.8226C59.8694 38.8754 60.2913 38.0178 61.135 37.2498C61.9788 36.4562 63.1678 36.0594 64.7019 36.0594C65.8269 36.0594 66.8752 36.2514 67.8468 36.6354C68.8185 36.9938 69.7645 37.4418 70.685 37.9794C71.631 38.4914 72.6026 39.0034 73.5998 39.5154C74.8783 38.2866 76.0416 36.7634 77.09 34.9458C78.1639 33.1282 79.225 31.1826 80.2733 29.109C81.3472 27.0098 82.4978 24.9106 83.7251 22.8114C84.9779 20.7122 86.4226 18.741 88.059 16.8978L90.2835 14.4018C89.3374 14.2482 88.353 14.133 87.3303 14.0562C86.3075 13.9538 85.2464 13.9026 84.147 13.9026C82.6384 13.9026 80.9892 14.0306 79.1994 14.2866C77.4351 14.5426 75.6709 14.9394 73.9067 15.477C72.168 16.0146 70.5699 16.693 69.1125 17.5122C67.6807 18.3314 66.5301 19.3042 65.6607 20.4306C64.7914 21.557 64.3567 22.8498 64.3567 24.309C64.3567 25.3074 64.574 26.101 65.0087 26.6898C65.469 27.2786 66.0315 27.7138 66.6963 27.9954C67.3866 28.2514 68.077 28.3794 68.7673 28.3794C69.9179 28.3794 70.8895 28.1234 71.6822 27.6114C72.4748 27.0738 73.0629 26.4594 73.4464 25.7682C73.8555 25.077 74.0601 24.4626 74.0601 23.925C74.0601 23.7458 74.1879 23.6562 74.4436 23.6562C74.6993 23.6562 74.8271 23.861 74.8271 24.2706C74.8271 25.3202 74.5075 26.229 73.8683 26.997C73.2291 27.765 72.4237 28.3538 71.452 28.7634C70.506 29.173 69.5472 29.3778 68.5756 29.3778C67.6807 29.3778 66.7602 29.1602 65.8141 28.725C64.8937 28.2898 64.1266 27.637 63.5129 26.7666C62.8993 25.8962 62.5925 24.821 62.5925 23.541C62.5925 22.005 63.0271 20.6482 63.8965 19.4706C64.7658 18.2674 65.9292 17.2434 67.3866 16.3986C68.844 15.5538 70.4677 14.8626 72.2575 14.325C74.0473 13.7618 75.8499 13.3522 77.6653 13.0962C79.5062 12.8402 81.2321 12.7122 82.8429 12.7122C84.3259 12.7122 85.7706 12.789 87.1769 12.9426C88.6087 13.0706 89.9511 13.2754 91.2039 13.557C91.5619 13.2498 91.9199 12.981 92.2778 12.7506C92.6614 12.5202 93.0065 12.341 93.3134 12.213C93.5946 12.085 93.8247 12.021 94.0037 12.021C94.2083 12.021 94.3106 12.0978 94.3106 12.2514C94.3106 12.3282 94.1699 12.469 93.8887 12.6738C93.5563 12.9298 93.2622 13.173 93.0065 13.4034C92.7764 13.6082 92.6358 13.7618 92.5847 13.8642C95.1927 14.5298 97.3021 15.4514 98.9129 16.629C100.549 17.781 101.368 19.1506 101.368 20.7378C101.368 22.0434 100.92 23.1954 100.025 24.1938C99.1303 25.1666 97.9541 25.9346 96.4967 26.4978C95.0648 27.061 93.5307 27.381 91.8943 27.4578C94.1955 28.2002 96.0237 29.1602 97.3788 30.3378C98.7595 31.5154 99.4499 33.013 99.4499 34.8306C99.4499 36.1874 99.0536 37.4162 98.2609 38.517C97.4939 39.6178 96.4583 40.565 95.1543 41.3586C93.8759 42.1266 92.4696 42.7154 90.9355 43.125C89.4013 43.5602 87.88 43.7778 86.3714 43.7778C83.9935 43.7778 81.8841 43.5346 80.0432 43.0482C78.2278 42.5618 76.3357 41.8706 74.3669 40.9746C71.8867 42.8434 69.1892 43.7778 66.2744 43.7778ZM85.8345 42.6642C87.4198 42.6642 88.8644 42.421 90.1684 41.9346C91.4724 41.4482 92.5974 40.8082 93.5435 40.0146C94.5151 39.221 95.2566 38.3378 95.768 37.365C96.3049 36.3922 96.5734 35.4322 96.5734 34.485C96.5734 33.589 96.3049 32.7314 95.768 31.9122C95.231 31.0674 94.3873 30.3634 93.2367 29.8002C91.7537 29.0578 90.4497 28.5458 89.3246 28.2642C88.1996 27.957 87.3047 27.6754 86.6399 27.4194C86.3842 27.2914 86.218 27.2018 86.1413 27.1506C86.0646 27.0994 86.0263 27.0482 86.0263 26.997C86.0263 26.741 86.1541 26.5362 86.4098 26.3826C86.6655 26.229 86.9595 26.1522 87.2919 26.1522C87.8033 26.1522 88.353 26.1906 88.9411 26.2674C89.5292 26.3442 90.1556 26.3826 90.8204 26.3826C92.4824 26.3826 93.9142 26.0498 95.116 25.3842C96.3177 24.7186 97.2382 23.8866 97.8774 22.8882C98.5422 21.8898 98.8746 20.9042 98.8746 19.9314C98.8746 18.8306 98.3888 17.8706 97.4172 17.0514C96.4455 16.2066 94.6813 15.4514 92.1244 14.7858C90.846 16.5522 89.5675 18.5362 88.2891 20.7378C87.0107 22.9138 85.7322 25.1282 84.4538 27.381C83.1753 29.6082 81.8841 31.7202 80.5801 33.717C79.2761 35.7138 77.9721 37.429 76.6681 38.8626C76.3613 39.1954 76.1184 39.4514 75.9394 39.6306C75.7604 39.7842 75.5175 40.0018 75.2107 40.2834C76.7448 40.9234 78.4323 41.4866 80.2733 41.973C82.1142 42.4338 83.968 42.6642 85.8345 42.6642ZM65.5073 42.5874C66.9392 42.6642 68.2432 42.4978 69.4193 42.0882C70.6211 41.653 71.7333 41.0514 72.7561 40.2834C72.1424 39.9762 71.3626 39.5794 70.4165 39.093C69.4705 38.6066 68.5116 38.1842 67.54 37.8258C66.5684 37.4418 65.7246 37.2498 65.0087 37.2498C64.0627 37.2498 63.3467 37.5058 62.8609 38.0178C62.3751 38.5042 62.1322 39.0674 62.1322 39.7074C62.1322 40.373 62.4135 41.013 62.976 41.6274C63.5385 42.2162 64.3823 42.5362 65.5073 42.5874Z" fill="#756958"/>
</svg>
