<svg width="64" height="64" viewBox="0 0 64 64" fill="none" xmlns="http://www.w3.org/2000/svg">
  <path d="M32 16C26.4 16 22 20.4 22 26C22 31.6 26.4 36 32 36C37.6 36 42 31.6 42 26C42 20.4 37.6 16 32 16ZM32 32C28.7 32 26 29.3 26 26C26 22.7 28.7 20 32 20C35.3 20 38 22.7 38 26C38 29.3 35.3 32 32 32Z" fill="#8B8178"/>
  <path d="M48 8H16C11.6 8 8 11.6 8 16V48C8 52.4 11.6 56 16 56H48C52.4 56 56 52.4 56 48V16C56 11.6 52.4 8 48 8ZM52 48C52 50.2 50.2 52 48 52H16C13.8 52 12 50.2 12 48V16C12 13.8 13.8 12 16 12H48C50.2 12 52 13.8 52 16V48Z" fill="#8B8178"/>
  <path d="M32 40C24.3 40 18 46.3 18 54H22C22 48.5 26.5 44 32 44C37.5 44 42 48.5 42 54H46C46 46.3 39.7 40 32 40Z" fill="#8B8178"/>
</svg>
