<svg width="128" height="128" viewBox="0 0 128 128" fill="none" xmlns="http://www.w3.org/2000/svg">
<path d="M128 64C128 99.345 99.345 128 64 128C28.655 128 0 99.345 0 64C0 28.655 28.655 0 64 0C99.345 0 128 28.655 128 64Z" fill="#F0835C"/>
<path d="M76.7701 98.1607C73.0192 98.0269 70.1801 96.797 67.7904 94.4493C65.2668 91.9679 62.8166 91.9981 60.2584 94.4666C55.2327 99.3129 48.176 99.3561 43.0293 94.5702C38.0468 89.9353 37.4202 82.2622 41.7632 77.1353C45.3023 72.9579 48.9322 68.8408 52.6831 64.8533C58.9231 58.2203 69.0133 58.1598 75.2835 64.754C79.1295 68.7977 82.8674 72.9665 86.3936 77.2907C89.7167 81.3603 90.1272 86.0642 87.8413 90.7682C85.5596 95.4635 81.5322 97.768 76.7701 98.1607Z" fill="white"/>
<path d="M67.2158 41.5495C67.285 38.3862 68.1535 35.2574 70.4093 32.6422C73.9657 28.5208 79.1772 28.9567 82.0163 33.5787C84.9202 38.3042 84.1942 45.6104 80.4217 49.6584C76.8696 53.4647 71.8915 53.0116 69.0999 48.6141C67.7819 46.5296 67.2504 44.2208 67.2158 41.5495Z" fill="white"/>
<path d="M60.859 41.4412C60.8071 44.4966 60.1719 47.1464 58.3872 49.4207C55.7166 52.8213 51.525 53.1752 48.3056 50.2967C43.7639 46.2444 42.891 37.7859 46.5122 32.8791C49.2476 29.1721 53.7072 28.7621 57.026 31.9772C59.7398 34.6097 60.7207 37.9758 60.859 41.4412Z" fill="white"/>
<path d="M41.8513 53.8709C42.1757 55.5334 42.155 57.2682 41.746 58.9119C41.7097 59.0578 41.6696 59.203 41.6249 59.3469C40.4193 63.2136 36.8542 64.9398 33.0299 63.5847C27.4899 61.6211 23.7434 54.0085 25.554 48.381C26.9022 44.1906 30.826 42.404 34.8232 44.3762C38.8888 46.3846 41.0311 49.6674 41.8513 53.8709Z" fill="white"/>
<path d="M85.9487 55.4712C86.3031 50.9615 88.4076 46.7452 93.2647 44.3673C97.3483 42.3692 101.432 44.3544 102.629 48.7045C104.116 54.1075 100.758 61.0944 95.5982 63.3428C90.4688 65.5783 85.9531 62.2294 85.9487 55.4712Z" fill="white"/>
</svg>
