<svg width="159" height="50" viewBox="0 0 159 50" fill="none" xmlns="http://www.w3.org/2000/svg">
<g clip-path="url(#clip0_1459_7622)">
<path d="M79.1908 20.4754C79.1908 25.9166 76.6652 28.187 70.6743 28.187H65.5852V37.1958H61.1836V12.6914H70.6743C76.6652 12.6914 79.1908 15.0325 79.1908 20.4754ZM74.7891 20.4392C74.7891 17.6651 73.5626 16.5472 70.3149 16.5472H65.5869V24.3674H70.3149C73.561 24.3674 74.7891 23.2495 74.7891 20.4392Z" fill="#0071BC"/>
<path d="M99.9032 33.3401V37.1958H83.0879V12.6914H99.5421V16.5472H87.4895V22.782H97.7386V26.6015H87.4895V33.3401H99.9032Z" fill="#0071BC"/>
<path d="M119.605 16.6196H112.712V37.1958H108.311V16.6196H101.418V12.6914H119.605V16.6196Z" fill="#0071BC"/>
<path d="M121.494 22.7819L121.516 37.3374L125.947 37.3308L125.934 26.5554L136.062 26.5405H136.128L136.133 22.7539L121.494 22.7819Z" fill="#F0835C"/>
<path d="M153.363 12.5961L146.58 20.8131L139.538 12.5928L121.475 12.6192V16.7054L137.362 16.689L144.042 24.3511L133.555 37.3393L139.253 37.3311L146.701 27.8842L149.452 24.5833L158.999 12.5879L153.363 12.5961Z" fill="#F0835C"/>
<path d="M49.9941 24.9638C49.9941 38.7504 38.8021 49.9275 24.9971 49.9275C11.1921 49.9275 0 38.7504 0 24.9638C0 11.1771 11.1921 0 24.9971 0C38.8021 0 49.9941 11.1771 49.9941 24.9638Z" fill="#F0835C"/>
<path d="M29.8538 38.0017C28.4229 37.9507 27.3398 37.4814 26.4281 36.5858C25.4654 35.6392 24.5306 35.6507 23.5547 36.5924C21.6374 38.4413 18.9453 38.4577 16.9819 36.6319C15.0811 34.8637 14.8421 31.9365 16.4989 29.9806C17.849 28.3869 19.2338 26.8163 20.6648 25.2951C23.0453 22.7646 26.8947 22.7416 29.2867 25.2572C30.7539 26.7999 32.1799 28.3902 33.5252 30.0399C34.7929 31.5924 34.9495 33.3869 34.0774 35.1815C33.207 36.9727 31.6705 37.8519 29.8538 38.0017Z" fill="white"/>
<path d="M26.209 16.4047C26.2354 15.198 26.5667 14.0043 27.4273 13.0066C28.784 11.4344 30.7722 11.6007 31.8553 13.3639C32.9631 15.1667 32.6862 17.954 31.247 19.4982C29.8919 20.9503 27.9927 20.7775 26.9278 19.0998C26.4249 18.3046 26.2222 17.4238 26.209 16.4047Z" fill="white"/>
<path d="M23.783 16.3634C23.7632 17.529 23.5209 18.5399 22.8401 19.4075C21.8212 20.7048 20.2221 20.8398 18.994 19.7417C17.2613 18.1958 16.9283 14.9689 18.3098 13.097C19.3534 11.6828 21.0547 11.5264 22.3208 12.7529C23.3561 13.7572 23.7303 15.0413 23.783 16.3634Z" fill="white"/>
<path d="M16.6579 22.0697C16.5969 22.4039 16.5639 22.8122 16.4452 23.1941C15.9853 24.6693 14.6252 25.3278 13.1663 24.8108C11.0528 24.0618 9.62351 21.1576 10.3143 19.0107C10.8286 17.4121 12.3255 16.7305 13.8504 17.4829C15.7001 18.3966 16.5062 20.0018 16.6579 22.0697Z" fill="white"/>
<path d="M33.3555 21.7151C33.4907 19.9946 34.2935 18.3861 36.1465 17.479C37.7044 16.7167 39.2622 17.4741 39.7189 19.1336C40.286 21.1948 39.0051 23.8603 37.0367 24.718C35.0799 25.5709 33.3571 24.2933 33.3555 21.7151Z" fill="white"/>
</g>
<defs>
<clipPath id="clip0_1459_7622">
<rect width="159" height="49.9275" fill="white"/>
</clipPath>
</defs>
</svg>
