<svg width="160" height="50" viewBox="0 0 160 50" fill="none" xmlns="http://www.w3.org/2000/svg">
<g clip-path="url(#clip0_497_4136)">
<path d="M79.3048 20.5053C79.3048 25.9544 76.7756 28.228 70.776 28.228H65.6795V37.25H61.2715V12.71H70.776C76.7756 12.71 79.3048 15.0545 79.3048 20.5053ZM74.8968 20.469C74.8968 17.6908 73.6685 16.5713 70.4161 16.5713H65.6812V24.4029H70.4161C73.6668 24.4029 74.8968 23.2834 74.8968 20.469Z" fill="white"/>
<path d="M100.048 33.3886V37.25H83.208V12.71H99.6861V16.5713H87.616V22.8152H97.88V26.6403H87.616V33.3886H100.048Z" fill="white"/>
<path d="M119.778 16.6439H112.876V37.25H108.468V16.6439H101.565V12.71H119.778V16.6439Z" fill="white"/>
<path d="M121.67 22.8151L121.691 37.3917L126.129 37.3851L126.116 26.5941L136.259 26.5792H136.325L136.33 22.7871L121.67 22.8151Z" fill="#F0835C"/>
<path d="M153.586 12.6147L146.794 20.8436L139.741 12.6114L121.652 12.6378V16.73L137.562 16.7135L144.252 24.3868L133.75 37.3938L139.456 37.3855L146.915 27.925L149.67 24.6192L159.231 12.6064L153.586 12.6147Z" fill="#F0835C"/>
<path d="M50.0667 25C50.0667 38.8066 38.8584 50 25.0333 50C11.2083 50 0 38.8066 0 25C0 11.1934 11.2083 0 25.0333 0C38.8584 0 50.0667 11.1934 50.0667 25Z" fill="#F0835C"/>
<path d="M29.8973 38.0561C28.4643 38.005 27.3796 37.5351 26.4666 36.6382C25.5024 35.6902 24.5664 35.7017 23.589 36.6448C21.6689 38.4963 18.9729 38.5128 17.0067 36.6843C15.1031 34.9136 14.8637 31.9821 16.5229 30.0234C17.8751 28.4274 19.2619 26.8545 20.6949 25.3311C23.0789 22.7969 26.9338 22.7738 29.3293 25.2931C30.7987 26.838 32.2268 28.4307 33.5739 30.0828C34.8435 31.6375 35.0004 33.4347 34.127 35.2318C33.2553 37.0256 31.7166 37.9061 29.8973 38.0561Z" fill="white"/>
<path d="M26.2466 16.4278C26.273 15.2193 26.6048 14.024 27.4666 13.0248C28.8254 11.4503 30.8164 11.6168 31.9011 13.3826C33.0105 15.188 32.7332 17.9793 31.2919 19.5258C29.9348 20.98 28.0329 20.8069 26.9664 19.1268C26.4629 18.3305 26.2598 17.4484 26.2466 16.4278Z" fill="white"/>
<path d="M23.8181 16.3874C23.7983 17.5547 23.5556 18.567 22.8738 19.4359C21.8535 20.7351 20.252 20.8703 19.0221 19.7706C17.2869 18.2224 16.9534 14.9909 18.3369 13.1163C19.382 11.7 21.0858 11.5434 22.3537 12.7717C23.3905 13.7774 23.7653 15.0634 23.8181 16.3874Z" fill="white"/>
<path d="M16.683 22.1012C16.6219 22.4359 16.5889 22.8448 16.47 23.2273C16.0094 24.7046 14.6474 25.364 13.1863 24.8463C11.0698 24.0962 9.63838 21.1878 10.3301 19.0378C10.8452 17.4369 12.3443 16.7543 13.8714 17.5078C15.7238 18.4228 16.5311 20.0303 16.683 22.1012Z" fill="white"/>
<path d="M33.4038 21.747C33.5392 20.0241 34.3432 18.4133 36.1989 17.5048C37.759 16.7414 39.3192 17.4999 39.7765 19.1618C40.3444 21.226 39.0616 23.8954 37.0904 24.7544C35.1307 25.6084 33.4055 24.329 33.4038 21.747Z" fill="white"/>
</g>
<defs>
<clipPath id="clip0_497_4136">
<rect width="159.231" height="50" fill="white"/>
</clipPath>
</defs>
</svg>
